<svg width="14" height="15" xmlns="http://www.w3.org/2000/svg"><path d="M1.275 2.644a.966.966 0 01.69-1.642h.01c.258.003.5.105.679.287.337.343.393.822.14 1.189a.493.493 0 00-.09.286.485.485 0 00-.296.042c-.393.183-.858.119-1.133-.162m12.3 1.625l-1.695-.535a.501.501 0 00-.628.324l-.535 1.703a.5.5 0 00.71.591l.707-.37a5.06 5.06 0 01-1.014 4.56L4.578 4c.825-.899 1.034-1.47.67-1.842-.293-.298-.72-.224-1.346.232A1.953 1.953 0 003.367.587 1.95 1.95 0 001.982.002C1.418-.028.96.198.587.567A1.942 1.942 0 000 1.95a1.951 1.951 0 00.562 1.396c.36.365.868.56 1.39.56.143 0 .288-.017.432-.047-.532.675-.637 1.128-.333 1.439.119.119.257.18.422.18.339 0 .79-.26 1.386-.78l6.549 6.547a5.07 5.07 0 01-4.451.979l.356-.649a.5.5 0 00-.58-.72l-1.71.502c-.127.037-.221.164-.284.28a.593.593 0 00-.027.421l.477 1.626a.502.502 0 00.48.359.5.5 0 00.439-.261l.356-.659a6.068 6.068 0 006.026-1.489 6.066 6.066 0 001.542-6.12l.624-.325a.499.499 0 00-.081-.92" fill="#2D75FF" fill-rule="evenodd"/></svg>