<?xml version="1.0" encoding="UTF-8"?>
<svg width="17px" height="17px" viewBox="0 0 17 17" version="1.1" xmlns="http://www.w3.org/2000/svg" xmlns:xlink="http://www.w3.org/1999/xlink">
    <title>2BA589DC-3659-423C-9628-2D1B4197F996</title>
    <g id="-✅-ECOM-2547-☑️-ECOM-2887-Results-HAZ+Cancellation-fee-(Desk,-Mob)" stroke="none" stroke-width="1" fill="none" fill-rule="evenodd">
        <g id="Details---valid" transform="translate(-697.000000, -603.000000)">
            <g id="Group" transform="translate(45.000000, 324.000000)">
                <g id="CONTENT-/-details" transform="translate(2.000000, 0.000000)">
                    <g id="Section-details-/-Rate-per-container" transform="translate(1.000000, 0.000000)">
                        <g id="ico-/-fixed-price" transform="translate(649.901294, 279.857163)">
                            <polyline id="Path" stroke="#235AF6" points="10.5987061 4.64283741 10.5987061 0.642837414 0.598706136 0.642837414 0.598706136 14.6428374 5.59870614 14.6428374"></polyline>
                            <path d="M5.86360807,8.06614484 C5.71403384,7.91032501 5.46449663,7.77023698 5.11573691,7.64513164 C4.76623672,7.52077542 4.49448552,7.40540882 4.3004833,7.29903181 C3.65405605,6.94768806 3.33121266,6.42928746 3.33121266,5.74158262 C3.33121266,5.27637052 3.47116083,4.89356314 3.75179763,4.59390961 C4.03169396,4.29350695 4.41081281,4.11596224 4.89063509,4.05902807 L4.89063509,3.14283741 L5.55557401,3.14283741 L5.55557401,4.06801767 C6.03835816,4.13768712 6.41155327,4.34519719 6.67441888,4.68830047 C6.93728448,5.03215289 7.06908752,5.47863665 7.06908752,6.02775173 L6.06353402,6.02775173 C6.06353402,5.67490971 5.98504457,5.39623193 5.82806568,5.19321666 C5.67182725,4.98945227 5.4585729,4.8883192 5.18978356,4.8883192 C4.92395609,4.8883192 4.715885,4.96098518 4.56631077,5.10706627 C4.41673654,5.25314737 4.34194942,5.46140657 4.34194942,5.73409128 C4.34194942,5.97755977 4.41599607,6.17308369 4.56408937,6.32066305 C4.71292314,6.46749328 4.96394128,6.6075813 5.31862473,6.73867972 C5.67330818,6.87052727 5.95246405,6.99263608 6.1546114,7.10500616 C6.35675875,7.21737623 6.52780651,7.34547811 6.66627375,7.49006094 C6.80474098,7.63464376 6.91136816,7.80020234 6.98615527,7.98823492 C7.06094239,8.17626751 7.09870618,8.39651285 7.09870618,8.64897095 C7.09870618,9.12317265 6.95505568,9.50672916 6.66849515,9.80113875 C6.38119415,10.0955483 5.98134224,10.2693474 5.46893943,10.323285 L5.46893943,11.1428374 L4.80770285,11.1428374 L4.80770285,10.3270307 C4.25827671,10.2656017 3.83621081,10.0663321 3.54150514,9.72997104 C3.24605901,9.39286082 3.09870618,8.94787534 3.09870618,8.39201805 L4.10870248,8.39201805 C4.10870248,8.74560921 4.19681799,9.01904305 4.37304902,9.21231958 C4.54928004,9.40634523 4.79807678,9.5029835 5.11943924,9.5029835 C5.43561843,9.5029835 5.67552958,9.42582271 5.84065361,9.27150115 C6.00577763,9.11717958 6.08796942,8.91266605 6.08796942,8.65721142 C6.08796942,8.41898687 6.0131823,8.22196467 5.86360807,8.06614484 Z" id="Fill-1" fill="#235AF6"></path>
                            <g id="Group" transform="translate(9.098706, 6.142837)" stroke="#235AF6">
                                <path d="M3,0 C4.1045695,-2.02906125e-16 5,0.8954305 5,2 L5,6 L5,6 L1,6 L1,2 C1,0.8954305 1.8954305,2.02906125e-16 3,0 Z" id="Rectangle"></path>
                                <rect id="Rectangle" fill="#FFFFFF" x="-0.5" y="3.5" width="7" height="6" rx="1"></rect>
                            </g>
                        </g>
                    </g>
                </g>
            </g>
        </g>
    </g>
</svg>