<?xml version="1.0" encoding="UTF-8"?>
<svg width="74px" height="44px" viewBox="0 0 74 44" version="1.1" xmlns="http://www.w3.org/2000/svg" xmlns:xlink="http://www.w3.org/1999/xlink">
    <title>LOGO / ANL</title>
    <g id="LOGO-/-ANL" stroke="none" stroke-width="1" fill="none" fill-rule="evenodd">
        <g id="logo-ANL" transform="translate(21.000000, 8.000000)" fill-rule="nonzero">
            <g id="Logo_3_" transform="translate(8.000000, 0.000000)" fill="#FF0000">
                <polygon id="triangle_3_" points="8.01975321 13.8666669 8.01975321 13.8666669 0.0790123469 0.0205432102 15.9604941 0.0205432102"></polygon>
            </g>
            <g id="Group" transform="translate(0.000000, 17.600000)" fill="#051039">
                <path d="M2.33264368,10.3159597 L0.0713035185,10.3159597 L4.17634894,0.0210101013 L7.21184158,0.0210101013 L11.316887,10.3159597 L8.98424333,10.3159597 L8.31195301,8.53010114 L2.99474778,8.53010114 L2.33264368,10.3159597 Z M3.80964513,6.53414151 L7.50724188,6.53414151 L5.66353661,1.5757576 L3.80964513,6.53414151 Z" id="Shape"></path>
                <path d="M19.6899573,10.2109092 L15.1978357,4.43313138 C14.9533664,4.12848491 14.464428,3.47717177 14.2505175,3.06747479 L14.2199588,3.06747479 C14.2505175,3.44565662 14.2607037,4.11797986 14.2607037,4.43313138 L14.2607037,10.3159597 L12.2234603,10.3159597 L12.2234603,0.0210101013 L14.3320072,0.0210101013 L18.8343151,5.79878797 C19.0889705,6.10343443 19.5677227,6.75474758 19.7918195,7.16444455 L19.8223781,7.16444455 C19.7816333,6.78626273 19.7612608,6.11393949 19.7612608,5.79878797 L19.7612608,0.0210101013 L21.7985042,0.0210101013 L21.7985042,10.2109092 L19.6899573,10.2109092 Z" id="Path"></path>
                <polygon id="Path" points="31.4754103 10.3159597 23.9376098 10.3159597 23.9376098 0.0210101013 25.9748532 0.0210101013 25.9748532 8.32000012 31.4754103 8.32000012"></polygon>
            </g>
        </g>
    </g>
</svg>