<?xml version="1.0" encoding="UTF-8"?>
<svg width="74px" height="44px" viewBox="0 0 74 44" version="1.1" xmlns="http://www.w3.org/2000/svg" xmlns:xlink="http://www.w3.org/1999/xlink">
    <title>LOGO / CMA</title>
    <g id="LOGO-/-CMA" stroke="none" stroke-width="1" fill="none" fill-rule="evenodd">
        <g id="logo-CMA-CGM" fill-rule="nonzero">
            <g id="Group">
                <path d="M41.4595104,4.72592593 C41.9890772,4.31851852 44.3163842,2.29506173 45.4730697,0.909876543 C45.5566855,0.801234568 45.5009416,0.651851852 45.3755179,0.611111111 C39.2854991,-1.11358025 20.8482109,0.556790123 12.0964218,13.4716049 C11.9709981,13.6481481 11.9988701,13.7024691 12.1382298,13.8111111 C15.1902072,8.99012346 22.1163842,5.20123457 30.4919021,4.41358025 C33.9340866,4.08765432 37.445951,4.35925926 40.9020716,4.94320988 C41.2365348,4.97037037 41.2225989,4.91604938 41.4595104,4.72592593 Z" id="Path" fill="#FF0000"></path>
                <g transform="translate(0.000000, 16.839506)" fill="#051039">
                    <path d="M32.9306968,10.3481481 L35.3694915,10.3481481 L31.0632768,0.162962963 L27.8858757,0.162962963 L23.579661,10.3481481 L25.9487759,10.3481481 L26.6455744,8.58271605 L32.2199623,8.58271605 L32.9306968,10.3481481 Z M27.4956685,6.68148148 L29.4327684,1.75185185 L31.3698682,6.68148148 L27.4956685,6.68148148 Z" id="Shape"></path>
                    <path d="M17.3502825,9.2617284 L20.0120527,4.92962963 C20.1096045,4.76666667 20.6252354,3.89753086 20.792467,3.55802469 L20.820339,3.55802469 C20.792467,3.9382716 20.792467,4.61728395 20.792467,4.92962963 L20.792467,10.3481481 L23.0222222,10.3481481 L23.0222222,0.162962963 L20.8900188,0.162962963 L17.5035782,5.62222222 L14.1171375,0.162962963 L11.5947269,0.162962963 L11.5947269,10.3481481 L13.8244821,10.3481481 L13.8244821,4.92962963 C13.8244821,4.61728395 13.8105461,3.95185185 13.7966102,3.55802469 L13.8244821,3.55802469 C13.9917137,3.88395062 14.5073446,4.76666667 14.6048964,4.92962963 L17.2666667,9.2617284 L17.3502825,9.2617284 L17.3502825,9.2617284 Z" id="Path"></path>
                    <path d="M68.1468927,9.2617284 L70.8644068,4.92962963 C70.9619586,4.76666667 71.4915254,3.89753086 71.6587571,3.55802469 L71.686629,3.55802469 C71.6587571,3.9382716 71.6587571,4.61728395 71.6587571,4.92962963 L71.6587571,10.3481481 L73.8885122,10.3481481 L73.8885122,0.162962963 L71.6169492,0.162962963 L68.2305085,5.62222222 L64.8440678,0.162962963 L62.3216573,0.162962963 L62.3216573,10.3481481 L64.5514124,10.3481481 L64.5514124,4.92962963 C64.5514124,4.61728395 64.5374765,3.95185185 64.5235405,3.55802469 L64.5514124,3.55802469 C64.7186441,3.88395062 65.2482109,4.76666667 65.3457627,4.92962963 L68.0632768,9.2617284 L68.1468927,9.2617284 L68.1468927,9.2617284 Z" id="Path"></path>
                    <path d="M10.3404896,7.36049383 L7.97137476,7.36049383 L7.97137476,7.42839506 C7.97137476,8.25679012 7.51148776,8.44691358 6.49416196,8.44691358 L4.23653484,8.44691358 C2.52241055,8.44691358 2.25762712,8.24320988 2.25762712,6.30123457 L2.25762712,4.07407407 C2.25762712,2.26790123 2.50847458,2.06419753 4.19472693,2.06419753 L6.41054614,2.06419753 C7.41393597,2.06419753 7.85988701,2.24074074 7.85988701,3.01481481 L10.4937853,3.01481481 C10.4937853,0.787654321 9.58794727,0.0271604938 6.74500942,0.0271604938 L3.7905838,0.0271604938 C1.08700565,0.0271604938 0.0278719397,1.01851852 0.0278719397,3.58518519 L0.0278719397,6.8308642 C0.0278719397,9.34320988 1.07306968,10.3345679 3.73483992,10.3345679 L6.64745763,10.3345679 C9.46252354,10.3345679 10.3404896,9.58765432 10.3404896,7.40123457 L10.3404896,7.36049383 Z" id="Path"></path>
                    <path d="M48.9431262,7.36049383 L46.5740113,7.36049383 L46.5740113,7.42839506 C46.5740113,8.25679012 46.1141243,8.44691358 45.0967985,8.44691358 L42.8391714,8.44691358 C41.1250471,8.44691358 40.8602637,8.24320988 40.8602637,6.30123457 L40.8602637,4.07407407 C40.8602637,2.26790123 41.1111111,2.06419753 42.7973635,2.06419753 L45.0131827,2.06419753 C46.0165725,2.06419753 46.4625235,2.24074074 46.4625235,3.01481481 L49.0964218,3.01481481 C49.0964218,0.787654321 48.1905838,0.0271604938 45.347646,0.0271604938 L42.3932203,0.0271604938 C39.6896422,0.0271604938 38.6305085,1.03209877 38.6305085,3.59876543 L38.6305085,6.84444444 C38.6305085,9.35679012 39.6757062,10.3345679 42.3374765,10.3345679 L45.2500942,10.3345679 C48.0651601,10.3345679 48.9431262,9.58765432 48.9431262,7.41481481 L48.9431262,7.36049383 Z" id="Path"></path>
                    <path d="M58.5589454,6.40987654 L58.5589454,7.48271605 C58.5589454,8.27037037 58.1129944,8.44691358 57.0956685,8.44691358 L54.3920904,8.44691358 C52.6919021,8.44691358 52.4410546,8.25679012 52.4410546,6.40987654 L52.4410546,4.07407407 C52.4410546,2.26790123 52.6919021,2.06419753 54.3781544,2.06419753 L56.9563089,2.06419753 C57.9596987,2.06419753 58.4056497,2.24074074 58.4056497,3.01481481 L61.039548,3.01481481 C61.039548,0.787654321 60.13371,0.0271604938 57.2907721,0.0271604938 L53.9879473,0.0271604938 C51.2843691,0.0271604938 50.2252354,1.03209877 50.2252354,3.59876543 L50.2252354,6.79012346 C50.2252354,9.34320988 51.2704331,10.3481481 53.9043315,10.3481481 L57.1374765,10.3481481 C59.9386064,10.3481481 60.8026365,9.58765432 60.8026365,7.37407407 L60.8026365,4.64444444 L55.506968,4.64444444 L55.506968,6.40987654 L58.5589454,6.40987654 Z" id="Path"></path>
                </g>
                <path d="M32.4011299,39.2740741 C31.8715631,39.6814815 29.5442561,41.7049383 28.3875706,43.0901235 C28.3039548,43.1987654 28.3596987,43.3481481 28.4851224,43.3888889 C34.5751412,45.1135802 53.0124294,43.4296296 61.7642185,30.5148148 C61.8896422,30.3382716 61.8617702,30.2839506 61.7224105,30.1753086 C58.6704331,34.9962963 51.7442561,38.7851852 43.3687382,39.5728395 C39.9265537,39.8987654 36.4146893,39.6271605 32.9585687,39.0432099 C32.6241055,39.0160494 32.6380414,39.0703704 32.4011299,39.2740741 Z" id="Path" fill="#FF0000"></path>
            </g>
        </g>
    </g>
</svg>