<?xml version="1.0" encoding="UTF-8"?>
<svg width="74px" height="44px" viewBox="0 0 74 44" version="1.1" xmlns="http://www.w3.org/2000/svg" xmlns:xlink="http://www.w3.org/1999/xlink">
    <title>LOGO / CNC</title>
    <g id="LOGO-/-CNC" stroke="none" stroke-width="1" fill="none" fill-rule="evenodd">
        <g id="logo-CNC" transform="translate(20.000000, 9.000000)" fill-rule="nonzero">
            <g id="Group" transform="translate(8.799999, 0.000000)" fill="#FF0000">
                <path d="M0.404050609,12.7234278 C5.84810092,15.4285705 11.3027841,9.60685657 16.7468344,12.6719992 L16.7149357,12.1679993 C11.2815183,9.65828514 5.83746801,14.9554277 0.404050609,12.7234278" id="Path"></path>
                <path d="M15.7048092,12.4354278 C10.6754424,10.5017137 6.13518951,15.5725705 1.11645563,13.8959992 C2.83898717,14.6159991 4.48708834,14.441142 6.13518951,14.009142 C9.28253109,13.0628564 12.3554423,11.2217136 15.7048092,12.4354278" id="Path"></path>
                <path d="M15.9281003,0.874285662 C10.8987335,-1.8822856 5.86936674,3.73371406 0.83999995,0.977142799 C0.574177181,4.70057115 0.308354412,8.4239995 0.042531643,12.1474278 C5.60354397,15.2639991 11.1645563,9.14399945 16.7255686,12.2708564 C16.4597459,8.46514235 16.1939231,4.66971401 15.9281003,0.874285662 Z M12.3129107,6.37714248 C11.1007588,7.26171385 9.83544245,8.48571378 8.50632861,9.76114228 C8.04911344,10.1828565 7.30480969,10.347428 6.89012617,10.1108565 C5.78430345,9.44228515 4.72101238,8.69142805 3.68962003,7.70399954 C3.33873398,7.34399956 3.46632891,6.85028531 3.93417698,6.57257104 C5.23139209,5.75999966 6.48607556,4.59771401 7.67696157,3.41485694 C8.07037927,3.01371411 8.66582227,2.8594284 9.02734123,3.07542839 C10.0587336,3.67199978 11.1220247,4.31999974 12.2065816,5.22514255 C12.631898,5.57485681 12.6850625,6.09942821 12.3129107,6.37714248 Z" id="Shape"></path>
            </g>
            <g id="Group" transform="translate(0.000000, 16.799999)" fill="#051039">
                <path d="M9.96697188,7.36319956 C9.96697188,9.56799943 9.10385267,10.3167994 6.42201797,10.3167994 L3.63743098,10.3167994 C1.08917425,10.3167994 0.0924770587,9.31839944 0.0924770587,6.7703996 L0.0924770587,3.63999978 C0.0924770587,1.03999994 1.11999993,0.0207999988 3.75045849,0.0207999988 L6.62752254,0.0207999988 C9.4018343,0.0207999988 10.285504,0.790399953 10.285504,3.03679982 L7.80917385,3.03679982 C7.80917385,2.18399987 7.35706378,1.99679988 6.37064182,1.99679988 L4.17174287,1.99679988 C2.50715581,1.99679988 2.26055032,2.20479987 2.26055032,4.20159975 L2.26055032,6.26079963 C2.26055032,8.14319951 2.50715581,8.3407995 4.13064196,8.3407995 L6.28843999,8.3407995 C7.26458672,8.3407995 7.70642156,8.16399951 7.70642156,7.36319956 L7.70642156,7.30079956 L9.96697188,7.30079956 L9.96697188,7.36319956 Z" id="Path"></path>
                <path d="M19.1427512,10.3167994 L14.6011,4.59679973 C14.3544946,4.29519974 13.8612836,3.65039978 13.6455038,3.24479981 L13.6146781,3.24479981 C13.6455038,3.61919978 13.655779,4.28479974 13.655779,4.59679973 L13.655779,10.3167994 L11.6007333,10.3167994 L11.6007333,0.228799986 L13.7277056,0.228799986 L18.2693567,5.86559965 C18.5262374,6.16719963 19.0091732,6.7911996 19.2352282,7.19679957 L19.2660539,7.19679957 C19.224953,6.82239959 19.2044025,6.16719963 19.2044025,5.86559965 L19.2044025,0.228799986 L21.2594483,0.228799986 L21.2594483,10.3167994 L19.1427512,10.3167994 Z" id="Path"></path>
                <path d="M33.1889888,7.36319956 C33.1889888,9.56799943 32.3258696,10.3167994 29.6440349,10.3167994 L26.8594479,10.3167994 C24.3111912,10.3167994 23.314494,9.31839944 23.314494,6.7703996 L23.314494,3.63999978 C23.314494,1.03999994 24.3420169,0.0207999988 26.9724755,0.0207999988 L29.8495395,0.0207999988 C32.6238513,0.0207999988 33.5075209,0.790399953 33.5075209,3.03679982 L31.0311908,3.03679982 C31.0311908,2.18399987 30.5790807,1.99679988 29.5926588,1.99679988 L27.3937598,1.99679988 C25.7291728,1.99679988 25.4825673,2.20479987 25.4825673,4.20159975 L25.4825673,6.26079963 C25.4825673,8.14319951 25.7291728,8.3407995 27.3526589,8.3407995 L29.510457,8.3407995 C30.4866037,8.3407995 30.9284385,8.16399951 30.9284385,7.36319956 L30.9284385,7.30079956 L33.1889888,7.30079956 L33.1889888,7.36319956 Z" id="Path"></path>
            </g>
        </g>
    </g>
</svg>