<?xml version="1.0" encoding="UTF-8"?>
<svg width="16px" height="16px" viewBox="0 0 16 16" version="1.1" xmlns="http://www.w3.org/2000/svg" xmlns:xlink="http://www.w3.org/1999/xlink">
    <title>Components / 02 Icon / 16 / Error</title>
    <g id="Components-/-02-Icon-/-16-/-Error" stroke="none" stroke-width="1" fill="none" fill-rule="evenodd">
        <path d="M11.2322098,2.27373675e-13 L15.9423717,4.62866322 L16,11.2322098 L11.3713368,15.9423717 L4.76779019,16 L0.057628278,11.3713368 L0,4.76779019 L4.62866322,0.057628278 L11.2322098,2.27373675e-13 Z M10.826,1.003 L5.051,1.053 L1.003,5.173 L1.053,10.948 L5.173,14.996 L10.948,14.946 L14.996,10.826 L14.946,5.051 L10.826,1.003 Z M8,10.25 C8.414,10.25 8.75,10.58525 8.75,11 C8.75,11.414 8.414,11.75 8,11.75 C7.58525,11.75 7.25,11.414 7.25,11 C7.25,10.58525 7.58525,10.25 8,10.25 Z M8,4 C8.229505,4 8.42038383,4.16755651 8.45996795,4.388517 L8.4675,4.47365755 L8.4675,8.52634245 C8.4675,8.78793629 8.25819312,9 8,9 C7.770495,9 7.57961617,8.83244349 7.54003205,8.611483 L7.5325,8.52634245 L7.5325,4.47365755 C7.5325,4.21206371 7.74180688,4 8,4 Z" id="Combined-Shape" fill="#04246A"></path>
    </g>
</svg>