<?xml version="1.0" encoding="UTF-8"?>
<svg width="11px" height="11px" viewBox="0 0 11 11" version="1.1" xmlns="http://www.w3.org/2000/svg" xmlns:xlink="http://www.w3.org/1999/xlink">
    <title>Info</title>
    <g id="phase5" stroke="none" stroke-width="1" fill="none" fill-rule="evenodd">
        <g id="结果页-2备份-2" transform="translate(-94.000000, -505.000000)" fill="#B9BFCA" fill-rule="nonzero">
            <g id="Info" transform="translate(94.000000, 505.000000)">
                <path d="M5.5,0 C8.53757142,0 11,2.46242857 11,5.5 C11,8.53757142 8.53757142,11 5.5,11 C2.46242857,11 0,8.53757142 0,5.5 C0,2.46242857 2.46242857,0 5.5,0 Z M5.5,0.6875 C2.84630729,0.6875 0.6875,2.84630729 0.6875,5.5 C0.6875,8.15369273 2.84630729,10.3125 5.5,10.3125 C8.15369273,10.3125 10.3125,8.15369273 10.3125,5.5 C10.3125,2.84630729 8.15369273,0.6875 5.5,0.6875 Z M5.5,4.640625 C5.67750777,4.640625 5.82140625,4.7864188 5.82140625,4.96626457 L5.82140625,4.96626457 L5.82140625,7.75248547 L5.81622797,7.81101956 C5.78901388,7.96292991 5.65778469,8.078125 5.5,8.078125 C5.32249223,8.078125 5.17859375,7.93233121 5.17859375,7.75248547 L5.17859375,7.75248547 L5.17859375,4.96626457 L5.18377203,4.90773044 C5.21098612,4.7558201 5.34221531,4.640625 5.5,4.640625 Z M5.5,2.75 C5.784625,2.75 6.015625,2.981 6.015625,3.265625 C6.015625,3.55076562 5.784625,3.78125 5.5,3.78125 C5.21485938,3.78125 4.984375,3.55076562 4.984375,3.265625 C4.984375,2.981 5.21485938,2.75 5.5,2.75 Z" id="Combined-Shape"></path>
            </g>
        </g>
    </g>
</svg>