<?xml version="1.0" encoding="UTF-8"?>
<svg width="12px" height="15px" viewBox="0 0 12 15" version="1.1" xmlns="http://www.w3.org/2000/svg" xmlns:xlink="http://www.w3.org/1999/xlink">
    <title>椭圆形备份 4</title>
    <g id="phase5" stroke="none" stroke-width="1" fill="none" fill-rule="evenodd">
        <g id="my-contracts-结果备份-3" transform="translate(-46.000000, -703.000000)" fill="#E10202" fill-rule="nonzero">
            <path d="M52,703 C55.3137085,703 58,705.761544 58,709.168081 C58,711.301048 56.235773,714.151187 52.7073189,717.718498 L52.7064378,717.717622 C52.3170359,718.109266 51.6838736,718.111083 51.2922301,717.721681 C51.2899198,717.719384 51.2876207,717.717076 51.285333,717.714756 C47.7623931,714.148224 46,711.299939 46,709.168081 C46,705.761544 48.6862915,703 52,703 Z M52,706.855051 C50.7573593,706.855051 49.75,707.89063 49.75,709.168081 C49.75,710.445533 50.7573593,711.481112 52,711.481112 C53.2426407,711.481112 54.25,710.445533 54.25,709.168081 C54.25,707.89063 53.2426407,706.855051 52,706.855051 Z" id="椭圆形备份-4"></path>
        </g>
    </g>
</svg>