<?xml version="1.0" encoding="UTF-8"?>
<svg width="16px" height="16px" viewBox="0 0 16 16" version="1.1" xmlns="http://www.w3.org/2000/svg" xmlns:xlink="http://www.w3.org/1999/xlink">
    <title>Components / 02 Icon / 16 / Partners</title>
    <g id="Components-/-02-Icon-/-16-/-Partners" stroke="none" stroke-width="1" fill="none" fill-rule="evenodd">
        <path d="M8.6467,3.1746 C8.8577,3.2396 8.9997,3.4316 8.9997,3.6526 L8.9997,5.4846 L8.9997,15.1466 L5.9997,15.1466 L0.9997,15.1466 L0.9997,1.4996 C0.9997,1.1736 1.3407,0.9256 1.6467,1.0216 L8.6467,3.1746 Z M14.6367,8.1176 C14.8507,8.1776 15.0007,8.3766 15.0007,8.5986 L15.0007,15.1466 L13.0007,15.1466 L10.0007,15.1466 L10.0007,6.8066 L14.6367,8.1176 Z M1.4997,-0.0004 C1.6497,-0.0004 1.7977,0.0226 1.9407,0.0656 L1.9407,0.0656 L8.9407,2.2186 C9.5747,2.4136 10.0007,2.9896 10.0007,3.6526 L10.0007,3.6526 L10.0007,5.7676 L14.9087,7.1556 C15.5507,7.3366 16.0007,7.9306 16.0007,8.5986 L16.0007,8.5986 L16.0007,16.1466 L-0.0003,16.1466 L-0.0003,1.4996 C-0.0003,0.6726 0.6727,-0.0004 1.4997,-0.0004 Z M8,11.146 L2,11.146 L2,12.146 L8,12.146 L8,11.146 Z M14.0002,11.1463 L11.0002,11.1463 L11.0002,12.1463 L14.0002,12.1463 L14.0002,11.1463 Z M8,9.146 L2,9.146 L2,10.146 L8,10.146 L8,9.146 Z M14,9.146 L11,9.146 L11,10.146 L14,10.146 L14,9.146 Z M8,7.146 L2,7.146 L2,8.146 L8,8.146 L8,7.146 Z M7.9998,5.1458 L1.9998,5.1458 L1.9998,6.1458 L7.9998,6.1458 L7.9998,5.1458 Z" id="Fill-1" fill="#04246A"></path>
    </g>
</svg>