<?xml version="1.0" encoding="UTF-8"?>
<svg width="35px" height="35px" viewBox="0 0 35 35" version="1.1" xmlns="http://www.w3.org/2000/svg" xmlns:xlink="http://www.w3.org/1999/xlink">
    <title>编组 20</title>
    <g id="phase5" stroke="none" stroke-width="1" fill="none" fill-rule="evenodd">
        <g id="my-contracts-结果" transform="translate(-39.000000, -329.000000)">
            <g id="编组-3" transform="translate(15.000000, 304.000000)">
                <g id="编组-4" transform="translate(15.000000, 15.000000)">
                    <g id="编组-20" transform="translate(9.000000, 10.000000)">
                        <g id="编组-8" fill="#F7FAFF">
                            <circle id="椭圆形备份-2" cx="17.5" cy="17.5" r="17.5"></circle>
                        </g>
                        <g id="Document-Holder" transform="translate(7.000000, 4.000000)" fill-rule="nonzero">
                            <path d="M14.7286469,18.8080909 C14.9808778,18.8080909 15.1839374,18.6099091 15.1839374,18.3653636 C15.1839374,18.1208182 14.9808778,17.9226364 14.7286469,17.9226364 L9.05390641,17.9226364 C8.80258605,17.9226364 8.59861591,18.1208182 8.59861591,18.3653636 C8.59861591,18.6099091 8.80258605,18.8080909 9.05390641,18.8080909 L14.7286469,18.8080909 Z M18.6341286,0 C19.387179,0 20,0.595454545 20,1.32727273 L20,1.32727273 L20,24.1272727 C20,24.8590909 19.387179,25.4545455 18.6341286,25.4545455 L18.6341286,25.4545455 L1.36587141,25.4545455 C0.612821,25.4545455 0,24.8590909 0,24.1272727 L0,24.1272727 L0,1.32727273 C0,0.595454545 0.612821,0 1.36587141,0 L1.36587141,0 L18.6341286,0 Z M4.64305227,0.885454545 L1.36587141,0.885454545 C1.11455109,0.885454545 0.910580955,1.08363636 0.910580955,1.32727273 L0.910580955,1.32727273 L0.910580955,24.1272727 C0.910580955,24.3709091 1.11455109,24.5690909 1.36587141,24.5690909 L1.36587141,24.5690909 L18.6341286,24.5690909 C18.8854489,24.5690909 19.089419,24.3709091 19.089419,24.1272727 L19.089419,24.1272727 L19.089419,1.32727273 C19.089419,1.08363636 18.8854489,0.885454545 18.6341286,0.885454545 L18.6341286,0.885454545 L15.3560371,0.885454545 L15.3560371,1.79636364 L16.8284465,1.79636364 C17.581497,1.79636364 18.194318,2.39181818 18.194318,3.12363636 L18.194318,3.12363636 L18.194318,21.8709091 C18.194318,22.6027273 17.581497,23.1981818 16.8284465,23.1981818 L16.8284465,23.1981818 L3.17155345,23.1981818 C2.418503,23.1981818 1.80568205,22.6027273 1.80568205,21.8709091 L1.80568205,21.8709091 L1.80568205,3.12363636 C1.80568205,2.39181818 2.418503,1.79636364 3.17155345,1.79636364 L3.17155345,1.79636364 L4.64305227,1.79636364 L4.64305227,0.885454545 Z M4.64305227,2.68090909 L3.17155345,2.68090909 C2.92023309,2.68090909 2.71626295,2.88 2.71626295,3.12363636 L2.71626295,21.8709091 C2.71626295,22.1136364 2.92023309,22.3127273 3.17155345,22.3127273 L16.8284465,22.3127273 C17.0788563,22.3127273 17.283737,22.1136364 17.283737,21.8709091 L17.283737,3.12363636 C17.283737,2.88 17.0788563,2.68090909 16.8284465,2.68090909 L15.3560371,2.68090909 L15.3560371,3.19909091 C15.3560371,4.27181818 14.4582043,5.14545455 13.3536696,5.14545455 L6.64633036,5.14545455 C5.54179568,5.14545455 4.64305227,4.27181818 4.64305227,3.19909091 L4.64305227,2.68090909 Z M14.7286469,12.9116364 C14.9808778,12.9116364 15.1839374,13.1098182 15.1839374,13.3543636 C15.1839374,13.5989091 14.9808778,13.7970909 14.7286469,13.7970909 L9.05390641,13.7970909 C8.80258605,13.7970909 8.59861591,13.5989091 8.59861591,13.3543636 C8.59861591,13.1098182 8.80258605,12.9116364 9.05390641,12.9116364 L14.7286469,12.9116364 Z M14.7286469,7.89972727 C14.9808778,7.89972727 15.1839374,8.09790909 15.1839374,8.34245455 C15.1839374,8.587 14.9808778,8.78518182 14.7286469,8.78518182 L9.05390641,8.78518182 C8.80258605,8.78518182 8.59861591,8.587 8.59861591,8.34245455 C8.59861591,8.09790909 8.80258605,7.89972727 9.05390641,7.89972727 L14.7286469,7.89972727 Z M14.4454562,2.68090909 L5.55363323,2.68090909 L5.55363323,3.19909091 C5.55363323,3.78454545 6.04352577,4.26 6.64633036,4.26 L13.3536696,4.26 C13.9555636,4.26 14.4454562,3.78454545 14.4454562,3.19909091 L14.4454562,2.68090909 Z M14.4454562,0.885454545 L5.55363323,0.885454545 L5.55363323,1.79636364 L14.4454562,1.79636364 L14.4454562,0.885454545 Z" id="Fill-15" fill="#04246A"></path>
                            <path d="M6,16 C7.10276475,16 8,16.8971061 8,17.9989282 C8,19.1028939 7.10276475,20 6,20 C4.89723525,20 4,19.1028939 4,17.9989282 C4,16.8971061 4.89723525,16 6,16 Z M6,17 C5.44929117,17 5,17.4484305 5,17.9988789 C5,18.5515695 5.44929117,19 6,19 C6.55070883,19 7,18.5515695 7,17.9988789 C7,17.4484305 6.55070883,17 6,17 Z M6,6 C7.10276475,6 8,6.89710612 8,8 C8,9.10289394 7.10276475,10 6,10 C4.89723525,10 4,9.10289394 4,8 C4,6.89710612 4.89723525,6 6,6 Z M6,11 C7.10276475,11 8,11.8971061 8,13 C8,14.1028939 7.10276475,15 6,15 C4.89723525,15 4,14.1028939 4,13 C4,11.8971061 4.89723525,11 6,11 Z M6,7 C5.44929117,7 5,7.44843048 5,8 C5,8.55269061 5.44929117,9 6,9 C6.55070883,9 7,8.55269061 7,8 C7,7.44843048 6.55070883,7 6,7 Z M6,12 C5.44929117,12 5,12.4484305 5,13 C5,13.5526906 5.44929117,14 6,14 C6.55070883,14 7,13.5526906 7,13 C7,12.4484305 6.55070883,12 6,12 Z" id="Fill-8" fill="#E20101"></path>
                        </g>
                    </g>
                </g>
            </g>
        </g>
    </g>
</svg>