<?xml version="1.0" encoding="utf-8"?>
<!-- Generator: Adobe Illustrator 24.0.0, SVG Export Plug-In . SVG Version: 6.00 Build 0)  -->
<svg version="1.1" id="图层_1" xmlns="http://www.w3.org/2000/svg" xmlns:xlink="http://www.w3.org/1999/xlink" x="0px" y="0px"
	 viewBox="0 0 85 85" style="enable-background:new 0 0 85 85;" xml:space="preserve">
<style type="text/css">
	.st0{fill-rule:evenodd;clip-rule:evenodd;fill:#E20101;}
	.st1{fill-rule:evenodd;clip-rule:evenodd;fill:#04246A;}
</style>
<title>Components / 02 Icon / 64 / Save-time-money</title>
<g id="Components-_x2F_-02-Icon-_x2F_-64-_x2F_-Save-time-money">
	<g id="Group" transform="translate(4.000000, 5.000000)">
		<path id="Red" class="st0" d="M40.4,15.9c-2.3-0.8-2.4-1.4-2.4-2c0-1.1,0.9-1.8,1.8-1.8c1.1,0,1.8,0.9,1.8,1.8
			c0,0.9,0.6,1.5,1.5,1.5c0.9,0,1.5-0.6,1.5-1.5c0-2.1-1.4-3.9-3.3-4.7V8.6c0-0.9-0.6-1.5-1.5-1.5s-1.5,0.6-1.5,1.5v0.6
			c-2,0.6-3.3,2.4-3.3,4.7c0,3.3,3,4.4,4.4,4.8c2.3,0.8,2.4,1.4,2.4,2c0,1.1-0.9,1.8-1.8,1.8c-1.1,0-1.8-0.9-1.8-1.8
			c0-0.9-0.6-1.5-1.5-1.5s-1.5,0.6-1.5,1.5c0,2.1,1.4,3.9,3.3,4.7V26c0,0.9,0.6,1.5,1.5,1.5c0.9,0,1.5-0.6,1.5-1.5v-0.6
			c2-0.6,3.3-2.4,3.3-4.7C44.8,17.5,41.8,16.3,40.4,15.9"/>
		<path id="Blue" class="st1" d="M59.8,36.1c0.9-3.2,4.4-5,7.6-4.1c0.8,0.3,1.2,1.1,1.1,1.8c-0.3,0.8-1.1,1.2-1.8,1.1
			c-1.7-0.5-3.3,0.5-3.8,2.1l0,0l-4.8,16.2l3.9-1.8l8-16.5c0.6-1.2,1.7-2.3,3.2-2.7c1.5-0.6,3.2-0.5,4.7,0.3c3,1.4,4.2,4.5,2.9,7.4
			l0,0l-9.1,19.8c-0.2,0.3-0.3,0.5-0.6,0.8l0,0l-19.2,11c-4.5,2.6-8.6,4.7-14.1,4.7l0,0h-9.2c-2.9,0-5.9-0.3-8.8-1.1l0,0h-0.2
			c-4.8-1.2-6.8-1.7-11.9-0.9c-1.5,0.2-4.5-0.3-5.6-0.6l0,0H1.9c-1.8-0.5-4.7-1.2-5-6l0,0l-0.2-1.7c0-0.8-0.2-1.5-0.2-2.3l-0.2-1.5
			c-0.2-3-0.3-5.6-0.3-7.6c0-3.8,1.7-5.3,3.6-6.5c1.4-0.8,3.3-0.8,6.8-0.8c3.2,0,7.6,0,13.3-0.6c0.2,0,0.2-0.2,0.3-0.2
			c5.4-3.2,12.4-3,17.8,0.6l0,0l2.3,1.5l11,0.5c2,0,3.3,0.8,4.1,1.4l0,0L59.8,36.1z M76.4,35.1c-1.1-0.5-2-0.3-2.4-0.2
			c-0.6,0.3-1.2,0.6-1.4,1.2l0,0L64.4,53c-0.2,0.3-0.5,0.6-0.8,0.8l0,0l-6.6,3c-0.6,1.4-2.4,4.2-6,4.2c0,0,0,0-0.2,0
			c-0.6,0-2,0-3.8,0h-3.2c-0.2,0-0.3,0-0.5,0h-1.1c-5,0-10.4,0-12.1,0H30c0,0,0,0-0.2,0h-0.2c-0.9,0-1.5-0.6-1.5-1.5
			s0.6-1.5,1.5-1.5l0,0h0.2c0,0,0,0,0.2,0h0.3c1.8,0,7.1,0,11.9,0h1.1c0.2,0,0.3,0,0.5,0h2.9c0.2,0,0.3,0,0.5,0h0.8
			c1.2,0,2.3,0,2.7,0l0,0c2.3,0,3.3-2.4,3.5-2.9c0.2-0.3,0.2-0.6,0.2-1.1c0-0.6-0.3-1.2-0.8-1.7c-0.6-0.6-1.4-0.9-2.4-0.9l0,0
			l-11.5-0.5c-0.3,0-0.5-0.2-0.8-0.3l0,0L36,49.1c-4.5-2.9-10.3-3-14.7-0.5c-0.2,0.2-0.3,0.2-0.5,0.3c-0.2,0.2-0.5,0.2-0.6,0.3
			C14.1,50,9.6,50,6.3,50c-2.4,0-4.7,0-5.3,0.5c-1.2,0.8-2.1,1.5-2.1,3.9c0,2.7,0.3,7.1,0.6,10.6l0,0l0.2,1.7
			c0.2,2.7,1.1,2.9,2.7,3.5l0,0h0.2c0.9,0.3,3.5,0.6,4.4,0.6c1.7-0.2,3-0.3,4.4-0.3c2.7,0,5,0.5,8.6,1.4l0,0H20
			c2.6,0.6,5.3,0.9,8,0.9l0,0h9.2c4.7,0,8.3-1.8,12.5-4.4l0,0l18.7-10.7l9.2-19C78.2,37.5,78.2,36,76.4,35.1z M23.6,26.3
			c-1.4-2.6-2-5.3-2.1-8.3c-0.2-4.5,1.2-8.9,3.6-11.9c3.5-4.5,8.9-7.6,15-7.6c4.1,0,8,1.2,11.2,3.8c0.6,0.5,0.8,1.5,0.3,2.1
			s-1.5,0.8-2.1,0.3c-2.7-2-6-3.2-9.4-3.2c-8.8,0-15.9,7.1-15.7,15.7c0,9.2,7.7,16,15.7,15.7c8.8-0.3,15.7-7.1,15.7-15.7
			c0-3.6-1.2-7.1-3.5-10c-0.3-0.5-0.3-1.5,0.3-2c0.6-0.5,1.7-0.5,2.1,0.2C57.5,8.8,59,13,59,17.2c0,10.4-8.5,18.9-18.7,18.9
			c-3.2,0-6-0.8-8.6-2.1C31.7,34,26.4,31.4,23.6,26.3z"/>
	</g>
</g>
</svg>
