<?xml version="1.0" encoding="UTF-8"?>
<svg width="10px" height="9px" viewBox="0 0 10 9" version="1.1" xmlns="http://www.w3.org/2000/svg" xmlns:xlink="http://www.w3.org/1999/xlink">
    <title>编组 7</title>
    <g id="phase5" stroke="none" stroke-width="1" fill="none" fill-rule="evenodd">
        <g id="my-contracts-结果备份-3" transform="translate(-259.000000, -743.000000)" fill="#E20101" fill-rule="nonzero">
            <g id="编组-7" transform="translate(259.000000, 743.078857)">
                <path d="M2.3390222,0.0121262672 C2.30899525,-0.00404208905 2.27280893,-0.00404208905 2.24278198,0.0121262672 C2.21275504,0.0290645451 2.19504684,0.0606313358 2.19504684,0.0952778134 L2.19504684,1.78910561 L0,1.78910561 L0,2.55902733 L2.19504684,2.55902733 L2.19504684,4.26671372 C2.19504684,4.3013602 2.21275504,4.33292699 2.24278198,4.35063519 C2.25818042,4.35910432 2.27434877,4.36295393 2.29128705,4.36295393 C2.30745541,4.36295393 2.32362376,4.35910432 2.3390222,4.35063519 L5.95226485,2.26491723 C5.98152188,2.24720903 6,2.21564224 6,2.18099577 C6,2.14634929 5.98152188,2.1147825 5.95226485,2.09784422 L2.3390222,0.0121262672 Z" id="Fill-4"></path>
                <path d="M6.3390222,4.01212627 C6.30899525,3.99595791 6.27280893,3.99595791 6.24278198,4.01212627 C6.21275504,4.02906455 6.19504684,4.06063134 6.19504684,4.09527781 L6.19504684,5.78910561 L4,5.78910561 L4,6.55902733 L6.19504684,6.55902733 L6.19504684,8.26671372 C6.19504684,8.3013602 6.21275504,8.33292699 6.24278198,8.35063519 C6.25818042,8.35910432 6.27434877,8.36295393 6.29128705,8.36295393 C6.30745541,8.36295393 6.32362376,8.35910432 6.3390222,8.35063519 L9.95226485,6.26491723 C9.98152188,6.24720903 10,6.21564224 10,6.18099577 C10,6.14634929 9.98152188,6.1147825 9.95226485,6.09784422 L6.3390222,4.01212627 Z" id="Fill-4" transform="translate(7.000000, 6.181477) scale(-1, 1) translate(-7.000000, -6.181477) "></path>
            </g>
        </g>
    </g>
</svg>