<?xml version="1.0" encoding="UTF-8"?>
<svg width="30px" height="30px" viewBox="0 0 30 30" version="1.1" xmlns="http://www.w3.org/2000/svg" xmlns:xlink="http://www.w3.org/1999/xlink">
    <title>Cash-position备份</title>
    <g id="页面-2" stroke="none" stroke-width="1" fill="none" fill-rule="evenodd">
        <g id="3.d&amp;d-result-1" transform="translate(-35.000000, -590.000000)">
            <g id="编组-29" transform="translate(35.000000, 583.000000)">
                <g id="Cash-position备份" transform="translate(0.000000, 7.000000)">
                    <rect id="矩形" x="0" y="0" width="30" height="30"></rect>
                    <path d="M20.3728322,10.9589237 C19.6606753,10.7104323 19.6014446,10.5123796 19.6014446,10.3138641 C19.6014446,9.97282476 19.8795514,9.69518077 20.2205907,9.69518077 C20.5616301,9.69518077 20.8397368,9.97282476 20.8397368,10.3138641 C20.8397368,10.5697593 21.0465816,10.7766041 21.3024768,10.7766041 C21.558372,10.7766041 21.7652168,10.5697593 21.7652168,10.3138641 C21.7652168,9.6248443 21.3080297,9.04641932 20.6833307,8.84790387 L20.6833307,8.62625142 C20.6833307,8.37081895 20.4764859,8.16351144 20.2205907,8.16351144 C19.9646955,8.16351144 19.7578507,8.37081895 19.7578507,8.62625142 L19.7578507,8.84790387 C19.132689,9.04641932 18.6759647,9.6248443 18.6759647,10.3138641 C18.6759647,11.3476252 19.6514205,11.6877391 20.0683493,11.8330395 C20.7805061,12.0810681 20.8397368,12.2795836 20.8397368,12.4776363 C20.8397368,12.8191384 20.5616301,13.0967824 20.2205907,13.0967824 C19.8795514,13.0967824 19.6014446,12.8191384 19.6014446,12.4776363 C19.6014446,12.2222038 19.3945999,12.0148963 19.1387046,12.0148963 C18.8828094,12.0148963 18.6759647,12.2222038 18.6759647,12.4776363 C18.6759647,13.1671188 19.132689,13.7455438 19.7578507,13.9435965 L19.7578507,14.165249 C19.7578507,14.4206815 19.9646955,14.627989 20.2205907,14.627989 C20.4764859,14.627989 20.6833307,14.4206815 20.6833307,14.165249 L20.6833307,13.9435965 C21.3080297,13.7455438 21.7652168,13.1671188 21.7652168,12.4776363 C21.7652168,11.4443379 20.7892982,11.104224 20.3728322,10.9589237 M14.002476,5.22844429 C14.3435153,5.22844429 14.6216221,5.50608828 14.6216221,5.84759039 C14.6216221,6.10302286 14.8284668,6.31033037 15.084362,6.31033037 C15.3402572,6.31033037 15.547102,6.10302286 15.547102,5.84759039 C15.547102,5.15810782 15.0903777,4.57968284 14.4652159,4.38163013 L14.4652159,4.15997768 C14.4652159,3.90454521 14.2583712,3.6972377 14.002476,3.6972377 C13.7465808,3.6972377 13.539736,3.90454521 13.539736,4.15997768 L13.539736,4.38163013 C12.9145743,4.57968284 12.4578499,5.15810782 12.4578499,5.84759039 C12.4578499,6.88088876 13.4337685,7.22100265 13.8502345,7.366303 C14.5623913,7.61479437 14.6216221,7.81284708 14.6216221,8.01136253 C14.6216221,8.3524019 14.3435153,8.63050863 14.002476,8.63050863 C13.6614366,8.63050863 13.3833299,8.3524019 13.3833299,8.01136253 C13.3833299,7.75546732 13.1764851,7.54862255 12.9205899,7.54862255 C12.6646947,7.54862255 12.4578499,7.75546732 12.4578499,8.01136253 C12.4578499,8.70038236 12.9145743,9.27880734 13.539736,9.47732279 L13.539736,9.69897524 C13.539736,9.95440771 13.7465808,10.1617152 14.002476,10.1617152 C14.2583712,10.1617152 14.4652159,9.95440771 14.4652159,9.69897524 L14.4652159,9.47732279 C15.0903777,9.27880734 15.547102,8.70038236 15.547102,8.01136253 C15.547102,6.97806416 14.5711834,6.63748753 14.1547174,6.49218718 C13.4425606,6.24415855 13.3833299,6.0456431 13.3833299,5.84759039 C13.3833299,5.50608828 13.6614366,5.22844429 14.002476,5.22844429 M10.2205484,12.5414481 C10.5615877,12.5414481 10.8396945,12.8190921 10.8396945,13.1605942 C10.8396945,13.4160267 11.0465392,13.6233342 11.3024344,13.6233342 C11.5583297,13.6233342 11.7651744,13.4160267 11.7651744,13.1605942 C11.7651744,12.4711116 11.3084501,11.8926867 10.6832884,11.694634 L10.6832884,11.4729815 C10.6832884,11.217549 10.4764436,11.0102415 10.2205484,11.0102415 C9.96465317,11.0102415 9.7578084,11.217549 9.7578084,11.4729815 L9.7578084,11.694634 C9.13264668,11.8926867 8.67592232,12.4711116 8.67592232,13.1605942 C8.67592232,14.1938926 9.65184094,14.5340065 10.0683069,14.6793068 C10.7804638,14.9282609 10.8396945,15.1263136 10.8396945,15.3243664 C10.8396945,15.6654057 10.5615877,15.9435125 10.2205484,15.9435125 C9.87950901,15.9435125 9.60140228,15.6654057 9.60140228,15.3243664 C9.60140228,15.0684711 9.39455751,14.8616264 9.1386623,14.8616264 C8.88276709,14.8616264 8.67592232,15.0684711 8.67592232,15.3243664 C8.67592232,16.0133862 9.13264668,16.5918112 9.7578084,16.7903266 L9.7578084,17.0119791 C9.7578084,17.2674115 9.96465317,17.474719 10.2205484,17.474719 C10.4764436,17.474719 10.6832884,17.2674115 10.6832884,17.0119791 L10.6832884,16.7903266 C11.3084501,16.5918112 11.7651744,16.0133862 11.7651744,15.3243664 C11.7651744,14.2915307 10.7892558,13.9509541 10.3727898,13.805191 C9.660633,13.5571624 9.60140228,13.3586469 9.60140228,13.1605942 C9.60140228,12.8190921 9.87950901,12.5414481 10.2205484,12.5414481" id="Red" fill="#E20101" fill-rule="nonzero"></path>
                    <path d="M24.820041,15.9390239 C25.0648305,16.0125995 25.2036525,16.2703457 25.1305395,16.5155979 C25.0569639,16.7599246 24.7992177,16.8996721 24.5544283,16.8256337 C24.0818025,16.6829625 23.5817708,16.9345143 23.4085015,17.3887162 L23.3860098,17.45496 L21.8964498,22.42016 L23.1194716,21.8556173 L25.5632014,16.8182298 C25.7395054,16.4323047 26.088874,16.1176415 26.5173713,15.9644746 C26.9736329,15.8025156 27.4840351,15.8321309 27.9569553,16.0482305 C28.8399558,16.4521562 29.2157454,17.3533475 28.8761644,18.2180294 L28.838475,18.3073271 L26.0615724,24.3747737 C26.0293657,24.4451102 25.9802782,24.5059698 25.9190485,24.5521401 L25.8709235,24.5839322 L20.0015296,27.9452754 C18.6746135,28.7049093 17.4440775,29.3387373 15.8919216,29.3882281 L15.6961968,29.3913378 L12.8637654,29.3913378 C12.0629167,29.3913378 11.2613368,29.3083417 10.4775506,29.1442994 L10.1845009,29.0789883 L10.1354505,29.0674198 C8.65421982,28.7189766 8.04201482,28.5736763 6.49831425,28.7712663 C6.07063363,28.8257063 5.215836,28.6833937 4.86791732,28.5974064 L4.80885058,28.5820056 L4.75054534,28.5662725 C4.2030559,28.4149157 3.38311628,28.1885806 3.23592986,26.8274039 L3.22442889,26.7005049 L3.18602147,26.1873262 C3.09856362,25.0374174 3,23.7338788 3,22.8579121 C3,21.7347926 3.49309785,21.2514955 4.04197808,20.912203 L4.10317211,20.8750712 C4.51362248,20.6307445 5.10500417,20.6275054 6.17902366,20.621027 C7.14892666,20.6154741 8.47097479,20.6080703 10.2631667,20.4137195 C10.2960213,20.3933589 10.3298013,20.3734611 10.3645068,20.3535633 C11.994894,19.410602 14.0206811,19.4456431 15.6883435,20.4348733 L15.8303914,20.5220006 L16.5439365,20.9740976 L19.9288794,21.0953355 L19.9645104,21.0953355 C20.4412038,21.0953355 20.8319425,21.2372789 21.1283556,21.4607488 L21.2004889,21.5182798 L22.4994,17.1888846 C22.7950909,16.2050994 23.8344049,15.6437958 24.820041,15.9390239 Z M26.8287953,16.835814 C26.6587383,16.8969535 26.5177328,17.0094644 26.4330586,17.1504067 L26.4002981,17.2124843 L23.8797534,22.4081288 C23.8427342,22.4851287 23.7849842,22.5496902 23.7136112,22.5954163 L23.6576382,22.6260793 L21.6317626,23.5622023 C21.4346353,23.9689507 20.8654652,24.892117 19.7507245,24.8666663 C19.6244923,24.864584 19.3855022,24.863237 19.0715818,24.8624491 L18.851616,24.8620047 L17.356254,24.8620024 L17.2050673,24.8621664 L17.2050673,24.8621664 L16.8994302,24.8625563 C15.5682726,24.864412 14.1730092,24.8683167 13.6256521,24.8700184 L13.5148056,24.8703701 L13.5148056,24.8703701 L13.3933851,24.8707924 L13.3857361,24.870831 C13.1293782,24.870831 12.9225334,24.6644489 12.9216079,24.4094792 C12.9206824,24.153584 13.1270645,23.9462765 13.3829597,23.945351 L13.4003108,23.9452857 L13.4003108,23.9452857 L13.5096913,23.9449239 L13.6167183,23.9445917 C14.1015247,23.9431134 15.2492452,23.9399238 16.4310482,23.9379258 L16.7514905,23.9374159 C16.8582739,23.9372571 16.9648724,23.9371102 17.0708234,23.9369772 L17.3862708,23.9366223 L18.808064,23.9365552 L18.808064,23.9365552 L19.0419014,23.936973 C19.3758632,23.9377266 19.6311273,23.9390662 19.7655322,23.9411863 C19.7706224,23.9416491 19.7752498,23.9416491 19.7803399,23.9416491 C20.4536266,23.9416491 20.782172,23.208669 20.8339988,23.08049 C20.860375,22.9823891 20.8742572,22.8796608 20.872869,22.7736934 C20.8691671,22.4692105 20.616511,22.0203527 19.9409107,22.0203527 L19.9299784,22.0204105 L19.9299784,22.0204105 L19.9186992,22.0208154 L16.3852167,21.8944874 C16.3237879,21.8924051 16.2636607,21.8778288 16.2081536,21.852125 L16.1543094,21.8227627 L15.3352597,21.3035685 C13.9336203,20.4160332 12.2080629,20.3577279 10.8272468,21.1545662 C10.7721807,21.1864952 10.7198911,21.218887 10.6694524,21.2517416 C10.6092962,21.290149 10.5408107,21.3146742 10.4700115,21.3220781 C8.57601676,21.5326248 7.1933497,21.5409541 6.18365106,21.546507 C5.42614572,21.5511344 4.77136864,21.5548363 4.57701785,21.6700585 C4.19525737,21.8972639 3.92547996,22.1156771 3.92547996,22.8579121 C3.92547996,23.6430893 4.01375841,24.8636122 4.09212065,25.8990864 L4.10872499,26.1179152 L4.14713241,26.6320193 C4.20577082,27.4231936 4.46612536,27.5264861 4.93679349,27.6575326 L4.99672301,27.6741098 L5.05687921,27.6903057 C5.3507191,27.7722106 6.13089871,27.8828055 6.38077829,27.8536529 C6.89395693,27.7879438 7.31736401,27.7569402 7.70514012,27.7569402 C8.50553568,27.7569402 9.15789058,27.8887127 10.1472007,28.1198482 L10.3496991,28.1673906 L10.3987495,28.1789591 C11.1148654,28.3480134 11.8499935,28.4432122 12.5872342,28.4622804 L12.8637654,28.4658579 L15.6961968,28.4658579 C17.0546002,28.4658579 18.1335751,27.940871 19.3717028,27.2387656 L19.5415661,27.1419588 L25.2823183,23.854654 L27.9962882,17.9246411 C28.1406631,17.6044251 28.1175261,17.1393714 27.5719557,16.8894918 C27.2489632,16.7418777 26.989366,16.7784342 26.8287953,16.835814 Z M14.0025222,2 C15.0714516,2 16.0890168,2.33687471 16.9441603,2.97360492 C17.1496168,3.12630911 17.1917262,3.41644708 17.039022,3.62144089 C16.8872433,3.8264347 16.5971053,3.86900678 16.3921115,3.71630259 C15.697076,3.19895929 14.8710852,2.92547996 14.0025222,2.92547996 C11.7947898,2.92547996 9.99889593,4.72183656 9.99889593,6.92956901 C9.99889593,7.84162951 10.3089317,8.68057709 10.8258123,9.35340102 C11.6712382,9.45659204 12.4699274,9.77171797 13.1621864,10.2872103 C13.3440432,10.4223304 13.388929,10.6629552 13.2926791,10.8591569 C13.5235864,10.9026545 13.7586583,10.9331953 14.0025222,10.9331953 C16.2097919,10.9331953 18.0061485,9.13730145 18.0061485,6.92956901 C18.0061485,6.01519481 17.6900971,5.12071843 17.1158368,4.41226352 C16.955266,4.21374806 16.9858069,3.92268462 17.1843223,3.7616511 C17.3837633,3.59969211 17.674364,3.63162117 17.8353975,3.82967388 C18.4827707,4.62928857 18.8603665,5.62094034 18.9195973,6.64683488 C19.3342123,6.53161263 19.7696506,6.46682903 20.2203593,6.46682903 C21.2897514,6.46682903 22.3068539,6.80324099 23.1624601,7.44043395 C23.3669912,7.59313814 23.4095633,7.88281337 23.2568591,8.08780718 C23.1041549,8.29280099 22.8149424,8.33583581 22.6090231,8.18266887 C21.9149132,7.66532558 21.0889223,7.39230899 20.2203593,7.39230899 C19.7483646,7.39230899 19.2967303,7.4793041 18.8760997,7.63062008 C18.6438042,9.24882179 17.626239,10.613442 16.2199722,11.3255988 C16.2195095,11.3491986 16.216733,11.3723356 16.216733,11.3959353 C16.216733,13.6036677 18.0130896,15.3995616 20.2203593,15.3995616 C22.4280918,15.3995616 24.2244484,13.6036677 24.2244484,11.3959353 C24.2244484,10.4820238 23.9079342,9.58801019 23.3341367,8.8786298 C23.1731032,8.68011435 23.2041067,8.38858817 23.4026222,8.22801739 C23.6011376,8.06652114 23.8931266,8.09798746 24.0536973,8.29650291 C24.7603013,9.16969325 25.1499284,10.2705517 25.1499284,11.3959353 C25.1499284,14.1140699 22.938494,16.3250416 20.2203593,16.3250416 C17.5975491,16.3250416 15.4532121,14.2644604 15.305598,11.6782067 C15.0506283,11.7485432 14.7887175,11.8026837 14.5194028,11.8309109 C14.9293904,12.5634283 15.1496546,13.3958975 15.1496546,14.2422489 C15.1496546,16.9603836 12.938683,19.1718179 10.2205484,19.1718179 C7.50241373,19.1718179 5.29144211,16.9603836 5.29144211,14.2422489 C5.29144211,11.6962535 7.23217358,9.59448855 9.71199714,9.33951882 C9.30848788,8.62597378 9.07341597,7.80599853 9.07341597,6.92956901 C9.07341597,4.21143437 11.2843876,2 14.0025222,2 Z M10.2205484,10.2386226 C8.01281593,10.2386226 6.21692207,12.0345165 6.21692207,14.2422489 C6.21692207,16.4499814 8.01281593,18.246338 10.2205484,18.246338 C12.4282808,18.246338 14.2241747,16.4499814 14.2241747,14.2422489 C14.2241747,13.314918 13.9164526,12.4445041 13.3343257,11.7254062 C13.1981645,11.5574315 13.2047039,11.3272441 13.328994,11.1624449 L13.365792,11.1192168 L13.2140133,10.972991 C13.0548308,11.1386519 12.7984728,11.1705809 12.6092122,11.0289825 C11.9151022,10.5121019 11.0891113,10.2386226 10.2205484,10.2386226 Z" id="Blue" fill="#04246A" fill-rule="nonzero"></path>
                </g>
            </g>
        </g>
    </g>
</svg>