<?xml version="1.0" encoding="UTF-8"?>
<svg width="35px" height="35px" viewBox="0 0 35 35" version="1.1" xmlns="http://www.w3.org/2000/svg" xmlns:xlink="http://www.w3.org/1999/xlink">
    <title>编组 7</title>
    <g id="页面-2" stroke="none" stroke-width="1" fill="none" fill-rule="evenodd">
        <g id="3.d&amp;d-result-1" transform="translate(-30.000000, -320.000000)">
            <g id="编组-7" transform="translate(30.000000, 320.000000)">
                <circle id="椭圆形备份" fill="#F7FAFF" cx="17.5" cy="17.5" r="17.5"></circle>
                <g id="Flexibility-2" transform="translate(7.000000, 5.000000)" fill-rule="nonzero">
                    <path d="M10.5540641,23.1918818 C10.7879239,23.1758409 10.987169,23.3531353 11.0023657,23.5861508 C11.0175623,23.8183221 10.8411122,24.0192557 10.6085188,24.0344524 L10.6085188,24.0344524 L10.3915442,24.0466942 C10.3847902,24.0471163 10.3771918,24.0475384 10.3700156,24.0475384 C10.1467091,24.0475384 9.96012783,23.8719325 9.94873033,23.6465153 C9.93733283,23.4134998 10.1167379,23.2155211 10.3497534,23.2037014 L10.3497534,23.2037014 L10.5540641,23.1918818 Z M8.47081303,23.1449521 L8.51944189,23.1474738 L8.72290833,23.1681581 C8.95507958,23.1901089 9.12519779,23.3961081 9.10324706,23.6278572 C9.08340697,23.8465203 8.89893635,24.0107287 8.68365028,24.0107287 C8.67056427,24.0107287 8.65747825,24.0098845 8.64397011,24.0086181 L8.64397011,24.0086181 L8.42783978,23.9866673 C8.19566853,23.9613396 8.02850523,23.7532297 8.053833,23.5210584 C8.07873864,23.2897314 8.2910698,23.122146 8.51944189,23.1474738 L8.47081303,23.1449521 Z M12.3629736,22.9247582 C12.5875466,22.8728363 12.8167629,23.0134054 12.8695291,23.2405111 C12.9218732,23.4676168 12.7804598,23.6947225 12.5533541,23.7470666 L12.5533541,23.7470666 L12.3397565,23.7947672 C12.3102074,23.8010992 12.2806584,23.8040541 12.2515314,23.8040541 C12.0565076,23.8040541 11.8813238,23.6681284 11.8391109,23.4697275 C11.7909881,23.2413554 11.9362007,23.0172046 12.1641506,22.9686597 L12.1641506,22.9686597 L12.3629736,22.9247582 Z M6.20469451,23.0948764 C6.26716968,22.8703035 6.49976307,22.7390212 6.72433599,22.8010743 L6.72433599,22.8010743 L6.91978197,22.8534183 C7.14562127,22.9116722 7.28154699,23.1417328 7.22371524,23.3675721 C7.17474821,23.5579526 7.00294149,23.6841693 6.81509384,23.6841693 C6.78005709,23.6841693 6.7445982,23.679948 6.70956145,23.6710833 L6.70956145,23.6710833 L6.49849668,23.6145179 C6.27392376,23.5520427 6.14221934,23.3194494 6.20469451,23.0948764 Z M4.44783354,22.3766652 C4.5457676,22.1651783 4.79524616,22.0714656 5.00842158,22.1702439 L5.00842158,22.1702439 L5.19415859,22.2542477 C5.40733401,22.3488047 5.50357954,22.5978611 5.40944466,22.8110365 C5.33979328,22.9684909 5.18529386,23.0626257 5.02319612,23.0626257 C4.96620863,23.0626257 4.90795475,23.0508061 4.85265578,23.0263226 L4.85265578,23.0263226 L4.65467702,22.9368311 C4.44319012,22.8393192 4.35032162,22.5885743 4.44783354,22.3766652 Z M2.83002207,21.3844497 C2.96088223,21.1915365 3.22386893,21.1413031 3.41636001,21.2717411 C3.47165898,21.3093107 3.52780221,21.3464581 3.5847897,21.3831833 C3.78065781,21.5094001 3.83680104,21.7706983 3.71016217,21.9665664 C3.6291133,22.0919389 3.49360972,22.1599017 3.35515122,22.1599017 C3.27705726,22.1599017 3.19727477,22.137951 3.12635701,22.092361 C3.0647261,22.0522587 3.00351731,22.0117342 2.94273066,21.9707877 C2.74981745,21.8399275 2.69916191,21.5773629 2.83002207,21.3844497 Z M1.39009596,20.1475257 C1.55050519,19.9778296 1.81729107,19.9702313 1.98698715,20.1297963 C2.03553204,20.1758084 2.08449907,20.2213984 2.13515462,20.2665663 C2.30822773,20.4223321 2.32173588,20.6895401 2.16597007,20.8626132 C2.08238842,20.9550596 1.96756919,21.0019159 1.85232782,21.0019159 C1.75101673,21.0019159 1.65012777,20.9660349 1.56950102,20.8934286 C1.51504631,20.8440395 1.46101373,20.7942282 1.40740328,20.7439948 C1.23812933,20.5840077 1.23010886,20.3167997 1.39009596,20.1475257 Z M0.16461167,18.6972997 C0.349082283,18.555042 0.613757511,18.5896566 0.756437299,18.7741272 C0.797383865,18.8268934 0.837908301,18.8796596 0.880543386,18.9315816 C1.02744447,19.1126751 1,19.3786168 0.818912472,19.5255178 C0.740818505,19.5888373 0.646261486,19.6196527 0.553392986,19.6196527 C0.430553287,19.6196527 0.308135717,19.5664644 0.224976196,19.4638869 C0.178541945,19.4060552 0.132529825,19.3478013 0.0877840925,19.2895474 C-0.0544735653,19.1046547 -0.0202810718,18.8395573 0.16461167,18.6972997 Z M20.8822655,14.4499588 C20.9354539,14.2228531 21.1629817,14.0818618 21.3900874,14.1358944 C21.616771,14.1890827 21.7573401,14.4166106 21.7041518,14.6437162 L21.7041518,14.6437162 L21.652652,14.8552032 C21.6041071,15.0464278 21.4323004,15.173911 21.2436084,15.173911 C21.2094159,15.173911 21.1743792,15.1696897 21.1397646,15.1608249 C20.9139253,15.1038375 20.7771553,14.874199 20.8341428,14.6483597 L20.8341428,14.6483597 L20.8822655,14.4499588 Z M21.5583749,12.248168 L21.6048669,12.2490597 C21.8374603,12.2642564 22.0139104,12.4651901 21.9991359,12.6973613 C21.9940704,12.7708119 21.9881605,12.8442624 21.9818286,12.917713 C21.9624106,13.1372203 21.77794,13.3031172 21.5613876,13.3031172 C21.5491458,13.3031172 21.5369041,13.302273 21.5242402,13.3014287 C21.2920689,13.2807444 21.1202622,13.0760115 21.1405244,12.8438403 C21.1464342,12.7767217 21.152344,12.7100252 21.1565653,12.6433287 C21.1713399,12.4103132 21.3697408,12.2317524 21.6048669,12.2490597 L21.5583749,12.248168 Z M13.9406828,1.49970542e-15 C14.1570544,1.49970542e-15 14.3355721,0.163062614 14.3599707,0.372922535 L14.3628124,0.422129548 L14.3628124,12.6824602 C14.3628124,12.8988317 14.1997498,13.0773494 13.9898899,13.101748 L13.9406828,13.1045897 L4.85265578,13.1045897 C4.63628425,13.1045897 4.45776651,12.9415271 4.43336792,12.7316672 L4.43052623,12.6824602 L4.43052623,0.422129548 C4.43052623,0.205758003 4.59358888,0.0272402782 4.80344877,0.00284168259 L4.85265578,1.49970542e-15 L13.9406828,1.49970542e-15 Z M13.5185533,0.844681226 L5.27520746,0.844681226 L5.27520746,12.2603306 L13.5185533,12.2603306 L13.5185533,0.844681226 Z M21.5177394,10.3525161 C21.7558204,10.3305654 21.9559098,10.5011057 21.9774384,10.733277 L21.9774384,10.733277 L21.9960121,10.9510958 C22.0137416,11.1836892 21.8398242,11.3863114 21.6072308,11.4040408 C21.5962555,11.4048851 21.5857022,11.4053072 21.5747269,11.4053072 C21.3564859,11.4053072 21.171171,11.2368775 21.1542858,11.0152595 L21.1542858,11.0152595 L21.1374006,10.8122152 C21.1154499,10.5800439 21.2859902,10.3740447 21.5177394,10.3525161 Z M21.1258765,8.49447069 C21.3483388,8.43621681 21.5817764,8.57087614 21.6408746,8.79671545 L21.6408746,8.79671545 L21.6940629,9.00904661 C21.7485176,9.23573018 21.6087927,9.46368013 21.3821091,9.51813484 C21.3487609,9.52615531 21.3158348,9.52995447 21.2829087,9.52995447 C21.0925283,9.52995447 20.9198773,9.39993857 20.8725988,9.20660324 L20.8725988,9.20660324 L20.8236318,9.00946874 C20.7645336,8.78362943 20.9004593,8.5531467 21.1258765,8.49447069 Z M20.4400848,6.72401715 C20.6519939,6.62946013 20.9018946,6.72570567 20.9964516,6.93930322 C21.0260007,7.00599969 21.0551276,7.07311829 21.0829881,7.14065902 C21.1733239,7.35594508 21.0720128,7.603313 20.8571488,7.69322659 C20.8035384,7.71559946 20.7482394,7.7261527 20.6937847,7.7261527 C20.5291542,7.7261527 20.372122,7.62864077 20.3045813,7.46696516 L20.3045813,7.46696516 L20.2247988,7.28080603 C20.1302418,7.0676306 20.2269094,6.81815204 20.4400848,6.72401715 Z M19.4823151,5.08455041 C19.6777611,4.95791155 19.9394814,5.01363265 20.0661203,5.20907863 C20.1058005,5.27070954 20.1450585,5.33234046 20.1834723,5.3943935 C20.306312,5.59237226 20.2455253,5.85282619 20.0475466,5.97566589 C19.9783173,6.0187231 19.9010676,6.03898532 19.8250843,6.03898532 C19.6836709,6.03898532 19.5460567,5.96848969 19.4662742,5.83974017 L19.4662742,5.83974017 L19.3577869,5.66835558 C19.2307259,5.4729096 19.2868691,5.21118928 19.4823151,5.08455041 Z M18.2748558,3.61946539 C18.4475067,3.46327745 18.7147147,3.47636347 18.8709027,3.64901446 L18.8709027,3.64901446 L19.0165374,3.81280072 C19.1697704,3.98882874 19.1511967,4.25561462 18.9755908,4.40842551 C18.8958083,4.47807689 18.7966079,4.51226938 18.6982517,4.51226938 C18.5808997,4.51226938 18.4635477,4.46330235 18.379966,4.36790108 L18.379966,4.36790108 L18.2453067,4.21593444 C18.0882745,4.04286132 18.1017826,3.77607545 18.2748558,3.61946539 Z M16.850253,2.36603612 C16.9954655,2.18452041 17.2605629,2.15454922 17.443345,2.30018391 L17.443345,2.30018391 L17.6126189,2.4386424 C17.792024,2.58765413 17.8165075,2.85401788 17.6670736,3.03300081 C17.5839141,3.13346764 17.4636072,3.18538957 17.342456,3.18538957 C17.2474769,3.18538957 17.1516535,3.15330773 17.0727152,3.08745552 L17.0727152,3.08745552 L16.915683,2.95955026 C16.7333231,2.81349344 16.7041961,2.54797395 16.850253,2.36603612 Z" id="Red" fill="#E20101"></path>
                    <path d="M21.1798669,20.6189178 C21.4133045,20.6189178 21.6019964,20.4298038 21.6019964,20.1967882 L21.6019964,17.5445483 C21.6019964,16.9295055 21.1009287,16.4288599 20.4854638,16.4288599 C20.2955055,16.4288599 20.1161004,16.4765605 19.9590682,16.5609864 C19.7543354,16.3123521 19.4444923,16.1536314 19.0979239,16.1536314 C18.9075435,16.1536314 18.7285606,16.2017542 18.5715284,16.285758 C18.3667956,16.0375458 18.0569525,15.8788251 17.7103841,15.8788251 C17.6166714,15.8788251 17.5254914,15.8906447 17.4385327,15.9125955 L17.4385327,14.1793315 C17.4385327,13.5638666 16.937887,13.063221 16.3224222,13.063221 C15.7069573,13.063221 15.2067338,13.5638666 15.2067338,14.1793315 L15.2067338,17.1646317 C15.1079555,17.1371933 15.0045337,17.1224187 14.8973128,17.1224187 C14.2611636,17.1224187 13.7440549,17.6399496 13.7440549,18.2760988 L13.7440549,21.6164099 C13.7440549,21.7282742 13.7883785,21.8359173 13.8677388,21.9148555 L15.3274628,23.3745795 C15.406401,23.4539398 15.5165769,23.4982634 15.6288633,23.4982634 L20.2933948,23.4982634 C21.0148142,23.4982634 21.6019964,22.9115034 21.6019964,22.1905061 L21.6019964,21.4673982 C21.6019964,21.2343827 21.4133045,21.0452686 21.1798669,21.0452686 C20.9464292,21.0452686 20.7577373,21.2343827 20.7577373,21.4673982 L20.7577373,22.1905061 C20.7577373,22.4463166 20.5496275,22.6540043 20.2933948,22.6540043 L15.80067,22.6540043 L14.588314,21.4416483 L14.588314,18.2760988 C14.588314,18.1055585 14.7267725,17.9666778 14.8973128,17.9666778 C15.0678531,17.9666778 15.2067338,18.1055585 15.2067338,18.2760988 L15.2067338,20.2727716 C15.2067338,20.5057871 15.3954257,20.6949011 15.6288633,20.6949011 C15.8618788,20.6949011 16.0509929,20.5057871 16.0509929,20.2727716 L16.0509929,14.1793315 C16.0509929,14.0294755 16.1729883,13.9074801 16.3224222,13.9074801 C16.4722782,13.9074801 16.5942736,14.0294755 16.5942736,14.1793315 L16.5942736,16.9953577 C16.5942736,17.2283733 16.7829655,17.4174873 17.0164031,17.4174873 C17.2494187,17.4174873 17.4385327,17.2283733 17.4385327,16.9953577 C17.4385327,16.8455018 17.5605281,16.7230842 17.7103841,16.7230842 C17.8602401,16.7230842 17.9822356,16.8455018 17.9822356,16.9953577 L17.9822356,17.269742 C17.9822356,17.5031796 18.1709275,17.6918715 18.4043651,17.6918715 C18.6378027,17.6918715 18.8264946,17.5031796 18.8264946,17.269742 C18.8264946,17.119886 18.9484901,16.9978905 19.0979239,16.9978905 C19.2477799,16.9978905 19.3697754,17.119886 19.3697754,17.269742 L19.3697754,17.5445483 C19.3697754,17.7779859 19.5584673,17.9666778 19.7919049,17.9666778 C20.0253426,17.9666778 20.2140345,17.7779859 20.2140345,17.5445483 C20.2140345,17.3946923 20.3360299,17.273119 20.4854638,17.273119 C20.6357419,17.273119 20.7577373,17.3946923 20.7577373,17.5445483 L20.7577373,20.1967882 C20.7577373,20.4298038 20.9464292,20.6189178 21.1798669,20.6189178 M1.71969472,4.33856307 C1.95313236,4.33856307 2.14182426,4.52767711 2.14182426,4.76069262 C2.14182426,4.99370813 1.95313236,5.18282217 1.71969472,5.18282217 L1.71969472,5.18282217 L1.15150834,5.18282217 L1.15150834,16.5984715 L9.39443202,16.5984715 L9.39443202,16.0661662 C9.39443202,15.8331507 9.58312393,15.6440366 9.81656157,15.6440366 C10.0499992,15.6440366 10.2386911,15.8331507 10.2386911,16.0661662 L10.2386911,16.0661662 L10.2386911,17.0206011 C10.2386911,17.2536166 10.0499992,17.4427306 9.81656157,17.4427306 L9.81656157,17.4427306 L0.729378794,17.4427306 C0.495941154,17.4427306 0.307249245,17.2536166 0.307249245,17.0206011 L0.307249245,17.0206011 L0.307249245,4.76069262 C0.307249245,4.52767711 0.495941154,4.33856307 0.729378794,4.33856307 L0.729378794,4.33856307 L1.71969472,4.33856307 Z M3.83034246,2.22791533 C4.0637801,2.22791533 4.25247199,2.41702937 4.25247199,2.65004488 C4.25247199,2.88306039 4.0637801,3.07217443 3.83034246,3.07217443 L3.83034246,3.07217443 L3.26215608,3.07217443 L3.26215608,14.4878238 L11.5050798,14.4878238 L11.5050798,13.9555184 C11.5050798,13.7225029 11.6937717,13.5333889 11.9272093,13.5333889 C12.1606469,13.5333889 12.3493389,13.7225029 12.3493389,13.9555184 L12.3493389,13.9555184 L12.3493389,14.9099534 C12.3493389,15.1429689 12.1606469,15.3320829 11.9272093,15.3320829 L11.9272093,15.3320829 L2.84002654,15.3320829 C2.6065889,15.3320829 2.41789699,15.1429689 2.41789699,14.9099534 L2.41789699,14.9099534 L2.41789699,2.65004488 C2.41789699,2.41702937 2.6065889,2.22791533 2.84002654,2.22791533 L2.84002654,2.22791533 L3.83034246,2.22791533 Z M12.2194918,10.205404 C12.4529294,10.205404 12.6416214,10.394518 12.6416214,10.6275335 C12.6416214,10.860549 12.4529294,11.0496631 12.2194918,11.0496631 L12.2194918,11.0496631 L6.57393123,11.0496631 C6.34049359,11.0496631 6.15180168,10.860549 6.15180168,10.6275335 C6.15180168,10.394518 6.34049359,10.205404 6.57393123,10.205404 L6.57393123,10.205404 L12.2194918,10.205404 Z M12.2194918,8.78012576 C12.4529294,8.78012576 12.6416214,8.96923979 12.6416214,9.2022553 C12.6416214,9.43527081 12.4529294,9.62438485 12.2194918,9.62438485 L12.2194918,9.62438485 L6.57393123,9.62438485 C6.34049359,9.62438485 6.15180168,9.43527081 6.15180168,9.2022553 C6.15180168,8.96923979 6.34049359,8.78012576 6.57393123,8.78012576 L6.57393123,8.78012576 L12.2194918,8.78012576 Z M9.39692258,1.79156002 C9.63036022,1.79156002 9.81905213,1.98067405 9.81905213,2.21368956 L9.81905213,2.21368956 L9.81905213,2.47878692 C10.2901487,2.65186004 10.6286966,3.10100588 10.6286966,3.63162272 C10.6286966,3.86463823 10.4400047,4.05375227 10.2065671,4.05375227 C9.97312942,4.05375227 9.78443751,3.86463823 9.78443751,3.63162272 C9.78443751,3.41760304 9.61052013,3.24368566 9.39692258,3.24368566 C9.1829029,3.24368566 9.00898553,3.41760304 9.00898553,3.63162272 C9.00898553,3.72786826 9.00898553,3.85915054 9.5358032,4.0427769 C9.83467092,4.1470429 10.6286966,4.42438201 10.6286966,5.25175592 C10.6286966,5.78195064 10.2901487,6.23109648 9.81905213,6.40416959 L9.81905213,6.40416959 L9.81905213,6.66926695 C9.81905213,6.90270459 9.63036022,7.0913965 9.39692258,7.0913965 C9.16348494,7.0913965 8.97479303,6.90270459 8.97479303,6.66926695 L8.97479303,6.66926695 L8.97479303,6.40416959 C8.50369646,6.23109648 8.16472643,5.78195064 8.16472643,5.25175592 C8.16472643,5.01831828 8.35341834,4.82962638 8.58685598,4.82962638 C8.82029362,4.82962638 9.00898553,5.01831828 9.00898553,5.25175592 C9.00898553,5.46535348 9.1829029,5.63927085 9.39692258,5.63927085 C9.61052013,5.63927085 9.78443751,5.46535348 9.78443751,5.25175592 C9.78443751,5.15551039 9.78443751,5.02380597 9.25804196,4.84017962 C8.95917424,4.73591362 8.16472643,4.45899663 8.16472643,3.63162272 C8.16472643,3.10100588 8.50369646,2.65186004 8.97479303,2.47878692 L8.97479303,2.47878692 L8.97479303,2.21368956 C8.97479303,1.98067405 9.16348494,1.79156002 9.39692258,1.79156002 Z" id="Blue" fill="#04246A"></path>
                </g>
            </g>
        </g>
    </g>
</svg>