<?xml version="1.0" encoding="UTF-8"?>
<svg width="35px" height="35px" viewBox="0 0 35 35" version="1.1" xmlns="http://www.w3.org/2000/svg" xmlns:xlink="http://www.w3.org/1999/xlink">
    <title>编组 7备份 2</title>
    <g id="页面-2" stroke="none" stroke-width="1" fill="none" fill-rule="evenodd">
        <g id="3.d&amp;d-result-1" transform="translate(-207.000000, -320.000000)">
            <g id="编组-7备份-2" transform="translate(207.000000, 320.000000)">
                <circle id="椭圆形备份" fill="#F7FAFF" cx="17.5" cy="17.5" r="17.5"></circle>
                <g id="Time-speed" transform="translate(6.000000, 7.000000)" fill-rule="nonzero">
                    <path d="M13.7551549,12.4876497 C13.5238143,12.4876497 13.335746,12.2995814 13.335746,12.0686569 C13.335746,11.8373162 13.5238143,11.649248 13.7551549,11.649248 C13.9860794,11.649248 14.1741477,11.8373162 14.1741477,12.0686569 C14.1741477,12.2995814 13.9860794,12.4876497 13.7551549,12.4876497 M16.1642594,9.65913622 C16.0015721,9.49686493 15.7386094,9.49686493 15.575922,9.65913622 L14.2918984,10.9431598 C14.1283788,10.8649367 13.9482161,10.8170875 13.7551549,10.8170875 C13.5616776,10.8170875 13.3806827,10.8649367 13.2171631,10.943992 C13.2154988,10.9423277 13.2150827,10.9406633 13.2138345,10.938999 L10.8787922,8.60395674 C10.7161048,8.44126937 10.452726,8.44126937 10.2904548,8.60395674 C10.1277674,8.76664411 10.1277674,9.02960682 10.2904548,9.19229419 L12.625497,11.5273365 C12.6267453,11.5290008 12.6288257,11.5290008 12.6300739,11.5306651 C12.5514348,11.6941846 12.5035855,11.8751795 12.5035855,12.0686569 C12.5035855,12.7585179 13.0652938,13.3198101 13.7551549,13.3198101 C14.4450159,13.3198101 15.0063081,12.7585179 15.0063081,12.0686569 C15.0063081,11.8755956 14.958875,11.6950168 14.8802358,11.5314973 L16.1642594,10.2474737 C16.3269468,10.0852024 16.3269468,9.82182359 16.1642594,9.65913622" id="Red" fill="#E20101"></path>
                    <path d="M15.5230382,0 C16.1833575,0 16.7205171,0.537159583 16.7205171,1.19747892 C16.7205171,1.85779825 16.1833575,2.39495783 15.5230382,2.39495783 L15.5230382,2.39495783 L15.3391307,2.39495783 L15.3391307,2.96249127 C19.6842566,3.71601258 23,7.5110804 23,12.0684072 C23,13.7481231 22.5448082,15.3933044 21.6839382,16.8250365 C21.5524569,17.0426464 21.4134861,17.2544313 21.2699384,17.4549819 C21.1351284,17.6413859 20.8754943,17.6838261 20.6890904,17.5498482 C20.5022704,17.4158704 20.4594141,17.1558202 20.593808,16.9694163 C20.7244572,16.7871732 20.8513617,16.594528 20.9707767,16.3960577 C21.7538397,15.0937266 22.1678395,13.597086 22.1678395,12.0684072 C22.1678395,7.42994475 18.3939918,3.65609702 13.7551133,3.65609702 C9.11665081,3.65609702 5.342387,7.42994475 5.342387,12.0684072 C5.342387,16.7072857 9.11665081,20.4811335 13.7551133,20.4811335 C15.283376,20.4811335 16.7804327,20.0671336 18.0831799,19.2840706 C18.3020381,19.1521732 18.5179837,19.0082094 18.7251917,18.8563402 C18.9111795,18.7198658 19.1708136,18.7602256 19.3072879,18.9457974 C19.4429301,19.1309531 19.4029864,19.3914193 19.2178307,19.5274776 C18.9902348,19.6943258 18.752653,19.8524362 18.5121586,19.9972322 C17.0791783,20.8581022 15.4344131,21.3132939 13.7551133,21.3132939 C9.76323949,21.3132939 6.35512629,18.7702115 5.06361324,15.2189667 L5.06361324,15.2189667 L2.44938113,15.2189667 C2.21970484,15.2189667 2.03330089,15.0325628 2.03330089,14.8028865 C2.03330089,14.5732102 2.21970484,14.3868063 2.44938113,14.3868063 L2.44938113,14.3868063 L4.80481133,14.3868063 C4.64254004,13.7597734 4.54600943,13.1069435 4.51979637,12.4362221 L4.51979637,12.4362221 L3.39846014,12.4362221 C3.16836777,12.4362221 2.98237991,12.2498182 2.98237991,12.0201419 C2.98237991,11.7904656 3.16836777,11.6040617 3.39846014,11.6040617 L3.39846014,11.6040617 L4.52229286,11.6040617 C4.55557927,10.9325082 4.66292797,10.2800944 4.83268871,9.65347753 L4.83268871,9.65347753 L1.56853927,9.65347753 C1.3384469,9.65347753 1.15245903,9.46707358 1.15245903,9.23739729 C1.15245903,9.007721 1.3384469,8.82131706 1.56853927,8.82131706 L1.56853927,8.82131706 L5.0898263,8.82131706 C5.09357102,8.82131706 5.09648358,8.82339746 5.09981222,8.82339746 C5.36069453,8.12937563 5.70271248,7.47446534 6.11463191,6.87073292 L6.11463191,6.87073292 L2.8563076,6.87073292 C2.62621523,6.87073292 2.44022736,6.68432897 2.44022736,6.45465268 C2.44022736,6.22497639 2.62621523,6.03857245 2.8563076,6.03857245 L2.8563076,6.03857245 L6.75664372,6.03857245 C8.12513161,4.45247459 10.0216253,3.33529916 12.1710958,2.96249127 L12.1710958,2.96249127 L12.1710958,2.39495783 L11.9871883,2.39495783 C11.326869,2.39495783 10.7897094,1.85779825 10.7897094,1.19747892 C10.7897094,0.537159583 11.326869,0 11.9871883,0 L11.9871883,0 L15.5230382,0 Z M13.7551549,4.9913401 C17.6575714,4.9913401 20.8322636,8.1660323 20.8322636,12.0684488 C20.8322636,15.9708653 17.6575714,19.1455575 13.7551549,19.1455575 C9.85273835,19.1455575 6.67804616,15.9708653 6.67804616,12.0684488 C6.67804616,8.1660323 9.85273835,4.9913401 13.7551549,4.9913401 Z M20.0593529,17.8914085 C20.2890292,17.8914085 20.4754332,18.0778124 20.4754332,18.3074887 C20.4754332,18.537165 20.2890292,18.723569 20.0593529,18.723569 C19.8292606,18.723569 19.6432727,18.537165 19.6432727,18.3074887 C19.6432727,18.0778124 19.8292606,17.8914085 20.0593529,17.8914085 Z M13.7551549,5.82350057 C10.3120909,5.82350057 7.51020663,8.62496879 7.51020663,12.0684488 C7.51020663,15.5119288 10.3120909,18.3133971 13.7551549,18.3133971 C17.1982188,18.3133971 20.0001031,15.5119288 20.0001031,12.0684488 C20.0001031,8.62496879 17.1982188,5.82350057 13.7551549,5.82350057 Z M13.7551549,16.2488485 C13.9852472,16.2488485 14.1712351,16.4352525 14.1712351,16.6649288 L14.1712351,16.6649288 L14.1712351,17.2457768 C14.1712351,17.4758692 13.9852472,17.661857 13.7551549,17.661857 C13.5250625,17.661857 13.3390746,17.4758692 13.3390746,17.2457768 L13.3390746,17.2457768 L13.3390746,16.6649288 C13.3390746,16.4352525 13.5250625,16.2488485 13.7551549,16.2488485 Z M1.11551111,14.3868479 C1.34560348,14.3868479 1.53159134,14.5732518 1.53159134,14.8029281 C1.53159134,15.0326044 1.34560348,15.2190084 1.11551111,15.2190084 L1.11551111,15.2190084 L0.416080235,15.2190084 C0.186403945,15.2190084 0,15.0326044 0,14.8029281 C0,14.5732518 0.186403945,14.3868479 0.416080235,14.3868479 L0.416080235,14.3868479 L1.11551111,14.3868479 Z M18.9342304,11.6542826 C19.1643227,11.6542826 19.3503106,11.8406865 19.3503106,12.0703628 C19.3503106,12.3000391 19.1643227,12.486443 18.9342304,12.486443 L18.9342304,12.486443 L18.3533824,12.486443 C18.12329,12.486443 17.9373021,12.3000391 17.9373021,12.0703628 C17.9373021,11.8406865 18.12329,11.6542826 18.3533824,11.6542826 L18.3533824,11.6542826 L18.9342304,11.6542826 Z M9.16042245,11.650621 C9.39051482,11.650621 9.57650268,11.837025 9.57650268,12.0667013 C9.57650268,12.2963776 9.39051482,12.4827815 9.16042245,12.4827815 L9.16042245,12.4827815 L8.57957444,12.4827815 C8.34948207,12.4827815 8.16349421,12.2963776 8.16349421,12.0667013 C8.16349421,11.837025 8.34948207,11.650621 8.57957444,11.650621 L8.57957444,11.650621 L9.16042245,11.650621 Z M13.7588164,6.47499901 C13.9889087,6.47499901 14.1748966,6.66140295 14.1748966,6.89107924 L14.1748966,6.89107924 L14.1748966,7.47192725 C14.1748966,7.70201962 13.9889087,7.88800748 13.7588164,7.88800748 C13.528724,7.88800748 13.3427361,7.70201962 13.3427361,7.47192725 L13.3427361,7.47192725 L13.3427361,6.89107924 C13.3427361,6.66140295 13.528724,6.47499901 13.7588164,6.47499901 Z M14.5069702,2.39495783 L13.0032563,2.39495783 L13.0032563,2.82352047 L14.5069702,2.82352047 L14.5069702,2.39495783 Z M15.5230382,0.832160469 L11.9871883,0.832160469 C11.7858055,0.832160469 11.6218699,0.996096082 11.6218699,1.19747892 C11.6218699,1.39886175 11.7858055,1.56279736 11.9871883,1.56279736 L11.9871883,1.56279736 L15.5230382,1.56279736 C15.7248371,1.56279736 15.8883566,1.39886175 15.8883566,1.19747892 C15.8883566,0.996096082 15.7248371,0.832160469 15.5230382,0.832160469 L15.5230382,0.832160469 Z" id="Blue" fill="#04246A"></path>
                </g>
            </g>
        </g>
    </g>
</svg>