<?xml version="1.0" encoding="UTF-8"?>
<svg width="60px" height="45px" viewBox="0 0 60 45" version="1.1" xmlns="http://www.w3.org/2000/svg" xmlns:xlink="http://www.w3.org/1999/xlink">
    <title>编组 19</title>
    <g id="phase5" stroke="none" stroke-width="1" fill="none" fill-rule="evenodd">
        <g id="my-contracts-结果" transform="translate(-280.000000, -234.000000)">
            <g id="编组-19" transform="translate(280.000000, 234.000000)">
                <rect id="矩形备份-4" x="0" y="0" width="60" height="45"></rect>
                <g id="ANL" transform="translate(15.000000, 9.000000)" fill="#9AA7C3" fill-rule="nonzero">
                    <g id="Logo_3_" transform="translate(7.649677, -0.000000)">
                        <polygon id="triangle_3_" points="7.58570296 13.2270506 7.58570296 13.2270506 -7.68923343e-16 3.74518697e-16 15.171406 3.74518697e-16"></polygon>
                    </g>
                    <g id="Group" transform="translate(-0.000000, 16.813534)">
                        <path d="M2.16023354,9.83465284 L1.11361312e-15,9.83465284 L3.92150503,7.95437942e-17 L6.82127797,7.95437942e-17 L10.742783,9.83465284 L8.51443399,9.83465284 L7.8722024,8.12864168 L2.79273435,8.12864168 L2.16023354,9.83465284 Z M3.57119689,6.22192325 L7.10347065,6.22192325 L5.34219916,1.48523329 L3.57119689,6.22192325 Z" id="Shape"></path>
                        <path d="M18.7414855,9.73429925 L14.4502109,4.21485124 C14.216672,3.9238258 13.7495945,3.30163347 13.5452482,2.91025442 L13.5160558,2.91025442 C13.5452482,3.27152739 13.5549789,3.91379044 13.5549789,4.21485124 L13.5549789,9.83465284 L11.6088226,9.83465284 L11.6088226,7.95437942e-17 L13.6230944,7.95437942e-17 L17.9240999,5.51944805 C18.1673694,5.81047349 18.6247162,6.43266582 18.8387934,6.82404486 L18.8679857,6.82404486 C18.8290626,6.4627719 18.809601,5.82050886 18.809601,5.51944805 L18.809601,7.95437942e-17 L20.7557574,7.95437942e-17 L20.7557574,9.73429925 L18.7414855,9.73429925 Z" id="Path"></path>
                        <polygon id="Path" points="30 9.83465284 22.7992216 9.83465284 22.7992216 7.95437942e-17 24.7453779 7.95437942e-17 24.7453779 7.92793447 30 7.92793447"></polygon>
                    </g>
                </g>
            </g>
        </g>
    </g>
</svg>