<?xml version="1.0" encoding="UTF-8"?>
<svg width="60px" height="45px" viewBox="0 0 60 45" version="1.1" xmlns="http://www.w3.org/2000/svg" xmlns:xlink="http://www.w3.org/1999/xlink">
    <title>编组 17</title>
    <g id="phase5" stroke="none" stroke-width="1" fill="none" fill-rule="evenodd">
        <g id="my-contracts-结果" transform="translate(-198.000000, -234.000000)">
            <g id="编组-17" transform="translate(198.000000, 234.000000)">
                <rect id="矩形备份-3" x="0" y="0" width="60" height="45"></rect>
                <g id="APL" transform="translate(13.000000, 11.000000)" fill="#9AA7C3" fill-rule="nonzero">
                    <path d="M0.0244670667,1.59559209 C0.0978682668,1.59559209 0.171269467,1.60458415 0.244670667,1.60458415 C5.00759298,1.60458415 9.7705153,1.60458415 14.5334376,1.60458415 C14.6476173,1.60458415 14.7536412,1.61357622 14.8678209,1.63156035 C15.0064676,1.65853655 15.1288029,1.73946514 15.2103598,1.87434612 C15.414252,2.20705255 15.2674496,2.44084625 15.2022041,2.70161616 C15.1614257,2.85448127 15.1940484,3.02533052 15.2756053,3.15121944 C15.5039646,3.48392587 15.911749,3.42997347 16.0911742,3.12424324 C16.1401083,3.03432259 16.6865395,1.53264763 16.7110065,1.40675871 C16.4174017,1.40675871 16.1319526,1.40675871 15.8383478,1.40675871 C15.7241682,1.40675871 15.6670784,1.50567143 15.5692101,1.61357622 C15.6018329,1.30784599 15.6181442,1.04707608 15.6915454,0.804290313 C15.7567909,0.579488673 15.9769945,0.534528345 16.2461323,0.651425198 C16.3521562,0.696385526 16.4744916,0.696385526 16.5723598,0.624449001 C16.645761,0.561504542 16.7354736,0.624449001 16.8170305,0.570496607 C16.8659646,0.534528345 16.9148988,0.489568017 16.8985874,0.426623557 C16.882276,0.363679098 16.8251862,0.390655295 16.7844077,0.390655295 C16.7191622,0.381663229 16.6539167,0.390655295 16.5805155,0.390655295 C16.4255574,0.390655295 16.4010904,0.345694967 16.4826473,0.192829851 C16.5397371,0.0759329985 16.6294497,0.00399647361 16.751785,0.00399647361 C17.0290784,0.00399647361 17.3145275,-0.00499559201 17.5918209,0.00399647361 C17.7875575,0.0129885392 17.9343599,0.156861589 17.983294,0.390655295 C18.1300964,1.20893327 18.2768988,2.01821917 18.4237012,2.83649714 C18.4971024,3.24114009 18.7499288,3.43896554 19.059845,3.33106075 C19.320827,3.24114009 19.451318,2.97137813 19.3860725,2.65665583 C19.3616054,2.53076691 19.320827,2.40487799 19.3371384,2.27898907 C19.3779168,1.90132232 19.5981204,1.65853655 19.9569707,1.62256828 C20.0222162,1.61357622 20.0874618,1.61357622 20.160863,1.61357622 C23.3252702,1.61357622 26.4896775,1.61357622 29.6540848,1.61357622 C31.171043,1.61357622 32.6798454,1.60458415 34.1968035,1.60458415 C34.4170071,1.60458415 34.4170071,1.61357622 34.3843844,1.85636199 C34.2946718,2.51278278 33.8542646,2.98037019 33.2507436,3.04331465 C33.1528754,3.05230672 33.0957855,3.07029085 33.0713185,3.20517183 C32.9408275,3.80764023 32.6227556,4.11337046 32.0600131,4.19429905 C31.9132107,4.21228318 31.7419412,4.17631492 31.6359172,4.25724351 C31.538049,4.32918003 31.5298933,4.52700548 31.4728035,4.66188646 C31.2362885,5.21040246 30.7877256,5.35427551 30.2902286,5.37225964 C30.1352705,5.37225964 30.0618693,5.41721997 30.0047794,5.57907715 C29.7927315,6.19053761 29.36048,6.46929165 28.7814261,6.46929165 C25.820911,6.46929165 22.8685517,6.46929165 19.9080366,6.46929165 C19.4920965,6.46929165 19.0924677,6.36138686 18.7254617,6.12759316 C18.7009946,6.10960902 18.6765276,6.10061696 18.6520605,6.08263283 C18.6439048,6.08263283 18.6275934,6.08263283 18.5949707,6.09162489 C18.8722641,6.42433132 19.1414018,6.74804568 19.4105396,7.06276798 C19.5410306,7.22462516 19.6715216,7.38648234 19.8101683,7.53934746 C19.8998809,7.62926811 19.8754138,7.68322051 19.793857,7.75515703 C19.5165635,7.9979428 19.2229587,7.9979428 18.8885755,7.82709356 C18.953821,7.96197454 19.0027551,8.07887139 19.0680006,8.19576825 C19.1006234,8.24972064 19.084312,8.32165717 19.0272222,8.35762543 C18.7499288,8.51948261 18.480791,8.53746674 18.219809,8.32165717 C18.1953419,8.30367303 18.1627192,8.2856889 18.1300964,8.26770477 C18.1219407,8.26770477 18.1056293,8.26770477 18.089318,8.27669684 C18.1056293,8.3396413 18.113785,8.40258576 18.1300964,8.45653815 C18.1708749,8.6004112 18.089318,8.74428425 17.9506713,8.77126045 C17.5999766,8.84319697 17.4042401,8.71730805 17.2085036,8.2856889 C17.1432581,8.30367303 17.1514137,8.36661749 17.1269467,8.41157782 C16.9556772,8.76226838 16.6131383,8.89714936 16.2869107,8.72630012 C16.2216652,8.69033186 16.2216652,8.65436359 16.2379766,8.6004112 C16.2624437,8.49250641 16.3032221,8.39359369 16.2950664,8.2856889 C16.2216652,8.26770477 16.1890425,8.32165717 16.1564197,8.35762543 C15.8954377,8.54645881 15.6426113,8.51948261 15.3816293,8.36661749 C15.3163837,8.33064923 15.3082281,8.29468097 15.3408508,8.22274444 C15.4060963,8.10584759 15.4550305,7.98895074 15.5284317,7.84507769 C15.2103598,8.01592693 14.916755,8.024919 14.6476173,7.80011736 C14.549749,7.71918877 14.5252819,7.65624431 14.6231502,7.53934746 C15.0064676,7.09873624 15.3897849,6.6401409 15.7649466,6.19053761 C15.781258,6.17255348 15.7975694,6.14557729 15.8138808,6.11860109 C15.7567909,6.08263283 15.7241682,6.12759316 15.6833897,6.15456935 C15.3082281,6.38836306 14.8922879,6.48727578 14.4600364,6.48727578 C11.5321441,6.48727578 8.60425179,6.48727578 5.66820378,6.48727578 C4.9912816,6.48727578 4.61611992,6.20852175 4.37144925,5.51613269 C4.3306708,5.40822791 4.28173667,5.38125171 4.19202409,5.38125171 C4.05337738,5.38125171 3.91473067,5.37225964 3.77608396,5.34528345 C3.28674263,5.25536279 2.97682645,4.93164843 2.83817974,4.41010862 C2.80555698,4.27522764 2.74846716,4.23925938 2.63428751,4.23925938 C2.50379649,4.23925938 2.38146116,4.21228318 2.25097014,4.19429905 C1.74531742,4.09538633 1.43540125,3.77167197 1.3212216,3.2141639 C1.30491022,3.12424324 1.28859885,3.07928291 1.19073058,3.07029085 C0.570898223,3.01633845 0.130491022,2.56673517 0.0326227556,2.00023504 C0.0326227556,1.98225091 0.0163113778,1.97325884 3.55271368e-15,1.95527471 C0.0244670667,1.82039373 0.0244670667,1.70349687 0.0244670667,1.59559209 Z" id="Path"></path>
                    <g id="Group" transform="translate(1.600000, 12.016639)">
                        <path d="M2.40414493,10.3167994 L0,10.3167994 L4.22797902,3.15719673e-16 L7.35336744,3.15719673e-16 L11.5813465,10.3167994 L9.10259013,10.3167994 L8.42279743,8.56959949 L3.08393764,8.56959949 L2.40414493,10.3167994 Z M3.83834174,6.57279961 L7.66839333,6.57279961 L5.75336753,1.57247991 L3.83834174,6.57279961 Z" id="Shape"></path>
                        <path d="M22.4663199,3.15327981 L22.4663199,4.11839975 C22.4663199,6.7558396 21.5212422,7.32159956 18.4787554,7.32159956 L14.7564758,7.32159956 L14.7564758,10.3167994 L12.518134,10.3167994 L12.518134,3.15719673e-16 L18.4621751,3.15719673e-16 C21.5212422,3.15719673e-16 22.4663199,0.549119967 22.4663199,3.15327981 Z M20.2279781,3.44447979 C20.2279781,2.34623986 20.1284962,1.99679988 18.7523305,1.99679988 L14.7564758,1.99679988 L14.7564758,5.40799968 L18.7523305,5.40799968 C20.1284962,5.40799968 20.2279781,5.0668797 20.2279781,3.97695976 L20.2279781,3.44447979 Z" id="Shape"></path>
                        <polygon id="Path" points="31.9999981 10.3167994 24.2072524 10.3167994 24.2072524 3.15719673e-16 26.3626927 3.15719673e-16 26.3626927 8.3199995 31.9999981 8.3199995"></polygon>
                    </g>
                </g>
            </g>
        </g>
    </g>
</svg>