<?xml version="1.0" encoding="UTF-8"?>
<svg width="60px" height="45px" viewBox="0 0 60 45" version="1.1" xmlns="http://www.w3.org/2000/svg" xmlns:xlink="http://www.w3.org/1999/xlink">
    <title>编组 13</title>
    <g id="phase5" stroke="none" stroke-width="1" fill="none" fill-rule="evenodd">
        <g id="my-contracts-icon" transform="translate(-35.000000, -234.000000)">
            <g id="编组-13" transform="translate(35.000000, 234.000000)">
                <rect id="矩形" x="0" y="0" width="60" height="45"></rect>
                <g id="CMA" transform="translate(5.000000, 8.000000)" fill-rule="nonzero">
                    <path d="M28.3090913,3.19760878 C28.6709297,2.91923858 30.2611141,1.53666658 31.0514453,0.590207897 C31.1085776,0.515975843 31.0704894,0.41390677 30.9847908,0.38606975 C26.8236496,-0.792364101 14.2259611,0.348953723 8.24610595,9.17328905 C8.16040741,9.29391613 8.17945157,9.33103217 8.2746722,9.40526424 C10.3600038,6.11121688 15.0924688,3.52237401 20.8152283,2.98419162 C23.1671776,2.76149546 25.5667373,2.9470756 27.9282088,3.34607288 C28.1567383,3.3646309 28.1472163,3.32751487 28.3090913,3.19760878 Z" id="Path" fill="#FF0000"></path>
                    <g id="编组" transform="translate(0.000000, 11.493041)" fill="#051039">
                        <path d="M22.4815892,7.05204505 L24.1479501,7.05204505 L21.2056328,0.0927900669 L19.0346026,0.0927900669 L16.0922853,7.05204505 L17.7110359,7.05204505 L18.1871391,5.84577421 L21.995964,5.84577421 L22.4815892,7.05204505 Z M18.7679848,4.54671327 L20.0915515,1.17843385 L21.4151182,4.54671327 L18.7679848,4.54671327 Z" id="Shape"></path>
                        <path d="M11.8359235,6.30972455 L13.6546374,3.34972141 C13.7212918,3.23837334 14.0736081,2.6445169 14.1878728,2.41254174 L14.206917,2.41254174 C14.1878728,2.67235392 14.1878728,3.13630426 14.1878728,3.34972141 L14.1878728,7.05204505 L15.7114028,7.05204505 L15.7114028,0.0927900669 L14.2545273,0.0927900669 L11.9406662,3.82295075 L9.62680503,0.0927900669 L7.90331171,0.0927900669 L7.90331171,7.05204505 L9.4268417,7.05204505 L9.4268417,3.34972141 C9.4268417,3.13630426 9.41731962,2.68163293 9.4077976,2.41254174 L9.4268417,2.41254174 C9.54110642,2.6352379 9.89342274,3.23837334 9.96007718,3.34972141 L11.7787911,6.30972455 L11.8359235,6.30972455 L11.8359235,6.30972455 Z" id="Path"></path>
                        <path d="M46.5438407,6.30972455 L48.4006428,3.34972141 C48.4672973,3.23837334 48.8291356,2.6445169 48.9434004,2.41254174 L48.9624445,2.41254174 C48.9434004,2.67235392 48.9434004,3.13630426 48.9434004,3.34972141 L48.9434004,7.05204505 L50.4669303,7.05204505 L50.4669303,0.0927900669 L48.9148342,0.0927900669 L46.6009731,3.82295075 L44.2871119,0.0927900669 L42.5636186,0.0927900669 L42.5636186,7.05204505 L44.0871486,7.05204505 L44.0871486,3.34972141 C44.0871486,3.13630426 44.0776266,2.68163293 44.0681045,2.41254174 L44.0871486,2.41254174 C44.2014134,2.6352379 44.5632517,3.23837334 44.6299061,3.34972141 L46.4867083,6.30972455 L46.5438407,6.30972455 L46.5438407,6.30972455 Z" id="Path"></path>
                        <path d="M7.0463261,5.01066361 L5.42757552,5.01066361 L5.42757552,5.05705864 C5.42757552,5.62307805 5.11334747,5.75298414 4.41823692,5.75298414 L2.87566282,5.75298414 C1.70444916,5.75298414 1.52352997,5.61379905 1.52352997,4.28690109 L1.52352997,2.76514399 C1.52352997,1.5310361 1.6949271,1.391851 2.84709664,1.391851 L4.36110455,1.391851 C5.04669303,1.391851 5.35139903,1.51247809 5.35139903,2.04138147 L7.1510688,2.04138147 C7.1510688,0.519624374 6.53213476,-2.01499048e-16 4.58963405,-2.01499048e-16 L2.57095683,-2.01499048e-16 C0.723676737,-2.01499048e-16 7.49102343e-16,0.677367489 7.49102343e-16,2.43109975 L7.49102343e-16,4.64878235 C7.49102343e-16,6.36539859 0.714154675,7.04276607 2.53286858,7.04276607 L4.52297961,7.04276607 C6.4464362,7.04276607 7.0463261,6.53242071 7.0463261,5.03850063 L7.0463261,5.01066361 Z" id="Path"></path>
                        <path d="M33.4224388,5.01066361 L31.8036882,5.01066361 L31.8036882,5.05705864 C31.8036882,5.62307805 31.4894601,5.75298414 30.7943496,5.75298414 L29.2517755,5.75298414 C28.0805618,5.75298414 27.8996427,5.61379905 27.8996427,4.28690109 L27.8996427,2.76514399 C27.8996427,1.5310361 28.0710397,1.391851 29.2232093,1.391851 L30.7372172,1.391851 C31.4228057,1.391851 31.7275117,1.51247809 31.7275117,2.04138147 L33.5271814,2.04138147 C33.5271814,0.519624374 32.9082474,-2.01499048e-16 30.9657467,-2.01499048e-16 L28.9470695,-2.01499048e-16 C27.0997894,-2.01499048e-16 26.3761127,0.686646498 26.3761127,2.44037876 L26.3761127,4.65806135 C26.3761127,6.37467759 27.0902673,7.04276607 28.9089813,7.04276607 L30.8990923,7.04276607 C32.8225489,7.04276607 33.4224388,6.53242071 33.4224388,5.04777963 L33.4224388,5.01066361 Z" id="Path"></path>
                        <path d="M39.9926618,4.36113314 L39.9926618,5.09417467 C39.9926618,5.63235706 39.6879558,5.75298414 38.9928452,5.75298414 L37.1455652,5.75298414 C35.9838736,5.75298414 35.8124764,5.62307805 35.8124764,4.36113314 L35.8124764,2.76514399 C35.8124764,1.5310361 35.9838736,1.391851 37.1360431,1.391851 L38.8976247,1.391851 C39.5832131,1.391851 39.8879191,1.51247809 39.8879191,2.04138147 L41.6875889,2.04138147 C41.6875889,0.519624374 41.0686548,-2.01499048e-16 39.1261541,-2.01499048e-16 L36.8694254,-2.01499048e-16 C35.0221452,-2.01499048e-16 34.2984685,0.686646498 34.2984685,2.44037876 L34.2984685,4.62094533 C34.2984685,6.36539859 35.0126232,7.05204505 36.812293,7.05204505 L39.0214115,7.05204505 C40.935346,7.05204505 41.5257138,6.53242071 41.5257138,5.01994261 L41.5257138,3.15486227 L37.9073301,3.15486227 L37.9073301,4.36113314 L39.9926618,4.36113314 Z" id="Path"></path>
                    </g>
                    <path d="M22.1197508,26.8034018 C21.7579124,27.081772 20.167728,28.464344 19.3773968,29.4108027 C19.3202645,29.4850347 19.3583527,29.5871038 19.4440513,29.6149408 C23.6051925,30.7933746 36.202881,29.6427778 42.1827362,20.8184425 C42.2684347,20.6978154 42.2493905,20.6606993 42.1541699,20.5864673 C40.0688383,23.8805147 35.3363733,26.4693576 29.6136138,27.0075399 C27.2616645,27.2302361 24.8621048,27.044656 22.5006333,26.6456587 C22.2721038,26.6271007 22.2816258,26.6642167 22.1197508,26.8034018 Z" id="Path" fill="#FF0000"></path>
                </g>
            </g>
        </g>
    </g>
</svg>