<?xml version="1.0" encoding="UTF-8"?>
<svg width="60px" height="45px" viewBox="0 0 60 45" version="1.1" xmlns="http://www.w3.org/2000/svg" xmlns:xlink="http://www.w3.org/1999/xlink">
    <title>编组 16</title>
    <g id="phase5" stroke="none" stroke-width="1" fill="none" fill-rule="evenodd">
        <g id="my-contracts-icon" transform="translate(-117.000000, -234.000000)">
            <g id="编组-16" transform="translate(117.000000, 234.000000)">
                <rect id="矩形备份-2" x="0" y="0" width="60" height="45"></rect>
                <g id="CNC" transform="translate(15.000000, 10.000000)" fill="#9AA7C3" fill-rule="nonzero">
                    <g id="Group" transform="translate(7.855791, -0.000000)">
                        <path d="M0.324571442,11.3421116 C5.21223552,13.7707866 10.1094458,8.54405639 14.9971098,11.295939 L14.9684712,10.8434483 C10.0903534,8.59022892 5.2026893,13.3459993 0.324571442,11.3421116" id="Path"></path>
                        <path d="M14.0615804,11.0835454 C9.54621889,9.34745842 5.46998343,13.9000697 0.964168108,12.3948453 C2.51065557,13.0412606 3.9903195,12.884274 5.46998343,12.4964248 C8.29566421,11.6468503 11.0545215,9.99387376 14.0615804,11.0835454" id="Path"></path>
                        <path d="M14.262051,0.703961118 C9.74668946,-1.77088639 5.23132795,3.27115368 0.715966417,0.796306174 C0.477310945,4.13919721 0.238655472,7.48208825 -2.05581205e-16,10.8249792 C4.99267248,13.6230345 9.98534496,8.12850363 14.9780174,10.9357933 C14.739362,7.51902626 14.5007065,4.11149369 14.262051,0.703961118 Z M11.0163366,5.64442163 C9.92806762,6.43858911 8.7920676,7.53749528 7.59879024,8.68257398 C7.18830282,9.06118867 6.5200675,9.20894084 6.14776496,8.99654713 C5.1549582,8.3963043 4.20033631,7.72218539 3.27435308,6.83567285 C2.95932786,6.51246515 3.07388249,6.06920889 3.49391611,5.81987723 C4.65855482,5.09035129 5.78500865,4.04685215 6.85418517,2.98488401 C7.20739527,2.62473829 7.74198352,2.4862207 8.06655496,2.68014532 C8.99253822,3.21574665 9.94716013,3.7975205 10.9208745,4.610157 C11.3027232,4.92413019 11.3504542,5.39508998 11.0163366,5.64442163 Z" id="Shape"></path>
                    </g>
                    <g id="Group" transform="translate(0.000000, 15.020728)">
                        <path d="M8.86531366,6.59200053 C8.86531366,8.57146812 8.09040591,9.24374014 5.68265684,9.24374014 L3.18265683,9.24374014 C0.894833952,9.24374014 1.49513603e-15,8.34737744 1.49513603e-15,6.0597852 L1.49513603e-15,3.24931471 C1.49513603e-15,0.915036903 0.922509223,-2.46074472e-16 3.28413284,-2.46074472e-16 L5.86715868,-2.46074472e-16 C8.35793359,-2.46074472e-16 9.15129155,0.690946232 9.15129155,2.70776226 L6.92804429,2.70776226 C6.92804429,1.94211914 6.52214023,1.77405113 5.63653137,1.77405113 L3.66236163,1.77405113 C2.16789668,1.77405113 1.94649446,1.96079336 1.94649446,3.75351872 L1.94649446,5.60226675 C1.94649446,7.29228387 2.16789668,7.46968899 3.62546126,7.46968899 L5.56273063,7.46968899 C6.4391144,7.46968899 6.83579337,7.3109581 6.83579337,6.59200053 L6.83579337,6.53597786 L8.86531366,6.53597786 L8.86531366,6.59200053 Z" id="Path"></path>
                        <path d="M17.1033211,9.24374014 L13.0258302,4.10832895 C12.8044281,3.83755272 12.3616237,3.25865182 12.1678967,2.89450449 L12.1402214,2.89450449 C12.1678967,3.23064048 12.1771218,3.8282156 12.1771218,4.10832895 L12.1771218,9.24374014 L10.3321034,9.24374014 L10.3321034,0.186742224 L12.2416974,0.186742224 L16.3191882,5.24745652 C16.5498155,5.51823274 16.9833949,6.07845942 17.1863469,6.44260675 L17.2140222,6.44260675 C17.1771218,6.10647075 17.1586716,5.51823274 17.1586716,5.24745652 L17.1586716,0.186742224 L19.0036901,0.186742224 L19.0036901,9.24374014 L17.1033211,9.24374014 Z" id="Path"></path>
                        <path d="M29.7140221,6.59200053 C29.7140221,8.57146812 28.9391144,9.24374014 26.5313653,9.24374014 L24.0313653,9.24374014 C21.7435425,9.24374014 20.8487085,8.34737744 20.8487085,6.0597852 L20.8487085,3.24931471 C20.8487085,0.915036903 21.7712177,-2.46074472e-16 24.1328414,-2.46074472e-16 L26.7158672,-2.46074472e-16 C29.2066421,-2.46074472e-16 30,0.690946232 30,2.70776226 L27.7767528,2.70776226 C27.7767528,1.94211914 27.3708487,1.77405113 26.4852399,1.77405113 L24.5110701,1.77405113 C23.0166052,1.77405113 22.795203,1.96079336 22.795203,3.75351872 L22.795203,5.60226675 C22.795203,7.29228387 23.0166052,7.46968899 24.4741698,7.46968899 L26.4114392,7.46968899 C27.2878229,7.46968899 27.6845019,7.3109581 27.6845019,6.59200053 L27.6845019,6.53597786 L29.7140221,6.53597786 L29.7140221,6.59200053 Z" id="Path"></path>
                    </g>
                </g>
            </g>
        </g>
    </g>
</svg>