<?xml version="1.0" encoding="UTF-8"?>
<svg width="35px" height="35px" viewBox="0 0 35 35" version="1.1" xmlns="http://www.w3.org/2000/svg" xmlns:xlink="http://www.w3.org/1999/xlink">
    <title>编组 8</title>
    <g id="页面-1" stroke="none" stroke-width="1" fill="none" fill-rule="evenodd">
        <g id="15check" transform="translate(-30.000000, -132.000000)">
            <g id="编组-8" transform="translate(30.000000, 132.000000)">
                <rect id="矩形" fill="#FFFFFF" x="0" y="0" width="35" height="35"></rect>
                <g id="Vessel" transform="translate(3.500000, 3.500000)" fill-rule="nonzero">
                    <path d="M14,19.04 C13.69088,19.04 13.44,18.78912 13.44,18.48 L13.44,9.52 C13.44,9.21088 13.69088,8.96 14,8.96 C14.30912,8.96 14.56,9.21088 14.56,9.52 L14.56,18.48 C14.56,18.78912 14.30912,19.04 14,19.04" id="Fill-1" fill="#E20101"></path>
                    <path d="M18.0024127,24.6635516 C17.0358385,25.3834522 16.2361468,25.391241 15.4095745,24.6869178 C13.7250697,23.2471165 12.0260048,24.3052703 11.5443976,24.6624389 C11.5298374,24.6746784 10.0234152,25.7795645 9.15540248,25.0830301 C7.8057826,23.998172 6.54128401,24.1951155 4.92174015,25.0051428 C4.65181617,23.912496 4.34605169,22.8432155 4.06268749,21.8896531 C3.5586801,20.1961619 3.12411366,18.7341071 3.10283338,17.718235 C3.03899243,14.6672804 4.11532828,14.1309711 9.84085256,11.7932412 C11.0336701,11.3058896 12.4090504,10.7439888 13.9893937,10.0641444 C15.570857,10.7439888 16.9462372,11.3058896 18.1390547,11.7932412 C23.864579,14.1309711 24.9409149,14.6672804 24.8759539,17.718235 C24.8546736,18.7430085 24.4201072,20.2195281 23.9183398,21.9285968 C23.6002552,23.0134547 23.2440899,24.2373971 22.9540056,25.4847057 C22.8778445,25.4335226 22.7983233,25.384565 22.7378425,25.3200298 C21.1126985,23.5720176 18.8513852,24.0282143 18.0024127,24.6635516 L18.0024127,24.6635516 Z M5.09198267,7.4794006 C5.09198267,6.70831689 5.91855482,6.05740212 6.89632921,6.05740212 L21.0824581,6.05740212 C22.0613525,6.05740212 22.8879246,6.70831689 22.8879246,7.4794006 L22.8879246,12.6622402 C21.7925485,12.0836493 20.3734876,11.502833 18.564661,10.7640169 C17.3214427,10.2566372 15.8799815,9.66691947 14.213397,8.94701881 C14.0711548,8.88582167 13.9087525,8.88582167 13.7665104,8.94701881 C12.0999258,9.66691947 10.6584646,10.2566372 9.41524629,10.7640169 C7.60641969,11.502833 6.1873588,12.0836493 5.09198267,12.6622402 L5.09198267,7.4794006 Z M8.74211637,1.79251923 C8.74211637,1.42422386 9.15092242,1.11267489 9.63364953,1.11267489 L18.3451378,1.11267489 C18.8289849,1.11267489 19.2377909,1.42422386 19.2377909,1.79251923 L19.2377909,4.9447272 L8.74211637,4.9447272 L8.74211637,1.79251923 Z M27.8652779,24.4254392 C27.663675,24.1917775 27.3108698,24.1650732 27.0756663,24.3642421 C25.9802902,25.2966636 24.8916341,25.7161421 24.0426617,25.747297 C24.3249058,24.5311433 24.6631508,23.3661727 24.9935557,22.2401457 C25.5177234,20.4554152 25.9713301,18.9132478 25.9959704,17.7416011 C26.0418911,15.5729978 25.4762828,14.3701962 24.0079412,13.3365212 L24.0079412,7.4794006 C24.0079412,6.08188095 22.6952818,4.9447272 21.0824581,4.9447272 L20.3578074,4.9447272 L20.3578074,1.79251923 C20.3578074,0.804463946 19.4550741,0 18.3451378,0 L9.63364953,0 C8.52483318,0 7.62209991,0.804463946 7.62209991,1.79251923 L7.62209991,4.9447272 L6.89632921,4.9447272 C5.28462547,4.9447272 3.97196615,6.08188095 3.97196615,7.4794006 L3.97196615,13.3365212 C2.50362454,14.3701962 1.93689619,15.5729978 1.98281686,17.7416011 C2.00857726,18.905459 2.46218392,20.4342743 2.9885917,22.2045401 C3.29771624,23.2460038 3.60908083,24.3252984 3.87900481,25.4424241 C3.38171747,25.4824803 2.52378482,25.2232271 0.94680162,23.7177779 C0.725038355,23.5041444 0.36999313,23.5141585 0.156069978,23.7333554 C-0.0578531695,23.9547777 -0.0511330687,24.3074956 0.171750213,24.5200166 C2.17209966,26.4304793 3.63708122,26.969014 4.91502004,26.2635781 C6.90976944,25.1664807 7.6164998,25.2788608 8.45091212,25.9475784 C9.96405441,27.1626194 11.9901642,25.7205927 12.2164076,25.5536915 C12.7136949,25.1831708 13.6948293,24.6869178 14.6793238,25.5292127 C15.5361364,26.2613528 16.9249569,26.8588592 18.6755426,25.5525789 C19.0921888,25.2421426 20.6982924,24.764805 21.9146304,26.0744234 C22.4186377,26.6162961 23.1231281,26.88 23.92842,26.88 C25.1133975,26.88 26.5134181,26.3080851 27.803677,25.209875 C28.0388805,25.0107062 28.0668809,24.6591009 27.8652779,24.4254392 L27.8652779,24.4254392 Z" id="Fill-3" fill="#04246A"></path>
                </g>
            </g>
        </g>
    </g>
</svg>