<?xml version="1.0" encoding="UTF-8"?>
<svg width="35px" height="35px" viewBox="0 0 35 35" version="1.1" xmlns="http://www.w3.org/2000/svg" xmlns:xlink="http://www.w3.org/1999/xlink">
    <title>编组 3</title>
    <g id="页面-1" stroke="none" stroke-width="1" fill="none" fill-rule="evenodd">
        <g id="15check" transform="translate(-30.000000, -470.000000)">
            <g id="编组-3" transform="translate(30.000000, 470.000000)">
                <rect id="矩形" fill="#FFFFFF" x="0" y="0" width="35" height="35"></rect>
                <g id="Commodity" transform="translate(3.500000, 3.500000)" fill-rule="nonzero">
                    <path d="M26.962963,25.8637037 C26.962963,26.0825185 26.7845926,26.2608889 26.5657778,26.2608889 L25.1917037,26.2608889 C24.9728889,26.2608889 24.7945185,26.0825185 24.7945185,25.8637037 L24.7945185,24.5497778 L26.2557037,24.5497778 C26.5077037,24.5497778 26.7462222,24.4937778 26.962963,24.3962963 L26.962963,25.8637037 Z M15.5171852,23.5127407 L12.3117037,23.5127407 L3.724,23.5127407 L1.7442963,23.5127407 C1.35437037,23.5127407 1.03703704,23.1954074 1.03703704,22.7494815 C1.03703704,22.3595556 1.35437037,22.0422222 1.7442963,22.0422222 L3.07066667,22.0422222 C3.54666667,22.6343704 4.26740741,23.0201481 5.08251852,23.0201481 L11.9259259,23.0201481 C12.7773333,23.0201481 13.5271111,22.6022222 14,21.9665185 C14.4728889,22.6022222 15.2226667,23.0201481 16.0740741,23.0201481 L22.9174815,23.0201481 C23.7325926,23.0201481 24.4533333,22.6343704 24.9293333,22.0422222 L26.2557037,22.0422222 C26.6456296,22.0422222 26.962963,22.3595556 26.962963,22.8054815 C26.962963,23.1954074 26.6456296,23.5127407 26.2557037,23.5127407 L24.276,23.5127407 L15.5171852,23.5127407 Z M14.9986667,25.8637037 C14.9986667,26.0825185 14.8202963,26.2608889 14.6014815,26.2608889 L13.2274074,26.2608889 C13.0075556,26.2608889 12.8302222,26.0825185 12.8302222,25.8637037 L12.8302222,24.5497778 L14.9986667,24.5497778 L14.9986667,25.8637037 Z M3.20548148,25.8637037 C3.20548148,26.0825185 3.02711111,26.2608889 2.8082963,26.2608889 L1.43422222,26.2608889 C1.21540741,26.2608889 1.03703704,26.0825185 1.03703704,25.8637037 L1.03703704,24.3973333 C1.25377778,24.4937778 1.4922963,24.5497778 1.7442963,24.5497778 L3.20548148,24.5497778 L3.20548148,25.8637037 Z M3.52696296,13.5831111 C3.52696296,12.7254815 4.22488889,12.0275556 5.08251852,12.0275556 L6.70755556,12.0275556 L7.74459259,12.0275556 L9.26488889,12.0275556 L10.3019259,12.0275556 L10.5788148,12.0275556 L11.9259259,12.0275556 C12.7835556,12.0275556 13.4814815,12.7254815 13.4814815,13.5831111 L13.4814815,20.4275556 C13.4814815,21.2851852 12.7835556,21.9831111 11.9259259,21.9831111 L5.08251852,21.9831111 C4.22488889,21.9831111 3.52696296,21.2851852 3.52696296,20.4275556 L3.52696296,13.5831111 Z M9.02325926,9.43496296 L9.02325926,2.59259259 C9.02325926,1.73392593 9.72118519,1.03703704 10.5788148,1.03703704 L12.2028148,1.03703704 L13.2398519,1.03703704 L14.7601481,1.03703704 L15.7971852,1.03703704 L17.4211852,1.03703704 C18.2788148,1.03703704 18.9767407,1.73392593 18.9767407,2.59259259 L18.9767407,9.43496296 C18.9767407,10.2925926 18.2788148,10.9905185 17.4211852,10.9905185 L16.0740741,10.9905185 L11.9259259,10.9905185 L10.5788148,10.9905185 C9.72118519,10.9905185 9.02325926,10.2925926 9.02325926,9.43496296 L9.02325926,9.43496296 Z M20.2554074,12.0275556 L21.2924444,12.0275556 L22.9174815,12.0275556 C23.7751111,12.0275556 24.473037,12.7254815 24.473037,13.5831111 L24.473037,20.4275556 C24.473037,21.2851852 23.7751111,21.9831111 22.9174815,21.9831111 L16.0740741,21.9831111 C15.2164444,21.9831111 14.5185185,21.2851852 14.5185185,20.4275556 L14.5185185,13.5831111 C14.5185185,12.7254815 15.2164444,12.0275556 16.0740741,12.0275556 L17.4211852,12.0275556 L17.6980741,12.0275556 L18.7351111,12.0275556 L20.2554074,12.0275556 Z M26.2557037,21.0051852 L25.4395556,21.0051852 C25.4820741,20.8195556 25.5100741,20.6266667 25.5100741,20.4275556 L25.5100741,13.5831111 C25.5100741,12.153037 24.3465185,10.9905185 22.9174815,10.9905185 L19.4828148,10.9905185 C19.8115556,10.556 20.0137778,10.0219259 20.0137778,9.43496296 L20.0137778,2.59259259 C20.0137778,1.16251852 18.8512593,0 17.4211852,0 L10.5788148,0 C9.14874074,0 7.98622222,1.16251852 7.98622222,2.59259259 L7.98622222,9.43496296 C7.98622222,10.0219259 8.18844444,10.556 8.51718519,10.9905185 L5.08251852,10.9905185 C3.65348148,10.9905185 2.48992593,12.153037 2.48992593,13.5831111 L2.48992593,20.4275556 C2.48992593,20.6266667 2.51792593,20.8195556 2.56044444,21.0051852 L1.7442963,21.0051852 C0.874222222,21.0051852 0.15762963,21.6481481 0.026962963,22.5223704 C0.0155555556,22.5659259 0,22.6094815 0,22.6571852 L0,22.8054815 L0,25.8637037 C0,26.654963 0.644,27.2979259 1.43422222,27.2979259 L2.8082963,27.2979259 C3.59955556,27.2979259 4.24251852,26.654963 4.24251852,25.8637037 L4.24251852,24.5497778 L11.7931852,24.5497778 L11.7931852,25.8637037 C11.7931852,26.654963 12.4361481,27.2979259 13.2274074,27.2979259 L14.6014815,27.2979259 C15.3917037,27.2979259 16.0357037,26.654963 16.0357037,25.8637037 L16.0357037,24.5497778 L23.7574815,24.5497778 L23.7574815,25.8637037 C23.7574815,26.654963 24.4004444,27.2979259 25.1917037,27.2979259 L26.5657778,27.2979259 C27.356,27.2979259 28,26.654963 28,25.8637037 L28,22.7494815 L28,22.6571852 C28,22.624 27.9875556,22.596 27.9813333,22.5638519 C27.888,21.6906667 27.1548148,21.0051852 26.2557037,21.0051852 Z" id="Fill-1" fill="#04246A"></path>
                    <path d="M17.6984889,13.9326963 C17.6984889,14.7239556 18.3424889,15.3679556 19.1327111,15.3679556 L19.858637,15.3679556 C20.6488593,15.3679556 21.2928593,14.7239556 21.2928593,13.9326963 L21.2928593,12.0276593 L20.2558222,12.0276593 L20.2558222,13.9326963 C20.2558222,14.1525481 20.0774519,14.3309185 19.858637,14.3309185 L19.1327111,14.3309185 C18.9138963,14.3309185 18.7355259,14.1525481 18.7355259,13.9326963 L18.7355259,12.0276593 L17.6984889,12.0276593 L17.6984889,13.9326963 Z M13.6374519,4.37660741 L14.3623407,4.37660741 C15.1536,4.37660741 15.7976,3.73260741 15.7976,2.94134815 L15.7976,1.03631111 L14.760563,1.03631111 L14.760563,2.94134815 C14.760563,3.1612 14.5821926,3.33957037 14.3623407,3.33957037 L13.6374519,3.33957037 C13.418637,3.33957037 13.2402667,3.1612 13.2402667,2.94134815 L13.2402667,1.03631111 L12.2032296,1.03631111 L12.2032296,2.94134815 C12.2032296,3.73260741 12.8461926,4.37660741 13.6374519,4.37660741 M8.14188148,15.3677481 L8.86677037,15.3677481 C9.65802963,15.3677481 10.3020296,14.7237481 10.3020296,13.9324889 L10.3020296,12.0274519 L9.26499259,12.0274519 L9.26499259,13.9324889 C9.26499259,14.1523407 9.08662222,14.3307111 8.86677037,14.3307111 L8.14188148,14.3307111 C7.92306667,14.3307111 7.7446963,14.1523407 7.7446963,13.9324889 L7.7446963,12.0274519 L6.70765926,12.0274519 L6.70765926,13.9324889 C6.70765926,14.7237481 7.35062222,15.3677481 8.14188148,15.3677481" id="Fill-7" fill="#E20101"></path>
                </g>
            </g>
        </g>
    </g>
</svg>