<?xml version="1.0" encoding="UTF-8"?>
<svg width="35px" height="35px" viewBox="0 0 35 35" version="1.1" xmlns="http://www.w3.org/2000/svg" xmlns:xlink="http://www.w3.org/1999/xlink">
    <title>编组 11</title>
    <g id="页面-1" stroke="none" stroke-width="1" fill="none" fill-rule="evenodd">
        <g id="15check" transform="translate(-30.000000, -854.000000)">
            <g id="编组-11" transform="translate(30.000000, 854.000000)">
                <g id="编组-3" fill="#FFFFFF">
                    <rect id="矩形" x="0" y="0" width="35" height="35"></rect>
                </g>
                <g id="Profile" transform="translate(2.333333, 2.333333)" fill-rule="nonzero">
                    <path d="M4.73042733,24.7401233 C7.40339058,27.6293527 11.1946123,29.2868408 15.1334875,29.2868408 C18.1180431,29.2868408 20.9701449,28.3714307 23.3847145,26.6402764 C23.6192231,26.4701942 23.9460151,26.5243605 24.1153824,26.7594422 C24.2847497,26.9945238 24.231551,27.3216882 23.9970424,27.4896036 C21.4033343,29.3496737 18.3384378,30.3333333 15.1334875,30.3333333 C10.903648,30.3333333 6.83014746,28.5523461 3.95958902,25.4486182 C3.76416522,25.2362864 3.77719344,24.9047888 3.98998828,24.7108735 C4.20169739,24.5137082 4.53391781,24.5267082 4.73042733,24.7401233 Z M15.1335961,6.11873129 C17.2821722,6.11873129 18.8955042,6.76439335 19.9301646,8.03730092 C21.3860719,9.82912147 21.2199616,12.3088538 21.0918505,13.2459304 C21.4848695,13.5579281 21.611895,13.9295088 21.6455513,14.2133402 C21.7736624,15.3064157 20.6510613,16.478574 20.1440451,16.9476539 C20.0821609,19.1717214 19.1908113,20.5226284 18.8151633,20.997125 C18.9886506,22.776779 21.5791887,23.9115743 22.502304,24.2612154 L22.5716429,24.2871848 L21.3947574,24.9750966 C19.8921655,24.2958514 17.7197043,22.9449444 17.7197043,20.8086264 C17.7197043,20.6667107 17.7761601,20.531295 17.8749576,20.4294624 C17.9205566,20.3817961 19.0616144,19.1608881 19.0616144,16.7017391 C19.0616144,16.5435735 19.1310984,16.3929912 19.2516098,16.2900753 C19.8172531,15.8058288 20.6271762,14.8514189 20.5674633,14.3379226 C20.5609492,14.2848396 20.5435782,14.1385907 20.2515282,13.9890917 C20.033305,13.8785925 19.9171364,13.6348443 19.967078,13.3954293 C19.9725064,13.3672628 20.547921,10.5126999 19.0833281,8.71546276 C18.2647196,7.71121991 16.9369234,7.20205688 15.1335961,7.20205688 C13.2662131,7.20205688 11.9058463,7.72205319 11.0883235,8.74687921 C9.71558835,10.470514 10.2440369,13.1361721 10.2933724,13.3685345 L10.2968571,13.3845961 C10.3533128,13.6261777 10.2371442,13.8764259 10.0156639,13.9890917 C9.7236139,14.1385907 9.70624292,14.2848396 9.69972878,14.3379226 C9.63893028,14.8514189 10.4488534,15.8058288 11.0155823,16.2900753 C11.1360937,16.3929912 11.2055777,16.5435735 11.2055777,16.7017391 C11.2055777,19.1901379 12.3802919,20.4186291 12.3922345,20.4294624 C12.491032,20.531295 12.5474878,20.6667107 12.5474878,20.8086264 C12.5474878,23.9123542 7.89097297,25.3737604 7.69229213,25.4344267 C7.64017908,25.4506765 7.58589471,25.4582598 7.53378167,25.4582598 C7.30144453,25.4582598 7.08647832,25.3087609 7.01482291,25.0769292 C6.92688225,24.7898479 7.08756403,24.4876001 7.3741856,24.3998507 C8.47290161,24.0607698 11.2685476,22.8084454 11.4520288,20.997125 C11.0752952,20.5215451 10.1850312,19.1706381 10.123147,16.9476539 C9.61613082,16.478574 8.49352969,15.3064157 8.62164084,14.2133402 C8.65421148,13.9316755 8.78123691,13.5622615 9.16882747,13.2502637 C9.02225962,12.3153537 8.81272188,9.86703786 10.2349729,8.07846731 C11.2674619,6.77847658 12.915536,6.11873129 15.1335961,6.11873129 Z M21.9691948,1.61675512 C27.128383,4.21348655 30.3333333,9.40478283 30.3333333,15.1669917 C30.3333333,18.5556341 29.2378744,21.7601113 27.1652964,24.4348421 C27.0621561,24.5691745 26.9079884,24.637424 26.7505637,24.637424 C26.6387379,24.637424 26.5258263,24.6016743 26.4313715,24.5280082 C26.2012057,24.3514261 26.1599496,24.0242617 26.3369167,23.79568 C28.2650981,21.3051145 29.2845589,18.3216358 29.2845589,15.1669917 C29.2845589,9.8023633 26.301089,4.96856452 21.4969206,2.55058178 C21.2385269,2.42058271 21.1353866,2.10641829 21.2656691,1.84858679 C21.394866,1.5907553 21.7097154,1.48675604 21.9691948,1.61675512 Z M9.26447654,5.3634367 C9.42081557,5.59851836 9.3556743,5.91593275 9.12008007,6.07193161 C6.04866941,8.09666715 4.21602843,11.4972262 4.21602843,15.1653667 C4.21602843,16.2530256 4.37562455,17.3276846 4.69155971,18.3568439 C4.77515767,18.626592 4.62316135,18.9125899 4.35173944,18.9949226 C4.30179777,19.0111725 4.25185616,19.0176725 4.20191449,19.0176725 C3.98260558,19.0176725 3.77958198,18.8757568 3.71226933,18.6569251 C3.36593492,17.5291831 3.1911392,16.3548582 3.1911392,15.1653667 C3.1911392,11.1527287 5.19640453,7.43475525 8.55443675,5.2193544 C8.79003098,5.06118887 9.10922323,5.12727172 9.26447654,5.3634367 Z M15.1319675,3.2504101 C21.1933623,3.2504101 26.2928377,7.77546115 26.9931063,13.773835 C27.0267627,14.053333 26.823739,14.3079145 26.5436316,14.3404142 C26.5230035,14.3425809 26.5034612,14.3436642 26.4839188,14.3436642 C26.2276965,14.3436642 26.0062162,14.1519156 25.9758169,13.8908341 C25.3352611,8.40812326 20.6733179,4.27198617 15.1319675,4.27198617 C13.9138258,4.27198617 12.7195693,4.47131804 11.5806829,4.86131528 C11.3136037,4.95339796 11.0226393,4.81148233 10.9303559,4.54498422 C10.8380724,4.27740278 10.9802975,3.98598818 11.2484624,3.89498883 C12.4926605,3.46707525 13.7998286,3.2504101 15.1319675,3.2504101 Z M15.1334875,1.77635684e-15 C15.962953,1.77635684e-15 16.7935041,0.0682495125 17.6012557,0.199331909 C17.8867917,0.245914912 18.0800441,0.515662983 18.0344452,0.800577613 C17.9866749,1.08440892 17.7174243,1.28157418 17.4318885,1.23065788 C16.6795068,1.10932541 15.9064972,1.04649253 15.1334875,1.04649253 C9.87115886,1.04649253 5.07350464,3.93247189 2.61225048,8.5788554 C2.51888133,8.75652077 2.33648579,8.8583534 2.14866181,8.8583534 C2.06614953,8.8583534 1.98255158,8.83885351 1.90438206,8.79768717 C1.64815974,8.66335481 1.55044784,8.34594036 1.68615882,8.09135887 C4.32872283,3.10047785 9.48139698,1.77635684e-15 15.1334875,1.77635684e-15 Z" id="Fill-14" fill="#04246A"></path>
                    <path d="M15.228138,27.0833333 C15.0551664,27.0833333 14.8821948,27.0789298 14.710311,27.0723245 C14.4274644,27.0591139 14.2077143,26.8180204 14.2196809,26.53069 C14.2316475,26.2444603 14.4720671,26.0407969 14.7538259,26.0330907 C14.9115673,26.0407969 15.0693087,26.0452005 15.228138,26.0452005 C20.6555304,26.0452005 25.3127094,21.9499147 26.0611653,16.5192577 C26.1003286,16.2352298 26.3614179,16.0392726 26.6410009,16.0767026 C26.9227597,16.1163344 27.1174888,16.3794455 27.0783254,16.6634734 C26.2591579,22.6038394 21.1646543,27.0833333 15.228138,27.0833333 M2.99382315,23.7633997 C2.82411515,23.7633997 2.65767077,23.6808335 2.5564987,23.5267098 C0.884439763,20.9924766 0,18.0355042 0,14.9772505 L0.0032636175,14.6029502 C0.00979084708,14.3101153 0.243683277,14.0998466 0.540672275,14.0833333 C0.83004617,14.0888377 1.06067499,14.332133 1.05414776,14.6260688 L1.04979627,14.9772505 C1.04979627,17.8241346 1.87331521,20.5774436 3.43005975,22.9377373 C3.59106475,23.1810325 3.52579245,23.5112974 3.28537278,23.6742282 C3.19507943,23.7347768 3.09390735,23.7633997 2.99382315,23.7633997" id="Fill-18" fill="#E20101"></path>
                </g>
            </g>
        </g>
    </g>
</svg>