<?xml version="1.0" encoding="UTF-8"?>
<svg width="35px" height="35px" viewBox="0 0 35 35" version="1.1" xmlns="http://www.w3.org/2000/svg" xmlns:xlink="http://www.w3.org/1999/xlink">
    <title>编组 3备份 2</title>
    <g id="页面-1" stroke="none" stroke-width="1" fill="none" fill-rule="evenodd">
        <g id="15check" transform="translate(-30.000000, -1028.000000)">
            <g id="编组-3备份-2" transform="translate(30.000000, 1028.000000)">
                <rect id="矩形" fill="#FFFFFF" x="0" y="0" width="35" height="35"></rect>
                <g id="Credit-Card" transform="translate(2.333333, 7.000000)" fill-rule="nonzero">
                    <path d="M22.9162163,13.5834199 C23.0474755,13.5834199 23.1754255,13.6070467 23.2978605,13.6498 C23.0871841,14.0154531 22.959234,14.4384856 22.959234,14.8952708 C22.959234,15.3498057 23.0860811,15.7705881 23.2945515,16.1362412 C23.1721165,16.1789945 23.0463724,16.2082468 22.9162163,16.2082468 C22.2378603,16.2082468 21.6863513,15.6198265 21.6863513,14.8952708 C21.6863513,14.1718402 22.2378603,13.5834199 22.9162163,13.5834199 M25.292117,13.5834199 C25.970473,13.5834199 26.521982,14.1718402 26.521982,14.8952708 C26.521982,15.6198265 25.970473,16.2082468 25.292117,16.2082468 C24.613761,16.2082468 24.062252,15.6198265 24.062252,14.8952708 C24.062252,14.1718402 24.613761,13.5834199 25.292117,13.5834199 M22.9162163,17.3333333 C23.3408782,17.3333333 23.7545099,17.2129491 24.1140938,16.9879318 C24.4615445,17.2028233 24.860837,17.3333333 25.292117,17.3333333 C26.5782359,17.3333333 27.625,16.2397492 27.625,14.8952708 C27.625,13.5519174 26.5782359,12.4583333 25.292117,12.4583333 C24.8509098,12.4583333 24.4427932,12.5944688 24.0898274,12.8172359 C23.7324496,12.596719 23.3364662,12.4583333 22.9162163,12.4583333 C21.6289943,12.4583333 20.5833333,13.5519174 20.5833333,14.8952708 C20.5833333,16.2397492 21.6289943,17.3333333 22.9162163,17.3333333" id="Fill-5" fill="#E20101"></path>
                    <path d="M1.08333333,19.5 L29.25,19.5 L29.25,8.54858333 L1.08333333,8.54858333 L1.08333333,19.5 Z M1.08333333,3.13191667 L29.25,3.13191667 L29.25,1.08333333 L1.08333333,1.08333333 L1.08333333,3.13191667 Z M1.08333333,7.46525 L29.25,7.46525 L29.25,4.21525 L1.08333333,4.21525 L1.08333333,7.46525 Z M29.25,0 C29.8458333,0 30.3333333,0.4875 30.3333333,1.08333333 L30.3333333,1.08333333 L30.3333333,19.5 C30.3333333,20.0958333 29.8458333,20.5833333 29.25,20.5833333 L29.25,20.5833333 L1.08333333,20.5833333 C0.4875,20.5833333 0,20.0958333 0,19.5 L0,19.5 L0,1.08333333 C0,0.4875 0.4875,0 1.08333333,0 L1.08333333,0 L29.25,0 Z M11.0835833,14.9879167 L4.08308333,14.9879167 C3.78408333,14.9879167 3.54141667,15.2305833 3.54141667,15.5295833 C3.54141667,15.8285833 3.78408333,16.07125 4.08308333,16.07125 L11.0835833,16.07125 C11.3825833,16.07125 11.62525,15.8285833 11.62525,15.5295833 C11.62525,15.2305833 11.3825833,14.9879167 11.0835833,14.9879167 Z M11.0835833,12.8814833 L4.08308333,12.8814833 C3.78408333,12.8814833 3.54141667,13.12415 3.54141667,13.42315 C3.54141667,13.72215 3.78408333,13.9648167 4.08308333,13.9648167 L11.0835833,13.9648167 C11.3825833,13.9648167 11.62525,13.72215 11.62525,13.42315 C11.62525,13.12415 11.3825833,12.8814833 11.0835833,12.8814833 Z" id="Fill-7" fill="#04246A"></path>
                </g>
            </g>
        </g>
    </g>
</svg>