<?xml version="1.0" encoding="UTF-8"?>
<svg width="35px" height="35px" viewBox="0 0 35 35" version="1.1" xmlns="http://www.w3.org/2000/svg" xmlns:xlink="http://www.w3.org/1999/xlink">
    <title>办事处</title>
    <g id="页面-1" stroke="none" stroke-width="1" fill="none" fill-rule="evenodd">
        <g id="15check" transform="translate(-30.000000, -1189.000000)">
            <g id="办事处" transform="translate(30.000000, 1189.000000)">
                <g id="编组-3" fill="#FFFFFF">
                    <rect id="矩形" x="0" y="0" width="35" height="35"></rect>
                </g>
                <g id="Bank" transform="translate(5.000000, 5.000000)" fill-rule="nonzero">
                    <path d="M25.4090732,10.6363415 C25.7356978,10.6363415 26,10.3736456 26,10.0470763 L26,7.68370076 C26,7.47540549 25.8903681,7.28212307 25.7108797,7.17592573 L14.1517725,0.311378306 C14.1465652,0.307888247 14.1413577,0.305007571 14.1362058,0.302126895 C13.4177536,-0.0960161917 12.607563,-0.108092886 11.8475627,0.310214953 L0.289120328,7.17592573 C0.10963195,7.28206768 0,7.47540549 0,7.68370076 L0,10.0470763 C0,10.3736456 0.264302186,10.6363415 0.590926723,10.6363415 L2.36365148,10.6363415 L2.36365148,21.2731934 C1.06003401,21.2731934 0,22.3331171 0,23.636569 L0,25.4091284 C0,25.7356977 0.264302186,26 0.590926723,26 L25.4090732,26 C25.7356978,26 26,25.7357531 26,25.4091284 L26,23.636569 C26,22.3331171 24.939966,21.2731934 23.6363485,21.2731934 L23.6363485,10.6363415 L25.4090732,10.6363415 Z M24.8181466,23.6363475 L24.8181466,24.818146 L1.18179804,24.818146 L1.18179804,23.6363475 C1.18179804,22.9848708 1.71211973,22.4545489 2.36359607,22.4545489 L2.9545228,22.4545489 L23.0454218,22.4545489 L23.6363485,22.4545489 C24.2878248,22.4544935 24.8181466,22.9848154 24.8181466,23.6363475 Z M3.54544951,21.2726949 L3.54544951,10.6363415 L5.90910094,10.6363415 L5.90910094,21.2726949 L3.54544951,21.2726949 Z M7.09089906,21.2726949 L7.09089906,10.6363415 L10.6363485,10.6363415 L10.6363485,21.2726949 L7.09089906,21.2726949 Z M11.8181466,21.2726949 L11.8181466,10.6363415 L14.181798,10.6363415 L14.181798,21.2726949 L11.8181466,21.2726949 Z M15.3635961,21.2726949 L15.3635961,10.6363415 L18.9090455,10.6363415 L18.9090455,21.2726949 L15.3635961,21.2726949 Z M20.0908991,21.2726949 L20.0908991,10.6363415 L22.4545505,10.6363415 L22.4545505,21.2726949 L20.0908991,21.2726949 Z M1.18179804,9.4545429 L1.18179804,8.01824739 L12.4338914,1.33357618 C12.8020641,1.13104229 13.1932824,1.13159627 13.5568571,1.32953216 L24.8181466,8.01824739 L24.8181466,9.4545429 L1.18179804,9.4545429 Z" id="Shape" fill="#04246A"></path>
                    <path d="M13.0000199,3.39130435 C12.0648739,3.39130435 11.3043478,4.15183042 11.3043478,5.08697638 C11.3043478,6.02212237 12.0648739,6.7826087 13.0000199,6.7826087 C13.9351659,6.7826087 14.6956522,6.02208258 14.6956522,5.08697638 C14.6956522,4.15187014 13.9351261,3.39130435 13.0000199,3.39130435 Z M13.0005694,5.65165752 C12.6890037,5.65165752 12.435352,5.39800583 12.435352,5.08644013 C12.435352,4.77487443 12.6890037,4.52122274 13.0005694,4.52122274 C13.3121351,4.52122274 13.5657868,4.77487443 13.5657868,5.08644013 C13.5657868,5.39800583 13.3121351,5.65165752 13.0005694,5.65165752 Z" id="Shape" fill="#E20101"></path>
                </g>
            </g>
        </g>
    </g>
</svg>