<?xml version="1.0" encoding="UTF-8"?>
<svg width="32px" height="32px" viewBox="0 0 32 32" version="1.1" xmlns="http://www.w3.org/2000/svg" xmlns:xlink="http://www.w3.org/1999/xlink">
    <title>Components / 02 Icon / 32 / Barge-Train-Truck</title>
    <g id="Components-/-02-Icon-/-32-/-Barge-Train-Truck" stroke="none" stroke-width="1" fill="none" fill-rule="evenodd">
        <path d="M23.206,18.667 C23.437,18.667 23.623,18.826 23.68,19.039 L23.697125,19.1015 L23.697125,19.1015 L23.706,19.167 L23.706,22.81 C23.706,23.2882143 23.3438571,23.6845153 22.878984,23.7386899 L22.77,23.745 L22.412,23.745 C22.436,23.635 22.451,23.521 22.451,23.402 C22.451,23.2265 22.420625,23.05775 22.3670469,22.8995469 L22.306,22.745 L22.77,22.745 L22.757,21.99 L22.706,19.167 C22.706,19.121 22.721,19.081 22.732,19.039 C22.789,18.826 22.975,18.667 23.206,18.667 Z M18.0643,13.9612 C18.5434429,13.9612 18.9398102,14.3233429 18.9939895,14.7874154 L19.0003,14.8962 L19.0003,16.4712 L22.7703,16.4712 C23.0473,16.4712 23.2953,16.5932 23.4663,16.7842 C23.5193,16.8442 23.5673,16.9092 23.6033,16.9812 C23.65205,17.0442 23.6856125,17.1190125 23.6993469,17.200575 L23.7063,17.2842 L23.7063,17.4062 C23.7063,17.5602 23.6333,17.6922 23.5233,17.7842 C23.4363,17.8572 23.3283,17.9062 23.2063,17.9062 C23.0833,17.9062 22.9753,17.8572 22.8883,17.7842 C22.8011,17.7106 22.73694,17.6114 22.714764,17.495816 L22.7063,17.4062 L21.4493,17.4262 L19.4413,17.4562 L19.0003,17.4632 L19.0003,22.7452 L19.4003,22.7452 C19.3093,22.9462 19.2553,23.1682 19.2553,23.4022 C19.2553,23.4808667 19.2619667,23.5582 19.2735222,23.6336074 L19.2943,23.7452 L13.0003,23.7452 C13.0253,23.6352 13.0393,23.5202 13.0393,23.4022 C13.0393,23.2267 13.0094875,23.05795 12.9557688,22.8997469 L12.8943,22.7452 L18.0003,22.7452 L18.0003,21.2352 L9.5243,21.2352 L9.5883,22.8092 L9.9853,22.7522 C9.8953,22.9512 9.8433,23.1702 9.8433,23.4022 C9.8433,23.4808667 9.84996667,23.5582 9.86152222,23.6336074 L9.8823,23.7452 L9.5243,23.7452 C9.04515714,23.7452 8.6487898,23.3830571 8.5946105,22.918184 L8.5883,22.8092 L8.5883,21.1712 C8.5883,20.6920571 8.95044286,20.2956898 9.41531603,20.2415105 L9.5243,20.2352 L18.0003,20.2352 L18.0003,16.9712 C18.0003,16.9152 18.0153,16.8642 18.0313,16.8142 L18.0098,16.737575 L18.0098,16.737575 L18.0003,16.6572 L18.0003,14.8962 L14.8373,14.9212 L13.7803,14.9292 L9.5243,14.9612 L9.5263,15.1062 L9.5423,16.2162 L9.5453,16.3982 L9.5603,17.5142 L9.5883,19.4802 C9.5883,19.6012 9.5403,19.7082 9.4683,19.7942 C9.3773,19.9052 9.2443,19.9802 9.0883,19.9802 C8.9323,19.9802 8.7993,19.9052 8.7083,19.7942 C8.6543,19.7297 8.6138,19.6533875 8.596925,19.5682156 L8.5883,19.4802 L8.5883,14.8962 C8.5883,14.4179857 8.95044286,14.0216847 9.41531603,13.9675101 L9.5243,13.9612 L18.0643,13.9612 Z M26.657,8 C26.934,8 27.157,8.224 27.157,8.5 C27.157,8.74533333 26.9808025,8.94958025 26.7471015,8.99193964 L26.657,9 L23.833,9 C23.2481667,9 22.7364375,9.30165972 22.4326071,9.75554977 L22.355,9.883 L28.763,9.883 C28.688,9.749 28.603,9.621 28.493,9.509 C28.299,9.312 28.302,8.995 28.499,8.802 C28.695,8.609 29.012,8.61 29.207,8.81 C29.694,9.307 29.964,9.959 29.976,10.649 L29.978,10.6605 L29.978,10.6605 L29.98,10.672 L29.98,16.657 C29.98,17.2179333 29.5662222,17.6743333 29.0297339,17.7595239 L28.913,17.772 L29.5,18.581 C29.663,18.805 29.614,19.117 29.39,19.279 C29.301,19.344 29.199,19.375 29.097,19.375 C28.973,19.375 28.85092,19.32956 28.756872,19.242264 L28.692,19.169 L28.59,19.029 L28.54,19.039 L24.147,19.039 L24.147,18.039 L27.87,18.039 L27.685,17.784 L24.147,17.784 L24.147,16.784 L28.853,16.784 C28.9082,16.784 28.95636,16.74688 28.973416,16.696704 L28.98,16.657 L28.98,14.02 L22.138,14.02 L22.138,16.029 L21.138,16.029 L21.138,10.672 C21.138,10.663 21.142,10.656 21.143,10.647 C21.168,9.24123077 22.2738062,8.09156361 23.6647669,8.00520721 L23.833,8 L26.657,8 Z M12.8289,8.0005 C13.4639,8.0005 13.9809,8.4625 13.9809,9.0315 L13.9809,9.0315 L13.9809,11.0095 C13.9809,11.2865 13.7569,11.5095 13.4809,11.5095 C13.2039,11.5095 12.9809,11.2865 12.9809,11.0095 L12.9809,11.0095 L12.9809,9.0315 C12.9749,9.0425 12.9219,9.0005 12.8289,9.0005 L12.8289,9.0005 L5.6619,9.0005 C5.5679,9.0005 5.5139,9.0415 5.5049,9.0555 L5.5049,9.0555 L5.5099,11.5195 L8.2999,10.7295 C8.3729,10.7085 9.0939,10.5055 9.8539,10.7315 C10.4899,10.9225 13.8589,11.8495 13.8599,11.8495 C15.2069,12.3345 15.3619,13.0405 15.2799,13.5195 L15.2799,13.5195 L14.2449,13.5195 L14.2809,13.4085 C14.3489,13.2045 14.1059,13.0005 13.5579,12.8025 C13.5529,12.8025 10.2019,11.8805 9.5669,11.6895 C9.0879,11.5465 8.5849,11.6885 8.5789,11.6905 L8.5789,11.6905 L4.6089,12.8135 C4.0939,13.0005 3.8509,13.2045 3.9189,13.4085 C3.9839,13.6055 4.0629,13.8935 4.1529,14.2275 C4.2679,14.6515 4.4109,15.1505 4.5669,15.6235 C4.5909,15.6095 4.6209,15.6095 4.6439,15.5925 C5.8909,14.6595 6.5759,15.2225 7.1239,15.6715 C7.3699,15.8745 7.8979,15.5515 8.0259,15.4555 C8.0639,15.4255 8.1069,15.4005 8.1479,15.3745 L8.1479,15.3745 L8.1479,16.5425 C7.6239,16.7865 6.9919,16.8565 6.4899,16.4455 C5.9689,16.0195 5.8609,15.9295 5.2419,16.3935 C4.4239,17.0035 3.3959,16.8145 2.1839,15.8295 C1.9699,15.6545 1.9379,15.3395 2.1119,15.1265 C2.2869,14.9125 2.6029,14.8805 2.8159,15.0535 C3.0549,15.2485 3.2709,15.3875 3.4759,15.4995 C3.3689,15.1455 3.2719,14.7965 3.1879,14.4895 C3.1039,14.1775 3.0309,13.9095 2.9699,13.7245 C2.8169,13.2635 2.7859,12.4085 4.3029,11.8615 L4.3029,11.8615 L4.5419,11.7935 C4.5249,11.7445 4.5099,11.6935 4.5099,11.6375 L4.5099,11.6375 L4.5099,9.0315 C4.5099,8.4625 5.0269,8.0005 5.6619,8.0005 L5.6619,8.0005 Z M28.981,10.883 L26.216,10.883 L26.216,13.02 L28.981,13.02 L28.981,10.883 Z M25.216,10.883 L22.138,10.883 L22.138,13.02 L25.216,13.02 L25.216,10.883 Z" id="Fill-11" fill="#04246A"></path>
        <path d="M20.853,24 C20.523,24 20.255,23.731 20.255,23.402 C20.255,23.072 20.523,22.804 20.853,22.804 C21.183,22.804 21.451,23.072 21.451,23.402 C21.451,23.731 21.183,24 20.853,24 M20.853,21.804 C21.119,21.804 21.366,21.875 21.586,21.99 C21.903,22.155 22.158,22.419 22.306,22.745 C22.397,22.946 22.451,23.168 22.451,23.402 C22.451,23.521 22.436,23.635 22.412,23.745 C22.254,24.461 21.616,25 20.853,25 C20.09,25 19.452,24.461 19.294,23.745 C19.27,23.635 19.255,23.521 19.255,23.402 C19.255,23.168 19.309,22.946 19.4,22.745 C19.548,22.419 19.804,22.155 20.12,21.99 C20.341,21.875 20.587,21.804 20.853,21.804 Z M11.4414,21.804 C12.0874,21.804 12.6434,22.191 12.8944,22.745 C12.9854,22.946 13.0394,23.168 13.0394,23.402 C13.0394,23.521 13.0244,23.635 13.0004,23.745 C12.8424,24.461 12.2044,25 11.4414,25 C10.6784,25 10.0404,24.461 9.8824,23.745 C9.8584,23.635 9.8434,23.521 9.8434,23.402 C9.8434,23.17 9.8954,22.951 9.9844,22.752 C10.2344,22.194 10.7924,21.804 11.4414,21.804 Z M11.4414,22.804 C11.1114,22.804 10.8434,23.072 10.8434,23.402 C10.8434,23.731 11.1114,24 11.4414,24 C11.7714,24 12.0394,23.731 12.0394,23.402 C12.0394,23.072 11.7714,22.804 11.4414,22.804 Z M5.6805,17.387 C6.3155,17.299 6.7455,17.647 7.1245,17.958 C7.3695,18.16 7.8975,17.839 8.0255,17.742 C8.0635,17.713 8.1065,17.687 8.1475,17.661 L8.1475,17.661 L8.1475,18.823 C7.8905,18.943 7.6105,19.026 7.3295,19.026 C7.0365,19.026 6.7465,18.941 6.4905,18.731 C6.1335,18.438 5.9925,18.35 5.8255,18.377 C5.5535,18.411 5.2975,18.228 5.2585,17.954 C5.2185,17.681 5.4075,17.427 5.6805,17.387 Z M27.2847,15.0879 C27.6317,15.0879 27.9117,15.3689 27.9117,15.7159 C27.9117,16.0629 27.6317,16.3429 27.2847,16.3429 C26.9377,16.3429 26.6577,16.0629 26.6577,15.7159 C26.6577,15.3689 26.9377,15.0879 27.2847,15.0879 Z M23.8335,15.0879 C24.1805,15.0879 24.4605,15.3689 24.4605,15.7159 C24.4605,15.9449 24.3315,16.1379 24.1475,16.2469 C24.0535,16.3029 23.9505,16.3429 23.8335,16.3429 C23.6045,16.3429 23.4115,16.2139 23.3025,16.0289 C23.2465,15.9359 23.2065,15.8319 23.2065,15.7159 C23.2065,15.3689 23.4865,15.0879 23.8335,15.0879 Z" id="Fill-10" fill="#E20101"></path>
    </g>
</svg>