<?xml version="1.0" encoding="UTF-8"?>
<svg width="20px" height="20px" viewBox="0 0 20 20" version="1.1" xmlns="http://www.w3.org/2000/svg" xmlns:xlink="http://www.w3.org/1999/xlink">
    <title>加号</title>
    <g id="页面-1" stroke="none" stroke-width="1" fill="none" fill-rule="evenodd">
        <g id="9Parties-details" transform="translate(-50.000000, -996.000000)" fill="#2D75FF" fill-rule="nonzero">
            <g id="编组-8备份" transform="translate(40.000000, 984.000000)">
                <g id="加号" transform="translate(10.000000, 12.000000)">
                    <rect id="矩形" opacity="0" x="0" y="0" width="20" height="20"></rect>
                    <path d="M10,18.7112619 C7.66311652,18.7112619 5.46623438,17.8056377 3.81373471,16.1612687 C2.16059668,14.5156565 1.25,12.3281481 1.25,10.0000336 C1.25,7.67252385 2.16063029,5.4844107 3.81312996,3.8394033 C5.46562963,2.19503426 7.66251176,1.28941002 9.99939525,1.28941002 C12.3362788,1.28941002 14.5331609,2.19503426 16.1850222,3.8394033 C17.838765,5.48441068 18.7487572,7.67252385 18.7487572,9.99939523 C18.7493953,12.3275097 17.838765,14.5156565 16.1850222,16.1606303 C14.5337656,17.8049993 12.3368835,18.7112619 10,18.7112619 Z M10,2.53873807 C7.9956323,2.53873807 6.11188012,3.31497781 4.69563902,4.72500336 C3.28000268,6.13375219 2.5,8.00749227 2.5,10 C2.5,11.9925077 3.27936434,13.8662478 4.69500066,15.2743583 C6.11124176,16.6843502 7.99499395,17.4606236 9.99936164,17.4606236 C12.0031246,17.4606236 13.8874815,16.6843838 15.3037226,15.2743583 C16.719359,13.8649711 17.4993616,11.9918694 17.4987237,9.99936164 C17.4987237,8.00685391 16.7193589,6.13375219 15.3037226,4.72560811 C13.8881199,3.31561617 12.0037629,2.53873807 10,2.53873807 Z M14.3750168,9.3750168 L10.6250168,9.3750168 L10.6250168,5.6250168 C10.6250168,5.2800027 10.3450141,5 10,5 C9.6549859,5 9.3749832,5.2800027 9.3749832,5.6250168 L9.3749832,9.3750168 L5.6250168,9.3750168 C5.2800027,9.3750168 5,9.65501949 5,10.0000336 C5,10.3450477 5.2800027,10.6250504 5.6250168,10.6250504 L9.3750168,10.6250504 L9.3750168,14.3750504 C9.3750168,14.7206693 9.65501949,15.0000672 10.0000336,15.0000672 C10.3450477,15.0000672 10.6250504,14.7207029 10.6250504,14.3750504 L10.6250504,10.6250168 L14.3750504,10.6250168 C14.7206693,10.6250168 15.0000672,10.3450141 15.0000672,10 C15.0000672,9.6549859 14.7206357,9.3750168 14.3750168,9.3750168 Z" id="形状"></path>
                </g>
            </g>
        </g>
    </g>
</svg>