<?xml version="1.0" encoding="UTF-8"?>
<svg width="35px" height="35px" viewBox="0 0 35 35" version="1.1" xmlns="http://www.w3.org/2000/svg" xmlns:xlink="http://www.w3.org/1999/xlink">
    <title>编组</title>
    <g id="页面-1" stroke="none" stroke-width="1" fill="none" fill-rule="evenodd">
        <g id="15check" transform="translate(-309.000000, -132.000000)">
            <g id="编组" transform="translate(309.000000, 132.000000)">
                <g id="编组-5" fill="#F7FAFF">
                    <circle id="椭圆形" cx="17.5" cy="17.5" r="17.5"></circle>
                </g>
                <g id="加号" transform="translate(8.000000, 8.000000)" fill="#000000" fill-rule="nonzero">
                    <rect id="矩形" opacity="0" x="0" y="0" width="18.587087" height="18.587087"></rect>
                    <path d="M15.4644564,9.1448468 L9.66528524,9.1448468 L9.66528524,3.42002401 C9.66528524,3.19697896 9.51658854,3.04828227 9.2935435,3.04828227 C9.07049846,3.04828227 8.92180176,3.19697896 8.92180176,3.42002401 L8.92180176,9.21919515 L3.12263062,9.21919515 C2.89958557,9.21919515 2.75088888,9.36789185 2.75088888,9.59093689 C2.75088888,9.81398194 2.89958557,9.96267863 3.12263062,9.96267863 L8.92180176,9.96267863 L8.92180176,15.7618498 C8.92180176,15.9848948 9.07049846,16.1335915 9.2935435,16.1335915 C9.51658854,16.1335915 9.66528524,15.9848948 9.66528524,15.7618498 L9.66528524,9.96267863 L15.4644564,9.96267863 C15.6875014,9.96267863 15.8361981,9.81398194 15.8361981,9.59093689 C15.8361981,9.36789185 15.6875014,9.1448468 15.4644564,9.1448468 Z" id="路径"></path>
                </g>
            </g>
        </g>
    </g>
</svg>