<?xml version="1.0" encoding="UTF-8"?>
<svg width="32px" height="32px" viewBox="0 0 32 32" version="1.1" xmlns="http://www.w3.org/2000/svg" xmlns:xlink="http://www.w3.org/1999/xlink">
    <title>Components / 02 Icon / 32 / Commodity</title>
    <g id="Components-/-02-Icon-/-32-/-Commodity" stroke="none" stroke-width="1" fill="none" fill-rule="evenodd">
        <path d="M29,27.9404 C29,28.1514 28.828,28.3234 28.617,28.3234 L27.292,28.3234 C27.081,28.3234 26.909,28.1514 26.909,27.9404 L26.909,26.6734 L28.318,26.6734 C28.561,26.6734 28.791,26.6194 29,26.5254 L29,27.9404 Z M17.963,25.6734 L14.872,25.6734 L6.591,25.6734 L4.682,25.6734 C4.306,25.6734 4,25.3674 4,24.9374 C4,24.5614 4.306,24.2554 4.682,24.2554 L5.961,24.2554 C6.42,24.8264 7.115,25.1984 7.901,25.1984 L14.5,25.1984 C15.321,25.1984 16.044,24.7954 16.5,24.1824 C16.956,24.7954 17.679,25.1984 18.5,25.1984 L25.099,25.1984 C25.885,25.1984 26.58,24.8264 27.039,24.2554 L28.318,24.2554 C28.694,24.2554 29,24.5614 29,24.9914 C29,25.3674 28.694,25.6734 28.318,25.6734 L26.409,25.6734 L17.963,25.6734 Z M17.463,27.9404 C17.463,28.1514 17.291,28.3234 17.08,28.3234 L15.755,28.3234 C15.543,28.3234 15.372,28.1514 15.372,27.9404 L15.372,26.6734 L17.463,26.6734 L17.463,27.9404 Z M6.091,27.9404 C6.091,28.1514 5.919,28.3234 5.708,28.3234 L4.383,28.3234 C4.172,28.3234 4,28.1514 4,27.9404 L4,26.5264 C4.209,26.6194 4.439,26.6734 4.682,26.6734 L6.091,26.6734 L6.091,27.9404 Z M6.401,16.0984 C6.401,15.2714 7.074,14.5984 7.901,14.5984 L9.468,14.5984 L10.468,14.5984 L11.934,14.5984 L12.934,14.5984 L13.201,14.5984 L14.5,14.5984 C15.327,14.5984 16,15.2714 16,16.0984 L16,22.6984 C16,23.5254 15.327,24.1984 14.5,24.1984 L7.901,24.1984 C7.074,24.1984 6.401,23.5254 6.401,22.6984 L6.401,16.0984 Z M11.701,12.0984 L11.701,5.5004 C11.701,4.6724 12.374,4.0004 13.201,4.0004 L14.767,4.0004 L15.767,4.0004 L17.233,4.0004 L18.233,4.0004 L19.799,4.0004 C20.626,4.0004 21.299,4.6724 21.299,5.5004 L21.299,12.0984 C21.299,12.9254 20.626,13.5984 19.799,13.5984 L18.5,13.5984 L14.5,13.5984 L13.201,13.5984 C12.374,13.5984 11.701,12.9254 11.701,12.0984 L11.701,12.0984 Z M22.532,14.5984 L23.532,14.5984 L25.099,14.5984 C25.926,14.5984 26.599,15.2714 26.599,16.0984 L26.599,22.6984 C26.599,23.5254 25.926,24.1984 25.099,24.1984 L18.5,24.1984 C17.673,24.1984 17,23.5254 17,22.6984 L17,16.0984 C17,15.2714 17.673,14.5984 18.5,14.5984 L19.799,14.5984 L20.066,14.5984 L21.066,14.5984 L22.532,14.5984 Z M28.318,23.2554 L27.531,23.2554 C27.572,23.0764 27.599,22.8904 27.599,22.6984 L27.599,16.0984 C27.599,14.7194 26.477,13.5984 25.099,13.5984 L21.787,13.5984 C22.104,13.1794 22.299,12.6644 22.299,12.0984 L22.299,5.5004 C22.299,4.1214 21.178,3.0004 19.799,3.0004 L13.201,3.0004 C11.822,3.0004 10.701,4.1214 10.701,5.5004 L10.701,12.0984 C10.701,12.6644 10.896,13.1794 11.213,13.5984 L7.901,13.5984 C6.523,13.5984 5.401,14.7194 5.401,16.0984 L5.401,22.6984 C5.401,22.8904 5.428,23.0764 5.469,23.2554 L4.682,23.2554 C3.843,23.2554 3.152,23.8754 3.026,24.7184 C3.015,24.7604 3,24.8024 3,24.8484 L3,24.9914 L3,27.9404 C3,28.7034 3.621,29.3234 4.383,29.3234 L5.708,29.3234 C6.471,29.3234 7.091,28.7034 7.091,27.9404 L7.091,26.6734 L14.372,26.6734 L14.372,27.9404 C14.372,28.7034 14.992,29.3234 15.755,29.3234 L17.08,29.3234 C17.842,29.3234 18.463,28.7034 18.463,27.9404 L18.463,26.6734 L25.909,26.6734 L25.909,27.9404 C25.909,28.7034 26.529,29.3234 27.292,29.3234 L28.617,29.3234 C29.379,29.3234 30,28.7034 30,27.9404 L30,24.9374 L30,24.8484 C30,24.8164 29.988,24.7894 29.982,24.7584 C29.892,23.9164 29.185,23.2554 28.318,23.2554 Z" id="Fill-1" fill="#04246A"></path>
        <path d="M20.0664,16.4355 C20.0664,17.1985 20.6874,17.8195 21.4494,17.8195 L22.1494,17.8195 C22.9114,17.8195 23.5324,17.1985 23.5324,16.4355 L23.5324,14.5985 L22.5324,14.5985 L22.5324,16.4355 C22.5324,16.6475 22.3604,16.8195 22.1494,16.8195 L21.4494,16.8195 C21.2384,16.8195 21.0664,16.6475 21.0664,16.4355 L21.0664,14.5985 L20.0664,14.5985 L20.0664,16.4355 Z M16.1504,7.2207 L16.8494,7.2207 C17.6124,7.2207 18.2334,6.5997 18.2334,5.8367 L18.2334,3.9997 L17.2334,3.9997 L17.2334,5.8367 C17.2334,6.0487 17.0614,6.2207 16.8494,6.2207 L16.1504,6.2207 C15.9394,6.2207 15.7674,6.0487 15.7674,5.8367 L15.7674,3.9997 L14.7674,3.9997 L14.7674,5.8367 C14.7674,6.5997 15.3874,7.2207 16.1504,7.2207 M10.8511,17.8193 L11.5501,17.8193 C12.3131,17.8193 12.9341,17.1983 12.9341,16.4353 L12.9341,14.5983 L11.9341,14.5983 L11.9341,16.4353 C11.9341,16.6473 11.7621,16.8193 11.5501,16.8193 L10.8511,16.8193 C10.6401,16.8193 10.4681,16.6473 10.4681,16.4353 L10.4681,14.5983 L9.4681,14.5983 L9.4681,16.4353 C9.4681,17.1983 10.0881,17.8193 10.8511,17.8193" id="Fill-7" fill="#E20101"></path>
    </g>
</svg>