<?xml version="1.0" encoding="UTF-8"?>
<svg width="35px" height="35px" viewBox="0 0 35 35" version="1.1" xmlns="http://www.w3.org/2000/svg" xmlns:xlink="http://www.w3.org/1999/xlink">
    <title>编组</title>
    <g id="页面-1" stroke="none" stroke-width="1" fill="none" fill-rule="evenodd">
        <g id="15check" transform="translate(-309.000000, -132.000000)">
            <g id="编组" transform="translate(309.000000, 132.000000)">
                <g id="编组-5" fill="#F7FAFF">
                    <circle id="椭圆形" cx="17.5" cy="17.5" r="17.5"></circle>
                </g>
                <g id="Modify" transform="translate(10.000000, 10.000000)" fill="#04246A" fill-rule="nonzero">
                    <path d="M2.109,9.77400004 L2.11282739,9.77090844 L2.118,9.76300004 L2.13859764,9.74085844 L2.13859764,9.74085844 L2.14774694,9.73223304 L11.4406401,0.439339829 C11.9898149,-0.109834957 12.8588773,-0.144158381 13.4480381,0.336369556 L13.5619605,0.439339829 L15.1477469,2.02512627 C15.6969217,2.57430105 15.7312451,3.44336346 15.2507172,4.0325242 L15.1477469,4.14644661 L5.84628835,13.4477064 L5.84628835,13.4477064 C5.83379671,13.4602862 5.82065574,13.4715178 5.80681907,13.4821173 L5.77495691,13.5043708 L5.77495691,13.5043708 L5.734,13.528 L5.71853019,13.5362833 C5.71193558,13.5394634 5.70528562,13.5424903 5.69858564,13.545364 L5.68699567,13.5500247 L0.686995672,15.5500247 C0.306050095,15.702403 -0.0721812067,15.3597266 0.0118194144,14.9815132 L0.0370619886,14.9000911 L2.03706198,9.90009114 C2.03790574,9.89798174 2.03876141,9.89588214 2.03962887,9.89379234 C2.04634098,9.87722884 2.05445261,9.86035424 2.0635643,9.84388474 C2.06961572,9.83283284 2.07586787,9.82236894 2.08243747,9.81222454 L2.1049694,9.78026774 L2.109,9.77400004 Z M2.683,10.975 L1.39830033,14.1877864 L4.61,12.902 L2.683,10.975 Z M10.501,2.793 L3.20830033,10.0857864 L5.50130033,12.3787864 L12.794,5.086 L10.501,2.793 Z M12.2169948,1.08859116 L12.1477469,1.14644661 L11.208,2.086 L13.501,4.379 L14.4406401,3.43933983 C14.5925107,3.28746927 14.6262597,3.0622074 14.5418872,2.87771847 L14.4984956,2.80148094 L14.4406401,2.73223305 L12.8548537,1.14644661 C12.6812873,0.972880258 12.4118629,0.953595108 12.2169948,1.08859116 Z" id="Combined-Shape"></path>
                </g>
            </g>
        </g>
    </g>
</svg>