<?xml version="1.0" encoding="UTF-8"?>
<svg width="16px" height="16px" viewBox="0 0 16 16" version="1.1" xmlns="http://www.w3.org/2000/svg" xmlns:xlink="http://www.w3.org/1999/xlink">
    <title>Components / 02 Icon / 16 / Hazardous</title>
    <g id="Components-/-02-Icon-/-16-/-Hazardous" stroke="none" stroke-width="1" fill="none" fill-rule="evenodd">
        <path d="M7.64644661,0.146446609 C7.84170876,-0.0488155365 8.15829124,-0.0488155365 8.35355339,0.146446609 L8.35355339,0.146446609 L15.8535534,7.64644661 C16.0488155,7.84170876 16.0488155,8.15829124 15.8535534,8.35355339 L15.8535534,8.35355339 L8.35355339,15.8535534 C8.15829124,16.0488155 7.84170876,16.0488155 7.64644661,15.8535534 L7.64644661,15.8535534 L0.146446609,8.35355339 C-0.0488155365,8.15829124 -0.0488155365,7.84170876 0.146446609,7.64644661 L0.146446609,7.64644661 Z M8,1.207 L1.207,8 L8,14.793 L14.793,8 L8,1.207 Z M8,10.25 C8.414,10.25 8.75,10.58525 8.75,11 C8.75,11.414 8.414,11.75 8,11.75 C7.58525,11.75 7.25,11.414 7.25,11 C7.25,10.58525 7.58525,10.25 8,10.25 Z M8,4.5325 C8.229505,4.5325 8.42038383,4.69787828 8.45996795,4.91596628 L8.4675,5 L8.4675,9 C8.4675,9.25819312 8.25819312,9.4675 8,9.4675 C7.770495,9.4675 7.57961617,9.30212172 7.54003205,9.08403372 L7.5325,9 L7.5325,5 C7.5325,4.74180688 7.74180688,4.5325 8,4.5325 Z" id="Combined-Shape" fill="#04246A"></path>
    </g>
</svg>