<?xml version="1.0" encoding="UTF-8"?>
<svg width="20px" height="20px" viewBox="0 0 20 20" version="1.1" xmlns="http://www.w3.org/2000/svg" xmlns:xlink="http://www.w3.org/1999/xlink">
    <title>编组 2</title>
    <g id="页面-1" stroke="none" stroke-width="1" fill="none" fill-rule="evenodd">
        <g id="2click-结果页面-展开" transform="translate(-30.000000, -219.000000)">
            <g id="编组-5" transform="translate(15.000000, 111.000000)">
                <g id="编组-2" transform="translate(15.000000, 108.000000)">
                    <rect id="矩形" x="0" y="0" width="20" height="20"></rect>
                    <g id="Anchor" transform="translate(2.000000, 1.000000)" fill-rule="nonzero">
                        <path d="M7.09690693,0.864887364 C6.19541155,-0.0359989036 4.76398306,-0.139549049 3.51529011,0.48784301 C3.32037218,0.584692852 3.13093633,0.694943301 2.94820078,0.834431439 C2.80871264,0.931890399 2.67409745,1.04153173 2.5407005,1.16944662 C2.50415339,1.19381136 2.46699716,1.23096758 2.43105917,1.26690558 C2.2970531,1.40152077 2.16913821,1.54710009 2.05888776,1.69937971 C2.02294977,1.73653594 1.99858503,1.77856512 1.96812911,1.81572135 C1.87067015,1.9491183 1.90112607,2.14464534 2.04061421,2.2421043 C2.09604399,2.27804229 2.15695584,2.29692497 2.21725857,2.29692497 C2.31471753,2.29692497 2.40669443,2.25367755 2.46699716,2.16901008 C2.49745309,2.1202806 2.53460931,2.07703319 2.57724761,2.02830371 C2.6625242,1.91318031 2.75998316,1.80292986 2.86353331,1.69937971 C2.91226279,1.65065023 2.96099227,1.60192075 3.01581293,1.55989158 C3.13763663,1.44354994 3.2716427,1.34609098 3.40503966,1.25533232 C3.57620196,1.13289951 3.75893751,1.03544054 3.94106394,0.956255139 C4.92235387,0.529872187 5.99379332,0.621849081 6.67052398,1.2973615 C7.11457137,1.74201801 7.32228078,2.37550125 7.25527774,3.08268784 C7.18218352,3.81363004 6.83437686,4.53238988 6.26241458,5.09826097 C6.23195866,5.12871689 6.19541155,5.16587312 6.15886444,5.19023786 C6.29835258,5.329726 6.44515013,5.47591444 6.59133858,5.62819407 C6.62727657,5.59834726 6.65773249,5.56789133 6.69488872,5.5307351 C7.36430996,4.86131387 7.77911966,4.01463915 7.85830506,3.14299057 C7.94358165,2.24819549 7.67496039,1.44354994 7.09690693,0.864887364 M16.3244432,13.3396343 C15.95349,13.8701765 15.5331982,14.3696537 15.0702682,14.8325838 C13.2429126,16.6599393 10.9282623,17.7679258 8.54051779,17.968935 C8.2840789,17.9872085 8.03494943,18 7.78521084,18 C5.67766082,18 3.78330225,17.2501751 2.38232969,15.8498117 C0.561065362,14.0279382 0.347873885,12.1463712 0.688371129,10.6534217 C0.963083574,9.47234094 1.58377533,8.54038963 2.03452302,8.07075927 C2.79043909,7.27890521 3.70959891,6.60339279 4.75789188,6.0606682 C4.9034712,6.20746576 5.05026876,6.35974539 5.20254839,6.51750708 C4.14207305,7.04195811 3.22291322,7.70528816 2.47369746,8.49714222 C2.02904096,8.96007228 1.38946653,9.95354456 1.21891335,11.189446 C1.04226898,12.4448392 1.34682823,13.954844 2.81480383,15.4228196 C4.2523235,16.8609484 6.26850577,17.5492523 8.49178831,17.3598165 C10.7333444,17.1770809 12.9139886,16.123915 14.637794,14.4001096 C15.0763593,13.9609352 15.4783775,13.491914 15.8255751,12.9924368 C15.9224249,12.8529486 16.1118608,12.8224927 16.2513489,12.9132514 C16.3920553,13.0107103 16.4225112,13.2062374 16.3244432,13.3396343" id="Fill-1" fill="#E20101"></path>
                        <path d="M2.88186777,2.94204237 C2.68085867,3.14305148 2.40675534,3.25330193 2.12046964,3.25330193 L2.10767816,3.25330193 C1.82200158,3.25330193 1.54789825,3.1369603 1.34628003,2.92986 C1.13978885,2.72336883 1.03014752,2.44865639 1.03623871,2.1562795 C1.03623871,1.86999381 1.1513621,1.59589048 1.35907151,1.39488137 C1.6812952,1.07813975 2.15092557,1.00504553 2.54015229,1.16950753 C2.5042143,1.19387227 2.46705807,1.23041938 2.43112008,1.26696649 C2.29711401,1.40158168 2.16919912,1.547161 2.05894867,1.69944063 C1.95539853,1.711623 1.86463987,1.74817011 1.78484535,1.82735551 C1.69408669,1.91872329 1.64535721,2.03506492 1.64535721,2.16297981 C1.64535721,2.29089469 1.69408669,2.41210928 1.77875416,2.50347705 C1.87073106,2.59545395 1.98585445,2.64418343 2.11376934,2.64418343 C2.24168423,2.64418343 2.36350793,2.59545395 2.45548482,2.50956824 C2.55294378,2.41880958 2.59497296,2.29637676 2.59497296,2.16846187 C2.59497296,2.11973239 2.58949089,2.07100291 2.57730852,2.02836462 C2.66258511,1.91324122 2.76004407,1.80299077 2.86359422,1.69944063 C2.9123237,1.65071115 2.96105318,1.60198167 3.01587384,1.55934337 C3.30764161,1.97963514 3.25891213,2.57108921 2.88186777,2.94204237 M16.5559691,5.59779905 C16.5687606,5.72023187 16.5011484,5.83535527 16.3921162,5.89687624 L15.6063533,6.30498563 C16.5870341,9.00277149 15.9224859,12.0057257 13.8636653,14.0340903 C12.4687839,15.4113073 10.623764,16.1355492 8.74097869,16.1355492 C7.86445716,16.1355492 6.97514414,15.964996 6.11628705,15.636072 L5.68381292,16.4340172 C5.62899225,16.5320853 5.52544211,16.592388 5.41519166,16.592388 L5.38473573,16.592388 C5.26291203,16.5808148 5.15936188,16.4888379 5.12342389,16.3731054 L4.49542272,14.2411906 C4.46557591,14.1620052 4.47714916,14.0767286 4.51430539,14.0036344 C4.55024338,13.9305402 4.61785553,13.8757195 4.69643182,13.857446 L6.84113807,13.2239627 C6.96235266,13.1874156 7.09026754,13.230663 7.16336176,13.3275129 C7.24254717,13.4249718 7.25533866,13.559587 7.19442681,13.6631372 L6.82834659,14.3264672 C8.52839633,14.7833061 10.6657932,14.746759 11.6653566,13.2848746 C11.220091,12.6215445 8.46078418,9.82508147 6.41475512,7.74859649 C5.99994542,7.32160442 5.59183602,6.90801295 5.2026093,6.51756799 C5.05032967,6.35919718 4.90353211,6.20691756 4.75795279,6.06072911 C4.55024338,5.84814676 4.34923427,5.64104647 4.16101663,5.44551943 C3.43555649,6.06072911 3.02135591,6.21909993 2.78440881,6.21909993 C2.61385563,6.21909993 2.52857904,6.13382334 2.48594075,6.09118504 C2.3823906,5.98154371 2.07783135,5.67089327 3.16815347,4.41610915 C3.07069451,4.31255901 2.97871762,4.20900886 2.88186777,4.10545872 C2.63822037,4.19743561 2.3823906,4.25164716 2.12656083,4.25164716 C1.56008062,4.25164716 1.00578278,4.03845568 0.61533782,3.64252865 C-0.127177636,2.88113052 -0.19478979,1.73659685 0.396664277,0.907586571 L0.396664277,0.901495386 C0.402755462,0.901495386 0.402755462,0.896013319 0.402755462,0.896013319 C0.408237529,0.896013319 0.408237529,0.889313016 0.408237529,0.889313016 C0.414328714,0.889313016 0.414328714,0.883221831 0.414328714,0.883221831 L0.871167592,0.439174441 C0.871167592,0.432474138 0.877867895,0.432474138 0.877867895,0.432474138 C0.877867895,0.426382953 0.88395908,0.426382953 0.88395908,0.426382953 C0.88395908,0.420291768 0.889441147,0.420291768 0.889441147,0.420291768 C0.889441147,0.414809701 0.895532332,0.414809701 0.895532332,0.414809701 C0.895532332,0.408109398 0.902232636,0.408109398 0.902232636,0.408109398 C0.902232636,0.402018213 0.908323821,0.402018213 0.908323821,0.402018213 C1.2731858,0.140097256 1.71845143,0.0121823701 2.16919912,0 C2.66806718,0.00670030354 3.13769755,0.176644366 3.51535102,0.487903922 C3.3204331,0.584753764 3.13099724,0.695004213 2.94826169,0.83449235 C2.71679666,0.68830391 2.44269333,0.609118504 2.16249882,0.609118504 L2.15092557,0.609118504 C1.74281617,0.609118504 1.35907151,0.76139813 1.0721767,1.04829295 C0.469758498,1.63852878 0.457576128,2.61311838 1.05451226,3.2161457 C1.49307758,3.66141133 2.22401979,3.77044354 2.83922948,3.48476696 C2.96714436,3.42324599 3.1066325,3.46040222 3.19251821,3.55786118 C3.3996185,3.77044354 3.59453642,3.98363502 3.80163671,4.20291768 C3.91066893,4.31925931 3.91676011,4.50199486 3.8077279,4.61711826 C3.48428597,4.96431581 3.27718568,5.24451032 3.14378873,5.44551943 C3.35088902,5.31760454 3.63047442,5.11659543 3.98437227,4.79985381 C4.03858381,4.75173345 4.11228715,4.72736871 4.18538137,4.72736871 C4.2645668,4.72736871 4.34314309,4.75721552 4.40466406,4.81812737 L4.40466406,4.82421855 C4.41075524,4.82421855 4.41075524,4.82421855 4.41075524,4.83091886 L4.41684643,4.83091886 C5.08626766,5.53079602 5.95182506,6.4024446 6.85332044,7.32160442 C12.5175134,13.0716831 12.4687839,13.1514776 12.2677748,13.4737013 C11.5002855,14.7406678 10.1486516,15.2035979 8.72331425,15.2035979 C7.90039515,15.2035979 7.05432955,15.0513182 6.28684024,14.8021888 L6.29293142,14.7954885 C6.27404875,14.7893973 6.24968401,14.7893973 6.23201957,14.7833061 C6.08583113,14.6980295 6.03101046,14.515294 6.11628705,14.3697146 L6.30450467,14.0164259 L5.16606219,14.350832 L5.50107737,15.4904927 L5.71365972,15.106748 C5.79954543,14.9660416 5.98228098,14.911221 6.12846942,14.9849243 L6.14613386,15.0025888 C8.65022003,16.0447905 11.5063767,15.4959747 13.4378915,13.595525 C15.3748883,11.6950753 15.9651241,8.85049186 14.9667789,6.32935038 C14.9606877,6.32265007 14.9539874,6.31655889 14.9485054,6.3104677 C14.86932,6.16427926 14.9119583,5.98763489 15.0514464,5.90844949 L15.4595558,5.69586713 L14.3205042,5.33648721 L13.9672155,6.46883851 L14.3332957,6.28001178 C14.4794841,6.20143549 14.6683109,6.26173822 14.7414051,6.40792666 C14.7529783,6.42680934 14.7529783,6.44447377 14.7596786,6.46274733 L14.7657698,6.46274733 C15.3687971,8.50999462 15.3017941,11.1651422 13.291703,12.4869293 C13.2368824,12.5234764 13.1814526,12.5484503 13.1089675,12.5484503 C12.669793,12.5484503 11.5922624,11.5976163 6.23201957,6.12773215 C6.14065179,6.03027319 6.04258372,5.93890541 5.95791624,5.84814676 L5.90918676,5.79880816 C5.45782995,5.34806047 5.04423849,4.92167751 4.67815827,4.55072434 L4.68485857,4.55072434 C4.56912605,4.43438271 4.56303487,4.25164716 4.67206708,4.12982346 C5.02596493,3.75826117 5.25133878,3.46040222 5.38473573,3.24660163 C5.17215337,3.38121682 4.86759412,3.59989036 4.48384946,3.94160584 C4.42232849,3.99581739 4.35593458,4.02079124 4.28284036,4.02079124 C4.20365493,4.02079124 4.12446952,3.99033532 4.06294855,3.92881435 L4.02031026,3.88617606 C3.83757471,3.7034405 3.66093034,3.52070495 3.49098628,3.35015177 C3.38743613,3.24660163 3.36307139,3.08823082 3.44834798,2.96031593 C3.8077279,2.44865639 3.78275404,1.77253485 3.40510057,1.25478412 C3.57626287,1.13296042 3.7583893,1.03550146 3.94112485,0.956316051 C4.37359901,1.60198167 4.4290288,2.40601809 4.08183123,3.08213963 C4.14883426,3.15584297 4.22131936,3.22893719 4.29441361,3.30142229 C5.61010958,2.17455306 5.92746032,2.4919038 6.03710165,2.6070272 C6.14065179,2.71666853 6.4567843,3.03950133 5.31164151,4.33083256 C5.57417159,4.59945382 5.86045728,4.8851304 6.15892535,5.18968965 C6.29841349,5.32978691 6.44521105,5.47597535 6.59139949,5.62825498 L6.66449371,5.7013492 C8.79640847,7.87651138 12.3049311,11.4575191 13.0663292,11.9021756 C14.5830343,10.8118534 14.7042488,8.72866816 14.278475,6.99877161 L13.6023535,7.35206034 C13.553624,7.37642508 13.5042854,7.38860745 13.4555559,7.38860745 C13.389162,7.38860745 13.322159,7.36485183 13.2612471,7.31612235 C13.1698793,7.23632783 13.1333322,7.10841294 13.1698793,6.99268043 L13.8332094,4.86076566 C13.8581832,4.78218937 13.9123948,4.72066841 13.985489,4.67863923 C14.0591923,4.641483 14.1377686,4.63539182 14.216954,4.65975656 L16.3433867,5.33648721 C16.4652104,5.37242521 16.5443958,5.47597535 16.5559691,5.59779905 M0.646402864,0.615818808 C0.560517155,0.70048628 0.481940868,0.78576287 0.414328714,0.883221831 L0.871167592,0.439174441 C0.780408935,0.481203618 0.725588269,0.536024284 0.646402864,0.615818808" id="Fill-4" fill="#04246A"></path>
                    </g>
                </g>
            </g>
        </g>
    </g>
</svg>