<?xml version="1.0" encoding="UTF-8"?>
<svg width="16px" height="16px" viewBox="0 0 16 16" version="1.1" xmlns="http://www.w3.org/2000/svg" xmlns:xlink="http://www.w3.org/1999/xlink">
    <title>Components / 02 Icon / 16 / Reefer</title>
    <g id="Components-/-02-Icon-/-16-/-Reefer" stroke="none" stroke-width="1" fill="none" fill-rule="evenodd">
        <g id="Icon-/-Reefer" fill="#04246A">
            <path d="M8.04430405,0 C7.75006733,0.00301872315 7.51407421,0.243983859 7.51709293,0.53822058 C7.51709293,0.540173871 7.51709293,0.541949591 7.51709293,0.543902882 L7.51709293,2.06977865 L6.25739752,1.02103871 C6.14872349,0.92710315 6.00666593,0.881112015 5.86354293,0.893364479 C5.57072679,0.922841423 5.35728531,1.18387219 5.38658468,1.47668833 C5.40079043,1.61768046 5.47057621,1.74730799 5.58049325,1.83680425 L7.51709293,3.45146599 L7.51709293,7.08618623 L4.38738732,5.31046673 L3.94913974,2.78006645 C3.9063449,2.50340935 3.65650117,2.30701477 3.37753564,2.33063184 C3.08436435,2.35655735 2.86772657,2.61492453 2.8934745,2.90809582 C2.89489508,2.92478759 2.89720351,2.9411242 2.90022224,2.9576384 L3.18877665,4.62788016 L1.74049983,3.80660989 C1.64833999,3.75262802 1.54197439,3.7274128 1.43525365,3.73451568 C1.14190479,3.75617945 0.921538,4.01152792 0.943024206,4.30505435 C0.956342102,4.48528988 1.06022169,4.64652521 1.21879344,4.73335789 L2.58947132,5.5157399 L1.10781098,6.05964279 C0.832041737,6.16227937 0.691759897,6.4691237 0.794396484,6.74489294 C0.897033071,7.02083975 1.2038774,7.16112159 1.47964664,7.058485 L3.81027848,6.20400878 L6.97336762,8.00192477 L3.81027848,9.79415846 L1.47964664,8.93968224 C1.39689811,8.90683143 1.30722427,8.89546683 1.21879344,8.90629871 C0.926687586,8.94163553 0.718573261,9.2071056 0.753910079,9.49921145 C0.778415008,9.70111076 0.915678125,9.87157983 1.10781098,9.93852446 L2.59515363,10.4879321 L1.21879344,11.2648094 C0.953856095,11.3924836 0.842696054,11.7110477 0.97072543,11.975985 C1.09857723,12.2410999 1.41696374,12.35226 1.68190109,12.2244082 C1.70214429,12.2146417 1.72167721,12.2036323 1.74049983,12.1913798 L3.18877665,11.3701095 L2.90022224,13.0405288 C2.83434304,13.32713 3.013158,13.6130208 3.2999367,13.6790776 C3.58653782,13.7451343 3.87260623,13.5661418 3.938663,13.2795407 C3.94327987,13.2592975 3.94683131,13.2386991 3.94913974,13.2181008 L4.38738732,10.6877005 L7.51709293,8.91198102 L7.51709293,12.5465237 L5.58049325,14.161363 C5.33633182,14.3254395 5.27116291,14.656256 5.43506182,14.900595 C5.5991383,15.144934 5.93013242,15.2099254 6.17447142,15.0458489 C6.20430351,15.0257832 6.2321823,15.0026989 6.25739752,14.9771285 L7.51709293,13.9283886 L7.51709293,15.4599467 C7.51300878,15.7540058 7.74811404,15.9958588 8.04235076,16 C8.33658748,16.0042047 8.57844048,15.7690994 8.58252463,15.4748627 L8.58252463,15.4599467 L8.58252463,13.9283886 L9.84222004,14.9771285 C10.0483811,15.186841 10.3857678,15.1898597 10.5956578,14.9836987 C10.8055479,14.7775377 10.808389,14.440151 10.602228,14.2302609 C10.5770128,14.204513 10.549134,14.1814286 10.5193019,14.161363 L8.58252463,12.5465237 L8.58252463,8.91198102 L11.7122302,10.6877005 L12.1506554,13.2181008 C12.1827959,13.5105618 12.44578,13.7215173 12.7384185,13.6895543 C13.030702,13.6574138 13.2420126,13.3944297 13.2098721,13.1019687 C13.2075636,13.0811928 13.2041898,13.0607721 13.1993953,13.0405288 L12.9108409,11.3701095 L14.3592953,12.1913798 C14.6059427,12.3517273 14.936049,12.2814088 15.0962189,12.0345838 C15.2563888,11.7877587 15.1862479,11.4578301 14.9392453,11.2976602 C14.9206002,11.2854077 14.9008897,11.2743982 14.8808241,11.2648094 L13.5046415,10.4879321 L14.9918066,9.93852446 C15.2693515,9.84032717 15.4144278,9.53579128 15.3162305,9.25842389 C15.2341923,9.02633735 15.0035263,8.88072835 14.7588322,8.90629871 C14.7112429,8.91109316 14.6645415,8.92245776 14.6199709,8.93968224 L12.2893391,9.79415846 L9.12642751,8.00192477 L12.2893391,6.20400878 L14.6199709,7.058485 C14.8959177,7.16112159 15.2027621,7.02083975 15.3053986,6.74489294 C15.4080352,6.4691237 15.2677534,6.16227937 14.9918066,6.05964279 L13.5101462,5.5157399 L14.8808241,4.73335789 C15.1386586,4.59183305 15.2329493,4.26794181 15.091602,4.01010734 C14.9923393,3.8293391 14.797898,3.72208564 14.5922697,3.73451568 C14.5100539,3.74019798 14.4303241,3.76488048 14.3592953,3.80660989 L12.9108409,4.62788016 L13.1993953,2.9576384 C13.2517791,2.66801855 13.0596462,2.39082873 12.7700264,2.33844501 C12.7306054,2.33134213 12.6902965,2.32867855 12.6499877,2.33063184 C12.3983683,2.34341702 12.1898988,2.530933 12.1506554,2.78006645 L11.7122302,5.31046673 L8.58252463,7.08618623 L8.58252463,3.45146599 L10.5193019,1.83680425 C10.7634633,1.67272777 10.8286322,1.34173365 10.6645557,1.09739465 C10.5004793,0.853233219 10.1696627,0.788064313 9.92532371,0.952140795 C9.89531405,0.972206425 9.86761283,0.995290779 9.84222004,1.02103871 L8.58252463,2.06977865 L8.58252463,0.543902882 C8.58856208,0.249666161 8.35523253,0.00621501824 8.06099581,0 C8.05531351,0 8.04980878,0 8.04430405,0" id="Fill-1"></path>
        </g>
    </g>
</svg>