<?xml version="1.0" encoding="UTF-8"?>
<svg width="20px" height="20px" viewBox="0 0 20 20" version="1.1" xmlns="http://www.w3.org/2000/svg" xmlns:xlink="http://www.w3.org/1999/xlink">
    <title>Calendar</title>
    <g id="页面-2" stroke="none" stroke-width="1" fill="none" fill-rule="evenodd">
        <g id="1D&amp;D-charges-3个以上" transform="translate(-306.000000, -648.000000)">
            <g id="Calendar" transform="translate(306.000000, 648.000000)">
                <rect id="矩形" x="0" y="0" width="20" height="20"></rect>
                <path d="M15.497,13.23 C15.497,13.506 15.273,13.73 14.997,13.73 L4.997,13.73 C4.721,13.73 4.497,13.506 4.497,13.23 C4.497,12.954 4.721,12.73 4.997,12.73 L14.997,12.73 C15.273,12.73 15.497,12.954 15.497,13.23 L15.497,13.23 Z M15.497,9.998 C15.497,10.274 15.273,10.498 14.997,10.498 L4.997,10.498 C4.721,10.498 4.497,10.274 4.497,9.998 C4.497,9.722 4.721,9.498 4.997,9.498 L14.997,9.498 C15.273,9.498 15.497,9.722 15.497,9.998 L15.497,9.998 Z M17,15.88 C17,16.46 16.53,16.92 15.96,16.92 L4.03,16.92 C3.46,16.92 3,16.46 3,15.88 L3,6.19 C3,5.61 3.46,5.15 4.03,5.15 L4.72,5.15 L4.72,5.63 C4.72,6.53 5.45,7.26 6.35,7.26 L6.45,7.26 C7.34,7.26 8.07,6.53 8.07,5.63 L8.07,5.15 L11.72,5.15 L11.72,5.63 C11.72,6.53 12.45,7.26 13.35,7.26 L13.45,7.26 C14.34,7.26 15.07,6.53 15.07,5.63 L15.07,5.15 L15.96,5.15 C16.53,5.15 17,5.61 17,6.19 L17,15.88 Z M5.72,3.62 C5.72,3.28 6,3 6.35,3 L6.45,3 C6.79,3 7.07,3.28 7.07,3.62 L7.07,4.15 L7.07,5.15 L7.07,5.63 C7.07,5.98 6.79,6.26 6.45,6.26 L6.35,6.26 C6,6.26 5.72,5.98 5.72,5.63 L5.72,5.15 L5.72,4.15 L5.72,3.62 Z M12.72,3.62 C12.72,3.28 13,3 13.35,3 L13.45,3 C13.79,3 14.07,3.28 14.07,3.62 L14.07,4.15 L14.07,5.15 L14.07,5.63 C14.07,5.98 13.79,6.26 13.45,6.26 L13.35,6.26 C13,6.26 12.72,5.98 12.72,5.63 L12.72,5.15 L12.72,4.15 L12.72,3.62 Z M15.96,4.15 L15.07,4.15 L15.07,3.62 C15.07,2.72 14.34,2 13.45,2 L13.35,2 C12.45,2 11.72,2.72 11.72,3.62 L11.72,4.15 L8.07,4.15 L8.07,3.62 C8.07,2.72 7.34,2 6.45,2 L6.35,2 C5.45,2 4.72,2.72 4.72,3.62 L4.72,4.15 L4.03,4.15 C2.91,4.15 2,5.06 2,6.19 L2,15.88 C2,17.01 2.91,17.92 4.03,17.92 L15.96,17.92 C17.08,17.92 18,17.01 18,15.88 L18,6.19 C18,5.06 17.08,4.15 15.96,4.15 L15.96,4.15 Z" id="Fill-1" fill="#04246A" fill-rule="nonzero"></path>
            </g>
        </g>
    </g>
</svg>